<?xml version="1.0" encoding="utf-8"?>
<!-- Generator: Adobe Illustrator 18.0.0, SVG Export Plug-In . SVG Version: 6.00 Build 0)  -->
<!DOCTYPE svg PUBLIC "-//W3C//DTD SVG 1.1 Tiny//EN" "http://www.w3.org/Graphics/SVG/1.1/DTD/svg11-tiny.dtd">
<svg version="1.1" baseProfile="tiny" id="WebGL" xmlns="http://www.w3.org/2000/svg" xmlns:xlink="http://www.w3.org/1999/xlink"
	 x="0px" y="0px" width="1200px" height="500px" viewBox="0 0 1200 500" xml:space="preserve">
<g>
	<polygon fill="#990000" points="1113.5,323.6 1106.2,323.6 1106.2,342.7 1099.8,342.7 1099.8,323.6 1092.4,323.6 1092.4,318.1 
		1113.5,318.1 1113.5,323.6 	"/>
	<polygon fill="#990000" points="1116.4,318.1 1125.8,318.1 1130.1,334.5 1130.1,334.5 1134.4,318.1 1143.8,318.1 1143.8,342.7 
		1137.8,342.7 1137.8,324 1137.7,324 1132.6,342.7 1127.7,342.7 1122.5,324 1122.4,324 1122.4,342.7 1116.4,342.7 1116.4,318.1 	"/>
</g>
<g>
	<g>
		<path fill="#990000" d="M859.4,341.3c-9,3.8-18,5.7-27.1,5.7c-14.4,0-27.4-2.5-38.9-7.5c-11.5-5-21.2-11.9-29.1-20.7
			c-7.9-8.8-14-19.1-18.2-31c-4.2-11.9-6.3-24.7-6.3-38.4c0-14.1,2.1-27.1,6.3-39.2c4.2-12.1,10.2-22.6,18.1-31.5
			c7.9-9,17.6-16,29.1-21.1c11.5-5.1,24.4-7.7,38.9-7.7c9.7,0,19,1.5,28,4.4c9,2.9,17.2,7.2,24.5,12.8c7.3,5.6,13.3,12.6,18,20.9
			c4.7,8.3,7.6,17.8,8.7,28.5H872c-2.5-10.5-7.2-18.4-14.2-23.7c-7-5.3-15.5-7.9-25.6-7.9c-9.3,0-17.2,1.8-23.7,5.4
			c-6.5,3.6-11.8,8.4-15.8,14.5c-4,6.1-7,13-8.8,20.7c-1.8,7.7-2.8,15.7-2.8,24c0,7.9,0.9,15.6,2.8,23.1c1.8,7.5,4.8,14.2,8.8,20.2
			c4,6,9.3,10.8,15.8,14.4c6.5,3.6,14.4,5.4,23.7,5.4c13.7,0,24.3-3.5,31.8-10.4c7.5-6.9,11.8-16.9,13.1-30.1h-41.6V241h78.9v101.7
			h-26.3l-4.2-21.3C876.6,330.9,868.4,337.5,859.4,341.3z"/>
		<path fill="#990000" d="M981.5,154.6v153.1h91.7v34.9H940.2v-188H981.5z"/>
	</g>
	<path fill="#990000" d="M786.3,366c-63.1,38.4-157.7,60.2-263.2,60.2c-190.1,0-344.1-79.1-344.1-176.8
		c0-97.6,154.1-176.8,344.1-176.8c105.9,0,200.8,22.3,263.9,60.9C718.2,68.8,594.6,23.4,453.4,23.3C237,23.3,61.6,124.5,61.6,249.4
		c0,124.9,175.4,226.2,391.7,226.2C594,475.6,717.2,430.3,786.3,366z"/>
</g>
<g>
	<polygon fill="#990000" points="439.6,139.9 403.3,296.9 359.5,139.9 326.3,139.9 282.5,296.9 246.2,139.9 211.9,139.9 
		265.7,344.6 297.9,344.6 343.2,183.8 387.9,344.6 420.2,344.6 475.9,139.9 	"/>
	<path fill="#990000" d="M566.5,226.1c-5-7.1-11.3-12.5-18.7-16.2c-7.6-3.8-16.4-5.7-26.2-5.7c-11,0-20.9,2-29.5,5.9
		c-8.1,3.7-15,9.2-20.6,16.3c-10.3,13.1-15.7,31.6-15.7,53.5c0,9.7,1.4,18.9,4.1,27.1c2.7,8.3,6.8,15.6,12,21.7
		c11,12.8,26.7,19.6,45.4,19.6c9.8,0,17.8-1,24.5-3.1c5.8-1.8,9.7-4.2,12.9-6.3c4.1-2.7,7.8-6,11.2-9.8c2.8-3.3,5.3-6.9,7.5-10.8
		c3.8-7,5.7-13.6,6.1-17l0.3-2.3h-26.7l-0.1,1.9c-0.7,8.7-12.1,24.2-32.4,24.2c-29,0-35.9-21-36.4-39.5h97.2v-2.1
		c0-11.9-1.2-22.8-3.6-32.3C575.1,241.3,571.4,232.9,566.5,226.1z M518.5,228.2c21.5,0,33,11.6,35.1,35.4h-69.6
		C485.1,244.3,500.4,228.2,518.5,228.2z"/>
	<path fill="#990000" d="M715.7,245.7c-2.6-8.3-6.4-15.6-11.3-21.7c-5.1-6.3-11.3-11.2-18.4-14.6c-7.4-3.5-15.7-5.3-24.7-5.3h0
		c-8.3,0.1-15.8,1.9-22.4,5.4c-5.5,2.8-10.4,6.8-14.6,11.8v-62.8h-26.6v186H623v-12.7c2.2,2.9,5.1,6,8.9,8.7
		c7.2,5.2,16.1,7.8,26.4,7.8c11.1,0,21.1-2.5,29.5-7.4c7.5-4.4,13.9-10.7,18.9-18.7c4.4-7,7.7-15.3,9.9-24.6
		c1.9-8,2.9-16.8,2.9-25.4C719.6,262.9,718.3,253.9,715.7,245.7z M691.8,275.9c0,14.6-2.9,26.8-8.5,35.4
		c-5.9,9.1-14.5,13.7-25.5,13.7c-15.9,0-34.5-11.1-34.5-42.5c0-15,1.9-26.6,5.7-35.4c5.5-12.7,14.8-18.8,28.3-18.8
		c14.4,0,24.1,5.6,29.5,17.3C691.2,255.2,691.8,266.9,691.8,275.9z"/>
</g>
</svg>
