<svg id="Layer_1" data-name="Layer 1" xmlns="http://www.w3.org/2000/svg" width="434.5401" height="455.5537" viewBox="0 0 434.5401 455.5537"><defs><style>.cls-1{fill:#fff;}</style></defs><title>html-inheritance</title><path class="cls-1" d="M118.82,34.81l80,30-80,30-80-30Z" transform="translate(-34.9399 -33.7418)"/><path d="M118.82,95.8776l-.3511-.1314L35.9716,64.81,118.82,33.7418l.3511.1314L201.6674,64.81ZM41.6679,64.81,118.82,93.7418,195.9721,64.81,118.82,35.8776Z" transform="translate(-34.9399 -33.7418)"/><g id="E"><path id="bd" d="M92.2748,64.8344v-1.8l8.75-3.7v1.35l-7.55,3.25,7.55,3.2v1.35" transform="translate(-34.9399 -33.7418)"/><path id="be" d="M107.1748,61.3844c-3.6,0-2.2,5.1-2.45,8.45h-1.6v-13.05h1.6l-.05,5.15a3.1623,3.1623,0,0,1,3.05-1.8c4.45,0,2.65,5.8,3,9.7h-1.6v-6.05c.1-1.6-.4-2.45-1.95-2.4" transform="translate(-34.9399 -33.7418)"/><path id="bf" d="M114.8248,67.4844c-.1,1.2.9,1.45,1.9,1.1v1.2c-1.65.5-3.5.25-3.5-1.95v-6.35h-1.1v-1.15h1.2l.45-2.15h1.05v2.15h1.75v1.15h-1.75v6" transform="translate(-34.9399 -33.7418)"/><path id="bg" d="M127.3748,61.3844c-3.35.15-1.9,5.25-2.2,8.45h-1.55v-6.05c0-1.45-.25-2.5-1.75-2.4-3.3.2-1.9,5.2-2.2,8.45h-1.55l-.05-9.5h1.5a8.083,8.083,0,0,0,.1,1.6c.5-2.2,4.95-2.5,5.35,0a3.0666,3.0666,0,0,1,2.9-1.8c4.25-.1,2.35,5.95,2.75,9.7h-1.55v-6.05c0-1.45-.25-2.45-1.75-2.4" transform="translate(-34.9399 -33.7418)"/><path id="bh" d="M133.0248,69.8344v-13.05h1.6v13.05h-1.6" transform="translate(-34.9399 -33.7418)"/><path id="bi" d="M136.6748,68.4844v-1.35l7.55-3.2-7.55-3.25v-1.35l8.75,3.7v1.8" transform="translate(-34.9399 -33.7418)"/></g><path class="cls-1" d="M438.82,214.81a80,80,0,1,1-80-80A80.0036,80.0036,0,0,1,438.82,214.81Z" transform="translate(-34.9399 -33.7418)"/><path d="M358.82,295.8092a81,81,0,1,1,81-80.9995A81.0916,81.0916,0,0,1,358.82,295.8092Zm0-159.9995a79,79,0,1,0,79,79A79.09,79.09,0,0,0,358.82,135.81Z" transform="translate(-34.9399 -33.7418)"/><g id="I"><path id="bd-2" data-name="bd" d="M329.72,214.8344v-1.8l8.75-3.7v1.35l-7.55,3.25,7.55,3.2v1.35" transform="translate(-34.9399 -33.7418)"/><path id="bt" d="M345.07,210.1344c2.65,0,3.45,1.95,3.5,4.9,0,3.3-1.15,5-3.5,5-1.55-.05-2.45-.55-2.95-1.7l-.1,1.5h-1.55l.05-13.05h1.6v5.05A2.8152,2.8152,0,0,1,345.07,210.1344Zm-.4,8.7c2,0,2.25-1.7,2.25-3.75,0-2-.25-3.75-2.25-3.7-2.1,0-2.55,1.6-2.55,3.8,0,2.15.5,3.65,2.55,3.65" transform="translate(-34.9399 -33.7418)"/><path id="bu" d="M354.32,210.1344c3.1-.05,4.25,1.85,4.25,4.95.05,3.15-1.35,4.95-4.3,4.95s-4.15-1.95-4.2-4.95C350.07,211.7844,351.47,210.1344,354.32,210.1344Zm-.05,8.7c2.2.05,2.65-1.55,2.65-3.75,0-2.15-.4-3.75-2.55-3.75s-2.65,1.6-2.65,3.75.5,3.7,2.55,3.75" transform="translate(-34.9399 -33.7418)"/><path id="bs" d="M363.57,210.1344a3.1647,3.1647,0,0,1,3,1.65l-.05-5h1.6l.05,13.05h-1.5a13.5912,13.5912,0,0,0-.15-1.55,2.848,2.848,0,0,1-2.95,1.75c-2.65,0-3.45-1.95-3.5-4.9C360.07,211.8344,361.22,210.1344,363.57,210.1344Zm.45,1.2c-2,0-2.3,1.7-2.3,3.75,0,2,.3,3.7,2.25,3.7,2.1,0,2.55-1.6,2.55-3.8,0-2.1-.45-3.7-2.5-3.65" transform="translate(-34.9399 -33.7418)"/><path id="bv" d="M378.27,210.3344l-4.3,11.05a3.3975,3.3975,0,0,1-4.05,2.1v-1.2c1.95.3,2.65-1,3.2-2.5l-3.75-9.45h1.7l2.85,7.8,2.7-7.8h1.65" transform="translate(-34.9399 -33.7418)"/><path id="bi-2" data-name="bi" d="M379.22,218.4844v-1.35l7.55-3.2-7.55-3.25v-1.35l8.75,3.7v1.8" transform="translate(-34.9399 -33.7418)"/></g><path d="M35.97,64.81l2.67,1h-3.7v-2h3.7Z" transform="translate(-34.9399 -33.7418)"/><polygon points="324.88 81.568 322.88 81.568 322.88 32.068 167.73 32.068 167.73 30.068 324.88 30.068 324.88 81.568"/><path d="M202.69,65.81h-3.7l2.68-1-2.67-1h3.7Z" transform="translate(-34.9399 -33.7418)"/><path d="M358.82,130.57l-4.64-14.26h9.28Z" transform="translate(-34.9399 -33.7418)"/><path d="M358.82,133.8014,352.8032,115.31h12.0332ZM355.5571,117.31l3.2627,10.0278,3.2627-10.0278Z" transform="translate(-34.9399 -33.7418)"/><path class="cls-1" d="M424.82,414.81c24.3,0,44,16.5279,44,36.9129s-19.7,36.913-44,36.913h-132c-24.3,0-44-16.528-44-36.913s19.7-36.9129,44-36.9129Z" transform="translate(-34.9399 -33.7418)"/><path d="M424.82,489.2955h-132c-24.626,0-44.66-16.8554-44.66-37.5732s20.0342-37.5732,44.66-37.5732h132c24.626,0,44.66,16.8554,44.66,37.5732S449.4458,489.2955,424.82,489.2955Zm-132-73.8261c-23.8975,0-43.34,16.2636-43.34,36.2529s19.4424,36.2529,43.34,36.2529h132c23.8974,0,43.34-16.2636,43.34-36.2529s-19.4424-36.2529-43.34-36.2529Z" transform="translate(-34.9399 -33.7418)"/><g id="N"><path id="bd-3" data-name="bd" d="M339.2248,454.21v-1.8l8.75-3.7v1.35l-7.55,3.25,7.55,3.2v1.35" transform="translate(-34.9399 -33.7418)"/><path id="be-2" data-name="be" d="M354.1248,450.76c-3.6,0-2.2,5.1-2.45,8.45h-1.6V446.16h1.6l-.05,5.15a3.1623,3.1623,0,0,1,3.05-1.8c4.45,0,2.65,5.8,3,9.7h-1.6v-6.05c.1-1.6-.4-2.45-1.95-2.4" transform="translate(-34.9399 -33.7418)"/><path id="bJ" d="M360.1748,459.21v-1.35h3.2v-9.5l-2.8,1.95v-1.45l2.9-2.05h1.45v11.05h3.05v1.35h-7.8" transform="translate(-34.9399 -33.7418)"/><path id="bi-3" data-name="bi" d="M369.7248,457.86v-1.35l7.55-3.2-7.55-3.25v-1.35l8.75,3.7v1.8" transform="translate(-34.9399 -33.7418)"/></g><rect x="322.8799" y="263.0674" width="2" height="98.5"/><path d="M358.82,295.81h1v1.03h-2v-1.06Z" transform="translate(-34.9399 -33.7418)"/><path d="M358.82,410.57l-4.64-14.26h9.28Z" transform="translate(-34.9399 -33.7418)"/><path d="M358.82,413.8024l-6.0166-18.4932h12.0332Zm-3.2627-16.4932,3.2627,10.0283,3.2627-10.0283Z" transform="translate(-34.9399 -33.7418)"/></svg>