<svg id="Layer_1" data-name="Layer 1" xmlns="http://www.w3.org/2000/svg" width="691.6602" height="635.7358" viewBox="0 0 691.6602 635.7358"><defs><style>.cls-1{fill:#fff;}</style></defs><title>html-tree</title><path class="cls-1" d="M398.38,204.1741l80,30-80,30-80-30Z" transform="translate(-57.3799 -22.9243)"/><path d="M398.38,265.2422l-.3511-.1314-82.4971-30.9365L398.38,203.1064l.3511.1314,82.4965,30.9365ZM321.228,234.1743,398.38,263.1064l77.1523-28.9321L398.38,205.2422Z" transform="translate(-57.3799 -22.9243)"/><g id="E"><path id="bd" d="M371.8349,234.1991v-1.8l8.75-3.7v1.35l-7.55,3.25,7.55,3.2v1.35" transform="translate(-57.3799 -22.9243)"/><path id="be" d="M386.7349,230.7491c-3.6,0-2.2,5.1-2.45,8.45h-1.6v-13.05h1.6l-.05,5.15a3.1623,3.1623,0,0,1,3.05-1.8c4.45,0,2.65,5.8,3,9.7h-1.6v-6.05c.1-1.6-.4-2.45-1.95-2.4" transform="translate(-57.3799 -22.9243)"/><path id="bf" d="M394.3849,236.8491c-.1,1.2.9,1.45,1.9,1.1v1.2c-1.65.5-3.5.25-3.5-1.95v-6.35h-1.1v-1.15h1.2l.45-2.15h1.05v2.15h1.75v1.15h-1.75v6" transform="translate(-57.3799 -22.9243)"/><path id="bg" d="M406.9349,230.7491c-3.35.15-1.9,5.25-2.2,8.45h-1.55v-6.05c0-1.45-.25-2.5-1.75-2.4-3.3.2-1.9,5.2-2.2,8.45h-1.55l-.05-9.5h1.5a8.083,8.083,0,0,0,.1,1.6c.5-2.2,4.95-2.5,5.35,0a3.0666,3.0666,0,0,1,2.9-1.8c4.25-.1,2.35,5.95,2.75,9.7h-1.55v-6.05c0-1.45-.25-2.45-1.75-2.4" transform="translate(-57.3799 -22.9243)"/><path id="bh" d="M412.5849,239.1991v-13.05h1.6v13.05h-1.6" transform="translate(-57.3799 -22.9243)"/><path id="bi" d="M416.2349,237.8491v-1.35l7.55-3.2-7.55-3.25v-1.35l8.75,3.7v1.8" transform="translate(-57.3799 -22.9243)"/></g><path class="cls-1" d="M398.38,24.1741l80,60-80,60-80-60Z" transform="translate(-57.3799 -22.9243)"/><path d="M398.38,145.4243l-81.6665-61.25,81.6665-61.25,81.667,61.25Zm-78.3335-61.25,78.3335,58.75,78.333-58.75-78.333-58.75Z" transform="translate(-57.3799 -22.9243)"/><g id="F"><path id="bd-2" data-name="bd" d="M349.2413,71.1174v-1.8l8.75-3.7v1.35l-7.55,3.25,7.55,3.2v1.35" transform="translate(-57.3799 -22.9243)"/><path id="bj" d="M360.3413,63.7174c5.9-.35,10.8.4,10.65,6.1-.15,3.9-2.15,6.3-6.05,6.3h-4.6Zm1.65,11.05c4.45.4,7.3-.8,7.3-4.95s-3-5.05-7.3-4.75v9.7" transform="translate(-57.3799 -22.9243)"/><path id="bk" d="M379.0505,63.1026c4.2,0,6.3778,2.3852,6.3778,6.5333,0,4.0963-2.2815,6.6889-6.3778,6.6889-4.2,0-6.3777-2.5407-6.3777-6.6889S374.8505,63.1026,379.0505,63.1026Zm0,11.77c3.2667,0,4.6149-2.126,4.6149-5.2371s-1.5038-5.1333-4.6149-5.1333c-3.1629,0-4.6148,2.0222-4.6148,5.1333s1.4519,5.1852,4.6148,5.2371" transform="translate(-57.3799 -22.9243)"/><path id="bl" d="M397.3024,66.8359a3.6569,3.6569,0,0,0-3.7852-2.3333c-3.0593,0-4.5111,2.0741-4.5111,5.1333,0,3.1111,1.5037,5.2371,4.6148,5.2371,2.23,0,3.2148-1.2445,4.0445-2.6963l1.4.7259a5.709,5.709,0,0,1-5.5482,3.4222c-4.1481,0-6.0667-2.5926-6.2741-6.6889-.3111-5.3926,5.1334-7.9333,9.6963-5.7555a4.2038,4.2038,0,0,1,2.0222,2.3852" transform="translate(-57.3799 -22.9243)"/><path id="bm" d="M406.3246,64.71V76.1174h-1.763V64.71h-4.4074V63.2581H410.732V64.71h-4.4074" transform="translate(-57.3799 -22.9243)"/><path id="bn" d="M418.1987,70.7767v5.3407h-1.763V70.7767L411.51,63.2581h1.9185l3.8889,6.1186,3.8889-6.1186h1.9185" transform="translate(-57.3799 -22.9243)"/><path id="bo" d="M425.095,63.2581c4.5111.0519,9.9037-.7777,9.9037,3.8889,0,4.0445-3.9926,4.1482-8.1926,3.9408v5.03H425.095Zm1.7111,6.4815c2.9556,0,6.43.57,6.43-2.5926,0-3.0592-3.5259-2.437-6.43-2.4889V69.74" transform="translate(-57.3799 -22.9243)"/><path id="bp" d="M437.5394,76.1174V63.2581h9.6963V64.71h-7.9852v4.0963h7.4667v1.4h-7.4667v4.5111h8.4v1.4H437.5394" transform="translate(-57.3799 -22.9243)"/></g><g id="G"><path id="be-2" data-name="be" d="M381.0534,89.7544c-3.7333,0-2.2815,5.2889-2.5407,8.763h-1.6593V84.9841h1.6593l-.0519,5.3407a3.28,3.28,0,0,1,3.163-1.8667c4.6148,0,2.7481,6.0149,3.1111,10.0593h-1.6593V92.2433c.1037-1.6592-.4148-2.5407-2.0222-2.4889" transform="translate(-57.3799 -22.9243)"/><path id="bf-2" data-name="bf" d="M388.9867,96.08c-.1037,1.2444.9334,1.5037,1.97,1.1407v1.2444c-1.7111.5186-3.63.2593-3.63-2.0222V89.8581h-1.1408V88.6655h1.2445l.4666-2.23h1.0889v2.23h1.8148v1.1926h-1.8148V96.08" transform="translate(-57.3799 -22.9243)"/><path id="bg-2" data-name="bg" d="M402.0015,89.7544c-3.474.1556-1.97,5.4445-2.2814,8.763h-1.6074V92.2433c0-1.5037-.2593-2.5926-1.8149-2.4889-3.4222.2074-1.97,5.3926-2.2814,8.763H392.409l-.0519-9.8519h1.5556a8.375,8.375,0,0,0,.1037,1.6593c.5185-2.2815,5.1333-2.5926,5.5481,0a3.18,3.18,0,0,1,3.0074-1.8667c4.4074-.1037,2.4371,6.17,2.8519,10.0593h-1.6074V92.2433c0-1.5037-.2593-2.5407-1.8149-2.4889" transform="translate(-57.3799 -22.9243)"/><path id="bh-2" data-name="bh" d="M407.8608,98.5174V84.9841H409.52V98.5174h-1.6593" transform="translate(-57.3799 -22.9243)"/><path id="bi-2" data-name="bi" d="M411.6127,97.1674v-1.35l7.55-3.2-7.55-3.25v-1.35l8.75,3.7v1.8" transform="translate(-57.3799 -22.9243)"/></g><rect x="340" y="123.5" width="2" height="38.1797"/><path d="M398.38,145.4241l1-.75v1.78h-2v-1.78Z" transform="translate(-57.3799 -22.9243)"/><path d="M398.38,199.8741l-4.64-14.27h9.28Z" transform="translate(-57.3799 -22.9243)"/><path d="M398.38,203.1079l-6.0166-18.5039h12.0332Zm-3.2637-16.5039L398.38,196.64l3.2637-10.0361Z" transform="translate(-57.3799 -22.9243)"/><path class="cls-1" d="M58.38,350.5741l46.4-46.4h67.2l46.4,46.4v67.2l-46.4,46.4h-67.2l-46.4-46.4Z" transform="translate(-57.3799 -22.9243)"/><path d="M172.394,465.1738H104.3657L57.38,418.1885V350.16l46.9858-46.9859H172.394L219.38,350.16v68.0283Zm-67.2-2h66.3721L217.38,417.36V350.9883l-45.814-45.814H105.1938L59.38,350.9883V417.36Z" transform="translate(-57.3799 -22.9243)"/><g id="H"><path id="bd-3" data-name="bd" d="M108.78,384.1991v-1.8l8.75-3.7v1.35l-7.55,3.25,7.55,3.2v1.35" transform="translate(-57.3799 -22.9243)"/><path id="be-3" data-name="be" d="M123.68,380.7491c-3.6,0-2.2,5.1-2.45,8.45h-1.6v-13.05h1.6l-.05,5.15a3.1623,3.1623,0,0,1,3.05-1.8c4.45,0,2.65,5.8,3,9.7h-1.6v-6.05c.1-1.6-.4-2.45-1.95-2.4" transform="translate(-57.3799 -22.9243)"/><path id="bq" d="M133.38,379.4991c3.15,0,4.3,2.1,4.2,5.3h-6.75c0,2,.7,3.35,2.65,3.4a2.3264,2.3264,0,0,0,2.45-1.45l1.4.4c-.55,1.4-1.85,2.25-3.85,2.25-2.9,0-4.4-1.85-4.35-5C129.18,381.3491,130.43,379.4991,133.38,379.4991Zm2.6,4.05a2.5657,2.5657,0,0,0-4.85-1.4,3.6327,3.6327,0,0,0-.3,1.4h5.15" transform="translate(-57.3799 -22.9243)"/><path id="br" d="M145.43,387.3991a3.7106,3.7106,0,0,1-3.4,2,2.6661,2.6661,0,0,1-2.9-2.85c-.05-3.2,3.15-3.15,6.25-3.15.15-1.75-.45-2.7-2.05-2.7-1.2.05-2.05.35-2.1,1.55l-1.65-.15c.25-1.85,1.65-2.6,3.8-2.6,2.25,0,3.6,1,3.6,3.2v4.1c-.05,1,.35,1.6,1.4,1.35v1C146.83,389.5991,145.33,389.0491,145.43,387.3991Zm-4.65-.85a1.51,1.51,0,0,0,1.6,1.65c2.05-.15,3.15-1.45,3-3.7-2.15.1-4.6-.25-4.6,2.05" transform="translate(-57.3799 -22.9243)"/><path id="bs" d="M152.63,379.4991a3.1647,3.1647,0,0,1,3,1.65l-.05-5h1.6l.05,13.05h-1.5a13.5912,13.5912,0,0,0-.15-1.55,2.848,2.848,0,0,1-2.95,1.75c-2.65,0-3.45-1.95-3.5-4.9C149.13,381.1991,150.28,379.4991,152.63,379.4991Zm.45,1.2c-2,0-2.3,1.7-2.3,3.75,0,2,.3,3.7,2.25,3.7,2.1,0,2.55-1.6,2.55-3.8,0-2.1-.45-3.7-2.5-3.65" transform="translate(-57.3799 -22.9243)"/><path id="bi-3" data-name="bi" d="M159.28,387.8491v-1.35l7.55-3.2-7.55-3.25v-1.35l8.75,3.7v1.8" transform="translate(-57.3799 -22.9243)"/></g><path class="cls-1" d="M718.38,384.1741a80,80,0,1,1-80-80A80.0036,80.0036,0,0,1,718.38,384.1741Z" transform="translate(-57.3799 -22.9243)"/><path d="M638.38,465.1738a81,81,0,1,1,81-81A81.0916,81.0916,0,0,1,638.38,465.1738Zm0-159.9995a79,79,0,1,0,79,79A79.09,79.09,0,0,0,638.38,305.1743Z" transform="translate(-57.3799 -22.9243)"/><g id="I"><path id="bd-4" data-name="bd" d="M609.28,384.1991v-1.8l8.75-3.7v1.35l-7.55,3.25,7.55,3.2v1.35" transform="translate(-57.3799 -22.9243)"/><path id="bt" d="M624.63,379.4991c2.65,0,3.45,1.95,3.5,4.9,0,3.3-1.15,5-3.5,5-1.55-.05-2.45-.55-2.95-1.7l-.1,1.5h-1.55l.05-13.05h1.6v5.05A2.8152,2.8152,0,0,1,624.63,379.4991Zm-.4,8.7c2,0,2.25-1.7,2.25-3.75,0-2-.25-3.75-2.25-3.7-2.1,0-2.55,1.6-2.55,3.8,0,2.15.5,3.65,2.55,3.65" transform="translate(-57.3799 -22.9243)"/><path id="bu" d="M633.88,379.4991c3.1-.05,4.25,1.85,4.25,4.95.05,3.15-1.35,4.95-4.3,4.95s-4.15-1.95-4.2-4.95C629.63,381.1491,631.03,379.4991,633.88,379.4991Zm-.05,8.7c2.2.05,2.65-1.55,2.65-3.75,0-2.15-.4-3.75-2.55-3.75s-2.65,1.6-2.65,3.75.5,3.7,2.55,3.75" transform="translate(-57.3799 -22.9243)"/><path id="bs-2" data-name="bs" d="M643.13,379.4991a3.1647,3.1647,0,0,1,3,1.65l-.05-5h1.6l.05,13.05h-1.5a13.5912,13.5912,0,0,0-.15-1.55,2.848,2.848,0,0,1-2.95,1.75c-2.65,0-3.45-1.95-3.5-4.9C639.63,381.1991,640.78,379.4991,643.13,379.4991Zm.45,1.2c-2,0-2.3,1.7-2.3,3.75,0,2,.3,3.7,2.25,3.7,2.1,0,2.55-1.6,2.55-3.8,0-2.1-.45-3.7-2.5-3.65" transform="translate(-57.3799 -22.9243)"/><path id="bv" d="M657.83,379.6991l-4.3,11.05a3.3975,3.3975,0,0,1-4.05,2.1v-1.2c1.95.3,2.65-1,3.2-2.5l-3.75-9.45h1.7l2.85,7.8,2.7-7.8h1.65" transform="translate(-57.3799 -22.9243)"/><path id="bi-4" data-name="bi" d="M658.78,387.8491v-1.35l7.55-3.2-7.55-3.25v-1.35l8.75,3.7v1.8" transform="translate(-57.3799 -22.9243)"/></g><polygon points="82 261.75 80 261.75 80 210.25 257.15 210.25 257.15 212.25 82 212.25 82 261.75"/><path d="M315.53,234.1741l2.67,1h-3.7v-2h3.7Z" transform="translate(-57.3799 -22.9243)"/><path d="M138.38,299.9341l-4.64-14.26h9.28Z" transform="translate(-57.3799 -22.9243)"/><path d="M138.38,303.166l-6.0171-18.4917H144.397Zm-3.2632-16.4917,3.2632,10.0278,3.2632-10.0278Z" transform="translate(-57.3799 -22.9243)"/><polygon points="582 261.75 580 261.75 580 212.25 424.85 212.25 424.85 210.25 582 210.25 582 261.75"/><path d="M482.25,235.1741h-3.7l2.68-1-2.67-1h3.7Z" transform="translate(-57.3799 -22.9243)"/><path d="M638.38,299.9341l-4.64-14.26h9.28Z" transform="translate(-57.3799 -22.9243)"/><path d="M638.38,303.166l-6.0166-18.4917h12.0332Zm-3.2627-16.4917,3.2627,10.0278,3.2627-10.0278Z" transform="translate(-57.3799 -22.9243)"/><path class="cls-1" d="M186.38,525.7741c17.67,0,32,10.5229,32,23.515s-14.33,23.515-32,23.515h-96c-17.67,0-32-10.523-32-23.515s14.33-23.515,32-23.515Z" transform="translate(-57.3799 -22.9243)"/><path d="M186.38,573.57h-96c-18.0679,0-32.7666-10.8926-32.7666-24.2812S72.312,525.0078,90.38,525.0078h96c18.0679,0,32.7666,10.8926,32.7666,24.2813S204.4478,573.57,186.38,573.57Zm-96-47.0293c-17.2222,0-31.2334,10.2051-31.2334,22.7481s14.0112,22.748,31.2334,22.748h96c17.2222,0,31.2334-10.2051,31.2334-22.748S203.6021,526.541,186.38,526.541Z" transform="translate(-57.3799 -22.9243)"/><g id="J"><path id="bd-5" data-name="bd" d="M114.83,553.2991v-1.8l8.75-3.7v1.35l-7.55,3.25,7.55,3.2v1.35" transform="translate(-57.3799 -22.9243)"/><path id="bf-3" data-name="bf" d="M127.38,555.9491c-.1,1.2.9,1.45,1.9,1.1v1.2c-1.65.5-3.5.25-3.5-1.95v-6.35h-1.1v-1.15h1.2l.45-2.15h1.05v2.15h1.75v1.15h-1.75v6" transform="translate(-57.3799 -22.9243)"/><path id="bw" d="M130.63,546.7491v-1.5h1.6v1.5Zm0,11.55v-9.5h1.6v9.5h-1.6" transform="translate(-57.3799 -22.9243)"/><path id="bf-4" data-name="bf" d="M136.33,555.9491c-.1,1.2.9,1.45,1.9,1.1v1.2c-1.65.5-3.5.25-3.5-1.95v-6.35h-1.1v-1.15h1.2l.45-2.15h1.05v2.15h1.75v1.15h-1.75v6" transform="translate(-57.3799 -22.9243)"/><path id="bh-3" data-name="bh" d="M139.58,558.2991v-13.05h1.6v13.05h-1.6" transform="translate(-57.3799 -22.9243)"/><path id="bq-2" data-name="bq" d="M147.33,548.5991c3.15,0,4.3,2.1,4.2,5.3h-6.75c0,2,.7,3.35,2.65,3.4a2.3264,2.3264,0,0,0,2.45-1.45l1.4.4c-.55,1.4-1.85,2.25-3.85,2.25-2.9,0-4.4-1.85-4.35-5C143.13,550.4491,144.38,548.5991,147.33,548.5991Zm2.6,4.05a2.5657,2.5657,0,0,0-4.85-1.4,3.6327,3.6327,0,0,0-.3,1.4h5.15" transform="translate(-57.3799 -22.9243)"/><path id="bi-5" data-name="bi" d="M153.23,556.9491v-1.35l7.55-3.2-7.55-3.25v-1.35l8.75,3.7v1.8" transform="translate(-57.3799 -22.9243)"/></g><rect x="80" y="443.2495" width="2" height="40.1006"/><path d="M139.38,466.2041h-2v-1.03h2Z" transform="translate(-57.3799 -22.9243)"/><path d="M138.38,521.5341l-4.64-14.26h9.28Z" transform="translate(-57.3799 -22.9243)"/><path d="M138.38,524.7656l-6.0171-18.4912H144.397Zm-3.2632-16.4912,3.2632,10.0283,3.2632-10.0283Z" transform="translate(-57.3799 -22.9243)"/><path class="cls-1" d="M704.38,584.1741c24.3,0,44,16.5279,44,36.9129S728.68,658,704.38,658h-132c-24.3,0-44-16.5279-44-36.913s19.7-36.9129,44-36.9129Z" transform="translate(-57.3799 -22.9243)"/><path d="M704.38,658.66h-132c-24.626,0-44.66-16.8555-44.66-37.5733s20.0342-37.5732,44.66-37.5732h132c24.626,0,44.66,16.8554,44.66,37.5732S729.0059,658.66,704.38,658.66Zm-132-73.8262c-23.8975,0-43.34,16.2637-43.34,36.2529S548.4824,657.34,572.38,657.34h132c23.8974,0,43.34-16.2636,43.34-36.2529s-19.4424-36.2529-43.34-36.2529Z" transform="translate(-57.3799 -22.9243)"/><g id="N"><path id="bd-6" data-name="bd" d="M618.7849,623.5741v-1.8l8.75-3.7v1.35l-7.55,3.25,7.55,3.2v1.35" transform="translate(-57.3799 -22.9243)"/><path id="be-4" data-name="be" d="M633.6849,620.1241c-3.6,0-2.2,5.1-2.45,8.45h-1.6v-13.05h1.6l-.05,5.15a3.1623,3.1623,0,0,1,3.05-1.8c4.45,0,2.65,5.8,3,9.7h-1.6v-6.05c.1-1.6-.4-2.45-1.95-2.4" transform="translate(-57.3799 -22.9243)"/><path id="bJ-2" data-name="bJ" d="M639.7349,628.5741v-1.35h3.2v-9.5l-2.8,1.95v-1.45l2.9-2.05h1.45v11.05h3.05v1.35h-7.8" transform="translate(-57.3799 -22.9243)"/><path id="bi-6" data-name="bi" d="M649.2849,627.2241v-1.35l7.55-3.2-7.55-3.25v-1.35l8.75,3.7v1.8" transform="translate(-57.3799 -22.9243)"/></g><rect x="580" y="443.2495" width="2" height="98.5"/><path d="M638.38,465.1741h1v1.03h-2v-1.06Z" transform="translate(-57.3799 -22.9243)"/><path d="M638.38,579.9341l-4.64-14.26h9.28Z" transform="translate(-57.3799 -22.9243)"/><path d="M638.38,583.167l-6.0166-18.4932h12.0332Zm-3.2627-16.4932,3.2627,10.0283,3.2627-10.0283Z" transform="translate(-57.3799 -22.9243)"/></svg>