<svg xmlns="http://www.w3.org/2000/svg" id="Layer_1" width="390" height="383.083" data-name="Layer 1" viewBox="0 0 390 383.083"><defs><style>.cls-1,.cls-3,.cls-4{fill:none;stroke:#000;stroke-miterlimit:10}.cls-1{stroke-width:1.018px}.cls-2{fill:#fff}.cls-3,.cls-4{stroke-width:1.0888px;opacity:.25}.cls-4{stroke-width:1.0755px}</style></defs><title>Artboard 2</title><polyline points="86.222 85.408 86.222 299.332 298.957 299.332" class="cls-1"/><path d="M179.1783,108.6721h.2963a23.457,23.457,0,0,1,10.7873,12.7126l2.6671,8.688a20.0038,20.0038,0,0,1,4.1489-.5111q19.5885,0,38.7026,26.8938,22.2816,31.4054,22.2853,86.0493c0,8.269-.3547,15.6572-1.0076,22.1674H154.4622c.6529-12.14,4.9075-23.7947,12.7429-34.8784q9.06-13.1953,10.7871-16.0982a32.7141,32.7141,0,0,0,4.1489-13.9263,57.1253,57.1253,0,0,0-24.715,21.08l-3.4374,6.0689c-2.4486,4.2226-3.97,6.627-4.6232,7.1548a4.6687,4.6687,0,0,1-3.2,1.2776c-5.06,0-8.4581-1.863-10.2536-5.5578a3.2818,3.2818,0,0,1-.4741-1.2138,4.1294,4.1294,0,0,1-.0593-.5749,10.0428,10.0428,0,0,1-4.86,1.2776q-11.7527,0-18.6109-15.8427,1.9591-11.6119,20.567-53.5339c1.3061-2.6391,2.2514-4.741,2.9042-6.3244,4.8972-11.788,7.35-20.72,7.35-26.7016,0-.88-.502-5.784-1.4818-14.7569h1.9559c8.8145,0,17.2507,2.9616,25.25,8.9435q6.4046-12.016,10.7278-12.3931Z" class="cls-2"/><path d="M149.2115,120.549a23.73,23.73,0,0,1,.9483,5.0468,31.0484,31.0484,0,0,1-.7112,4.2162c2.612,0,6.2166-1.4011,10.7873-4.2162A58.4508,58.4508,0,0,0,149.2115,120.549Z" class="cls-2"/><path d="M179.0005,120.5465c-1.9587,6.3338-8.0158,11.3019-18.1363,14.8206-5.3866,1.7594-9.1391,3.479-11.2614,5.2383q-2.6933,9.2368-15.9435,37.4987-12.9772,27.9743-13.6913,33.2185a13.0823,13.0823,0,0,0,7.8236,9.2629,11.8244,11.8244,0,0,0,4.6823,1.0221h.5334a37.1462,37.1462,0,0,0,5.3345-3.13,4.6086,4.6086,0,0,1,2.43-1.086h1.0076a1.2873,1.2873,0,0,1,.652.1916,1.5983,1.5983,0,0,1,.5334,1.4054l-1.4225,5.0467c0,1.5835,1.0933,2.3636,3.3784,2.3636h.0593c.0134-.006.0423-.0519.0592-.0639.5481-.4435,2.5843-3.5222,6.0455-9.199a68.3065,68.3065,0,0,1,30.5831-27.15,54.8277,54.8277,0,0,1,9.78-25.1056c1.306-1.9354,2.606-2.8747,3.9116-2.8747a2.2455,2.2455,0,0,1,1.067.2556c.759.4624,1.1854,1.4862,1.1854,3.13,0,.0082,0,.0534,0,.0639-.0889.7829-1.5989,5.8083-4.4452,15.0122a36.9839,36.9839,0,0,0-1.7188,8.9434,28.0164,28.0164,0,0,0,.5334,3.45q0,18.7374-14.6988,39.3512-9.7941,14.2509-10.7871,22.678h80.7844c.6531-8.0932,1.0076-14.08,1.0076-17.9508q0-54.3651-31.5907-86.8154-9.5491-9.5007-15.41-9.5184H186.5872c-1.3058-.7038-2.6055-4.2067-3.9116-10.5405-.9793-5.1021-2.2054-8.2868-3.6749-9.5184Z" class="cls-2"/><path d="M157.1775,152.2344c.25-.0192.4665,0,.7112,0,3.4279,0,5.3044,1.242,5.6306,3.7052,0,4.0465-2.8954,7.9318-8.7719,11.6265-2.9382,1.76-5.4646,2.619-7.5865,2.619-2.2853,0-3.4376-1.4808-3.4376-4.4717q0-7.1256,7.8236-11.6265a14.4115,14.4115,0,0,1,5.6306-1.8526Z" class="cls-2"/><path d="M128.9177,202.3791c.201-.0192.3783,0,.5927,0,2.2853,0,3.4376,1.64,3.4376,4.9828,0,4.3986-2.0237,6.6437-6.1047,6.6437a2.1278,2.1278,0,0,1-1.5408-.6388,5.357,5.357,0,0,1-.9483-3.5774c0-2.6556.545-4.653,1.5408-5.8771a5.4589,5.4589,0,0,1,.4148-.4472,5.1347,5.1347,0,0,1,.4149-.3194A4.7478,4.7478,0,0,1,128.9177,202.3791Z" class="cls-2"/><path d="M129.4868,202.3587q3.428,0,3.4279,5.0142,0,6.5978-6.1214,6.5977-2.4484,0-2.4484-4.2226,0-7.39,5.1419-7.3894m17.6294-32.1965q-3.4279,0-3.4281-4.4864,0-7.1256,7.8356-11.612a13.5482,13.5482,0,0,1,6.3659-1.8474q5.1419,0,5.6318,3.6947,0,6.07-8.8147,11.612-4.4074,2.6393-7.59,2.6391m1.9589-49.6152a24.3008,24.3008,0,0,1,.9793,5.0142,30.4341,30.4341,0,0,1-.7346,4.2226q3.9177,0,10.7736-4.2226a57.9365,57.9365,0,0,0-11.0183-5.0142m-29.138,90.7837a13.0593,13.0593,0,0,0,7.8354,9.2368,11.76,11.76,0,0,0,4.652,1.0556h.49q.49,0,5.3868-3.1668a4.5631,4.5631,0,0,1,2.4486-1.0557h.9793q1.2246,0,1.2245,1.5834l-1.4692,5.0142q0,2.3753,3.4277,2.3753.49,0,6.1216-9.2368a68.4333,68.4333,0,0,1,30.6058-27.182,54.704,54.704,0,0,1,9.7941-25.07q1.959-2.903,3.9175-2.903,2.2039,0,2.2037,3.4308,0,.7918-4.4075,15.0428a37.1,37.1,0,0,0-1.714,8.9729,24.87,24.87,0,0,0,.49,3.4307q0,18.7376-14.6912,39.3227-9.7941,14.2509-10.7736,22.697h80.802q.98-12.14.9793-17.9458,0-54.366-31.5865-86.8261-9.5493-9.5007-15.4258-9.5007H186.5363q-1.9587-1.0557-3.9176-10.5564-1.4691-7.6531-3.6729-9.5006-2.9383,9.5007-18.1191,14.7789-8.08,2.639-11.2633,5.2781-2.6931,9.2367-15.9155,37.4747-12.9772,27.974-13.7116,33.2533m137.1184,53.3091H154.4606q.98-18.21,12.7325-34.8355,9.06-13.1953,10.7736-16.0985a32.9932,32.9932,0,0,0,4.1625-13.9871,57.2285,57.2285,0,0,0-24.73,21.1127l-3.4282,6.07q-3.6725,6.3337-4.6522,7.1255a4.6789,4.6789,0,0,1-3.1832,1.32q-7.59,0-10.2837-5.5421a3.438,3.438,0,0,1-.49-1.8474,10.2422,10.2422,0,0,1-4.8973,1.32q-11.7528,0-18.6088-15.8345,1.9587-11.6119,20.567-53.5727,1.959-3.9586,2.9384-6.3338,7.3458-17.6818,7.3458-26.6546,0-1.3194-1.4693-14.7789h1.9592q13.2217,0,25.2194,8.9729,6.6112-12.4035,11.0183-12.4036a23.3406,23.3406,0,0,1,10.7737,12.6675l2.6933,8.709a20.29,20.29,0,0,1,4.1625-.5277q19.5885,0,38.6872,26.9183,22.282,31.4054,22.2817,86.0349,0,12.4036-.9793,22.1675"/><path d="M92.7266,53.4014l-1.84.2226,3.5742,6.961,3.5743-6.961-1.8282-.2226V51.9131h5.8594v1.4883l-1.4414.2226-5.0625,9.3516v4.1953l1.91.3281v1.4766H91.3555V67.499l1.91-.3281V62.8L88.2969,53.624l-1.43-.2226V51.9131h5.8594Z"/><path d="M321.7646,297.8555l1.5352-.2578,4.8516-6.8672-4.7344-6.7149-1.5352-.2578V282.27h5.5313v1.4883l-1.3711.1524,3.41,5.1211,3.4454-5.1211-1.3711-.1524V282.27h5.5664v1.4883l-1.5352.2578-4.7344,6.7149,4.84,6.8672,1.5469.2578v1.4765h-5.52v-1.4765l1.3477-.1524-3.5391-5.25-3.5508,5.25,1.3711.1524v1.4765h-5.5547Z"/><line x1="75.657" x2="96.788" y1="289.022" y2="289.022" class="cls-3"/><line x1="75.913" x2="96.532" y1="278.848" y2="278.848" class="cls-4"/><line x1="75.913" x2="96.532" y1="268.674" y2="268.674" class="cls-4"/><line x1="75.913" x2="96.532" y1="258.5" y2="258.5" class="cls-4"/><line x1="75.913" x2="96.532" y1="248.326" y2="248.326" class="cls-4"/><line x1="75.913" x2="96.532" y1="238.153" y2="238.153" class="cls-4"/><line x1="75.913" x2="96.532" y1="227.979" y2="227.979" class="cls-4"/><line x1="75.913" x2="96.532" y1="217.805" y2="217.805" class="cls-4"/><line x1="75.913" x2="96.532" y1="207.631" y2="207.631" class="cls-4"/><line x1="75.913" x2="96.532" y1="197.457" y2="197.457" class="cls-4"/><line x1="75.913" x2="96.532" y1="187.283" y2="187.283" class="cls-4"/><line x1="75.913" x2="96.532" y1="177.109" y2="177.109" class="cls-4"/><line x1="75.913" x2="96.532" y1="166.935" y2="166.935" class="cls-4"/><line x1="75.913" x2="96.532" y1="156.761" y2="156.761" class="cls-4"/><line x1="75.913" x2="96.532" y1="146.587" y2="146.587" class="cls-4"/><line x1="75.913" x2="96.532" y1="136.413" y2="136.413" class="cls-4"/><line x1="75.913" x2="96.532" y1="126.24" y2="126.24" class="cls-4"/><line x1="75.913" x2="96.532" y1="116.066" y2="116.066" class="cls-4"/><line x1="75.913" x2="96.532" y1="105.892" y2="105.892" class="cls-4"/><line x1="75.913" x2="96.532" y1="95.718" y2="95.718" class="cls-4"/><line x1="289.242" x2="289.242" y1="309.897" y2="288.767" class="cls-3"/><line x1="279.068" x2="279.068" y1="309.641" y2="289.023" class="cls-4"/><line x1="268.894" x2="268.894" y1="309.641" y2="289.023" class="cls-4"/><line x1="258.72" x2="258.72" y1="309.641" y2="289.023" class="cls-4"/><line x1="248.546" x2="248.546" y1="309.641" y2="289.023" class="cls-4"/><line x1="238.372" x2="238.372" y1="309.641" y2="289.023" class="cls-4"/><line x1="228.198" x2="228.198" y1="309.641" y2="289.023" class="cls-4"/><line x1="218.024" x2="218.024" y1="309.641" y2="289.023" class="cls-4"/><line x1="207.85" x2="207.85" y1="309.641" y2="289.023" class="cls-4"/><line x1="197.676" x2="197.676" y1="309.641" y2="289.023" class="cls-4"/><line x1="187.502" x2="187.502" y1="309.641" y2="289.023" class="cls-4"/><line x1="177.329" x2="177.329" y1="309.641" y2="289.023" class="cls-4"/><line x1="167.155" x2="167.155" y1="309.641" y2="289.023" class="cls-4"/><line x1="156.981" x2="156.981" y1="309.641" y2="289.023" class="cls-4"/><line x1="146.807" x2="146.807" y1="309.641" y2="289.023" class="cls-4"/><line x1="136.633" x2="136.633" y1="309.641" y2="289.023" class="cls-4"/><line x1="126.459" x2="126.459" y1="309.641" y2="289.023" class="cls-4"/><line x1="116.285" x2="116.285" y1="309.641" y2="289.023" class="cls-4"/><line x1="106.111" x2="106.111" y1="309.641" y2="289.023" class="cls-4"/><line x1="95.937" x2="95.937" y1="309.641" y2="289.023" class="cls-4"/></svg>