<svg id="Layer_1" data-name="Layer 1" xmlns="http://www.w3.org/2000/svg" width="550.1507" height="555.5989" viewBox="0 0 550.1507 555.5989"><defs><style>.cls-1,.cls-2,.cls-5,.cls-6,.cls-7{fill:none;}.cls-1{stroke:#00a6ac;stroke-width:6.5574px;}.cls-2{stroke:#fff;stroke-width:4.918px;}.cls-3{fill:#fff;}.cls-4{fill:#00a6ac;}.cls-5,.cls-6,.cls-7{stroke:#000;stroke-miterlimit:10;}.cls-5{stroke-width:2.21px;}.cls-6{stroke-width:2.3637px;}.cls-6,.cls-7{opacity:0.25;}.cls-7{stroke-width:2.3349px;}</style></defs><title>Artboard 1</title><path class="cls-1" d="M83.8207,76.8574h393.44v393.44H83.8207Z"/><path class="cls-2" d="M83.8207,76.8574h393.44v393.44H83.8207Z"/><path class="cls-3" d="M83.8207,76.8574h49.18v49.18h-49.18Z"/><path class="cls-3" d="M83.8207,175.2174h49.18v49.18h-49.18Z"/><path class="cls-3" d="M83.8207,273.5774h49.18v49.18h-49.18Z"/><path class="cls-3" d="M83.8207,371.9374h49.18v49.18h-49.18Z"/><path class="cls-3" d="M133.001,126.0374h49.18v49.18h-49.18Z"/><path class="cls-3" d="M133.001,224.3974h49.18v49.18h-49.18Z"/><path class="cls-3" d="M133.001,322.7574h49.18v49.18h-49.18Z"/><path class="cls-3" d="M133.001,421.1174h49.18v49.18h-49.18Z"/><path class="cls-3" d="M182.182,76.8574h49.18v49.18h-49.18Z"/><path class="cls-3" d="M182.182,175.2174h49.18v49.18h-49.18Z"/><path class="cls-3" d="M182.182,273.5774h49.18v49.18h-49.18Z"/><path class="cls-3" d="M182.182,371.9374h49.18v49.18h-49.18Z"/><path class="cls-3" d="M231.3621,126.0374h49.18v49.18h-49.18Z"/><path class="cls-3" d="M231.3621,224.3974h49.18v49.18h-49.18Z"/><path class="cls-3" d="M231.3621,322.7574h49.18v49.18h-49.18Z"/><path class="cls-3" d="M231.3621,421.1174h49.18v49.18h-49.18Z"/><path class="cls-3" d="M280.542,76.8574h49.18v49.18h-49.18Z"/><path class="cls-3" d="M280.542,175.2174h49.18v49.18h-49.18Z"/><path class="cls-3" d="M280.542,273.5774h49.18v49.18h-49.18Z"/><path class="cls-3" d="M280.542,371.9374h49.18v49.18h-49.18Z"/><path class="cls-3" d="M329.722,126.0374h49.18v49.18h-49.18Z"/><path class="cls-3" d="M329.722,224.3974h49.18v49.18h-49.18Z"/><path class="cls-3" d="M329.722,322.7574h49.18v49.18h-49.18Z"/><path class="cls-3" d="M329.722,421.1174h49.18v49.18h-49.18Z"/><path class="cls-3" d="M378.902,76.8574h49.18v49.18h-49.18Z"/><path class="cls-3" d="M378.902,175.2174h49.18v49.18h-49.18Z"/><path class="cls-3" d="M378.902,273.5774h49.18v49.18h-49.18Z"/><path class="cls-3" d="M378.902,371.9374h49.18v49.18h-49.18Z"/><path class="cls-3" d="M428.0821,126.0374h49.18v49.18h-49.18Z"/><path class="cls-3" d="M428.0821,224.3974h49.18v49.18h-49.18Z"/><path class="cls-3" d="M428.0821,322.7574h49.18v49.18h-49.18Z"/><path class="cls-4" d="M83.8216,126.04h49.1808v49.1808H83.8216Z"/><path class="cls-4" d="M83.8216,224.4021h49.1808v49.1808H83.8216Z"/><path class="cls-4" d="M83.8216,322.7607h49.1808v49.1809H83.8216Z"/><path class="cls-4" d="M83.8216,421.1211h49.1808V470.302H83.8216Z"/><path class="cls-4" d="M133.0024,76.86h49.1809V126.04H133.0024Z"/><path class="cls-4" d="M133.0024,175.2212h49.1809v49.1809H133.0024Z"/><path class="cls-4" d="M133.0024,273.5807h49.1809v49.1809H133.0024Z"/><path class="cls-4" d="M133.0024,371.94h49.1809v49.1808H133.0024Z"/><path class="cls-4" d="M182.1833,126.04h49.1808v49.1808H182.1833Z"/><path class="cls-4" d="M182.1833,224.4021h49.1808v49.1808H182.1833Z"/><path class="cls-4" d="M182.1833,322.7607h49.1808v49.1809H182.1833Z"/><path class="cls-4" d="M182.1833,421.1211h49.1808V470.302H182.1833Z"/><path class="cls-4" d="M231.3641,76.86H280.545V126.04H231.3641Z"/><path class="cls-4" d="M231.3641,175.2212H280.545v49.1809H231.3641Z"/><path class="cls-4" d="M231.3641,273.5807H280.545v49.1809H231.3641Z"/><path class="cls-4" d="M231.3641,371.94H280.545v49.1808H231.3641Z"/><path class="cls-4" d="M280.5493,126.04H329.73v49.1808H280.5493Z"/><path class="cls-4" d="M280.5493,224.4021H329.73v49.1808H280.5493Z"/><path class="cls-4" d="M280.5493,322.7607H329.73v49.1809H280.5493Z"/><path class="cls-4" d="M280.5493,421.1211H329.73V470.302H280.5493Z"/><path class="cls-4" d="M329.73,76.86H378.911V126.04H329.73Z"/><path class="cls-4" d="M329.73,175.2212H378.911v49.1809H329.73Z"/><path class="cls-4" d="M329.73,273.5807H378.911v49.1809H329.73Z"/><path class="cls-4" d="M329.73,371.94H378.911v49.1808H329.73Z"/><path class="cls-4" d="M378.911,126.04h49.1808v49.1808H378.911Z"/><path class="cls-4" d="M378.911,224.4021h49.1808v49.1808H378.911Z"/><path class="cls-4" d="M378.911,322.7607h49.1808v49.1809H378.911Z"/><path class="cls-4" d="M378.911,421.1211h49.1808V470.302H378.911Z"/><path class="cls-4" d="M428.0918,76.86h49.1809V126.04H428.0918Z"/><path class="cls-4" d="M428.0918,175.2212h49.1809v49.1809H428.0918Z"/><path class="cls-4" d="M428.0918,273.5807h49.1809v49.1809H428.0918Z"/><path class="cls-4" d="M428.0918,371.94h49.1809v49.1808H428.0918Z"/><path class="cls-3" d="M428.0821,421.1174h49.18v49.18h-49.18Z"/><path d="M440.7421,167.0574q-.0559-.6706-.0559-2.6269,0-7.0423,4.36-10.452a15.5535,15.5535,0,0,1,3.13-1.9562,4.4672,4.4672,0,0,1-2.9623-3.2976,6.6974,6.6974,0,0,1-.2235-1.7326q0-3.7448,3.8565-5.31a6.2246,6.2246,0,0,1-1.006-3.1858,3.9766,3.9766,0,0,1,2.4592-3.7447,5.3,5.3,0,0,1,2.4034-.5589,4.5168,4.5168,0,0,1,4.136,2.18,3.8275,3.8275,0,0,1,.6148,2.1239,6.0735,6.0735,0,0,1-.95,3.1858,6.0793,6.0793,0,0,1,2.9623,2.2356,5.9654,5.9654,0,0,1,.8943,3.0739,5.1765,5.1765,0,0,1-2.0121,4.4155,2.7616,2.7616,0,0,1-1.1178.6148q5.142,2.6268,6.6511,6.8747a17.5464,17.5464,0,0,1,.7825,5.5333q0,1.9562-.0559,2.6269h-23.866"/><path class="cls-3" d="M305.0184,427.6455h.1353a2.8211,2.8211,0,0,1,2.8,1.8535l.2706,1.1094v.1759a4.8567,4.8567,0,0,1-.4464,1.3935,12.5647,12.5647,0,0,0-.7848,3.964,39.84,39.84,0,0,0,1.2312,8.1039q3.0181-6.3716,3.017-9.6056l-.3247-2.4082a2.8869,2.8869,0,0,1,1.7317-2.8,2.739,2.739,0,0,1,1.3394-.3247,2.9179,2.9179,0,0,1,2.8546,1.7858,2.9536,2.9536,0,0,1,.3247,1.3394,2.81,2.81,0,0,1-1.0011,2.2864c-1.0061,1.006-1.5322,2.6517-1.5694,4.9246,0,.9688.0977,2.5334.2841,4.6946q3.6329-3.7447,3.6258-6.0881l-.2706-2.1917a2.91,2.91,0,0,1,1.6776-2.7329,2.7232,2.7232,0,0,1,1.3935-.3923,3.07,3.07,0,0,1,2.8546,1.7317l.3383,1.0688v.3247c0,1.5277-.87,2.6945-2.5841,3.477a61.6711,61.6711,0,0,1-1.84,9.4432,4.9963,4.9963,0,0,0-.1623.6088c0,.5217-.5935,1.4255-1.7858,2.6923-1.6023,1.6022-2.4083,2.84-2.4082,3.7341a12.1262,12.1262,0,0,0,1.3393,3.301,3.91,3.91,0,0,1,.23,1.5153v.3923a1.1427,1.1427,0,0,0-.0677.3789v.0676l.0677.0541q0,2.0121-10.7962,2.2323H305.1l-2.354-.0541h-.0541a37.85,37.85,0,0,1-7.9822-.8929q-1.7325-.5031-1.7317-1.2853v-.0135c.0019-.0045.012-.0211.0136-.0271a2.8182,2.8182,0,0,0-.0136-.6358.2946.2946,0,0,1-.0406-.1083v-.0135l.0136-.0135a.249.249,0,0,1,.027-.0812,6.7585,6.7585,0,0,1,.8253-2.9629,5.3532,5.3532,0,0,0,.6765-1.8534,3.7111,3.7111,0,0,0-.9471-2.1241l-2.7463-3.1252a2.0262,2.0262,0,0,1-.4465-1.1771,91.675,91.675,0,0,1-1.9482-9.2132,6.7806,6.7806,0,0,1-.0541-.8388,3.7488,3.7488,0,0,1-2.5706-3.477,2.91,2.91,0,0,1,1.6776-2.7329,3.0233,3.0233,0,0,1,1.4477-.3923,2.8792,2.8792,0,0,1,2.8,1.7858,2.7407,2.7407,0,0,1,.3247,1.3394l-.2706,2.1917q0,2.4592,3.5717,6.0881a41.6743,41.6743,0,0,0,.2841-4.6946c0-2.0493-.2462-3.4151-.7306-4.0858a5.8445,5.8445,0,0,0-.8388-.8929,2.4776,2.4776,0,0,1-1.0012-2.2323,2.9783,2.9783,0,0,1,1.84-2.8546,3.1878,3.1878,0,0,1,1.3394-.2706,2.8791,2.8791,0,0,1,2.8,1.7858,2.7418,2.7418,0,0,1,.3247,1.3394l-.3247,2.3405v.0677q0,3.1857,3.017,9.6056a38.2006,38.2006,0,0,0,1.177-8.1039,10.94,10.94,0,0,0-.8388-4.2481,3.3769,3.3769,0,0,1-.3382-1.1094,2.8788,2.8788,0,0,1,1.7858-2.8A2.7332,2.7332,0,0,1,305.0184,427.6455Z"/><path class="cls-3" d="M304.9913,429.269a1.185,1.185,0,0,0-1.2311,1.3394c0,.9688.4619,1.4611,1.3935,1.4611a1.3824,1.3824,0,0,0,.9471-.3111,1.5073,1.5073,0,0,0,.3923-1.15,1.2454,1.2454,0,0,0-.5006-1.1364,1.588,1.588,0,0,0-.8388-.203C305.0955,429.269,305.0459,429.2655,304.9913,429.269Z"/><path class="cls-3" d="M296.0487,430.9466a1.2135,1.2135,0,0,0-1.2312,1.3935,1.4426,1.4426,0,0,0,.3518,1.0553c.0258.0251.066.0589.0947.0812a1.8554,1.8554,0,0,0,1.7858.0541,1.2112,1.2112,0,0,0,.1082-.0812l.0542-.0541a1.4806,1.4806,0,0,0,.3382-1.0553c0-.9315-.4451-1.3935-1.3394-1.3935C296.1528,430.9466,296.1033,430.943,296.0487,430.9466Z"/><path class="cls-3" d="M313.8394,430.9466a1.264,1.264,0,0,0-1.1365.9471l-.0541.4464a1.302,1.302,0,0,0,.947,1.3394,1.2469,1.2469,0,0,0,.3924.0541,1.54,1.54,0,0,0,1.0823-.3382,1.4087,1.4087,0,0,0,.3653-1.0553c0-.9315-.4789-1.3935-1.4476-1.3935C313.9387,430.9466,313.8863,430.9428,313.8394,430.9466Z"/><path class="cls-3" d="M288.8106,434.5183a1.1945,1.1945,0,0,0-1.3123,1.3394c0,.9688.462,1.4611,1.3935,1.4611a1.2932,1.2932,0,0,0,1.0417-.4058,1.6531,1.6531,0,0,0,.2977-1.0553,1.2691,1.2691,0,0,0-.9471-1.2853,1.25,1.25,0,0,0-.3923-.0541Z"/><path class="cls-3" d="M321.2262,434.5183a1.3288,1.3288,0,0,0-1.204.8929,1.8237,1.8237,0,0,0-.0542.4465,1.3043,1.3043,0,0,0,1.0012,1.407,1.0679,1.0679,0,0,0,.3382.0541c.9315,0,1.3935-.4923,1.3935-1.4611,0-.8943-.4621-1.3394-1.3935-1.3394Z"/><path class="cls-3" d="M312.8667,437.7115a35.61,35.61,0,0,1-2.5706,5.98,19.8911,19.8911,0,0,1-1.7317,2.2322,3.3634,3.3634,0,0,0-.5546.6629l-1.2312-2.1646a2.2693,2.2693,0,0,0-.1624-.46,59.2487,59.2487,0,0,1-1.4611-5.858,22.5233,22.5233,0,0,1-2.0158,7.0893l-.8388,1.3529v.0405c-.1309-.1353-.6175-.6894-1.4476-1.6641q-1.6146-1.8929-3.3958-7.17a11.6566,11.6566,0,0,1,.0947,1.5828,52.6229,52.6229,0,0,1-.9471,8.104,20.5165,20.5165,0,0,1-5.8714-5.7094,63.9927,63.9927,0,0,0,1.4612,6.3181q.3353,1.1178.8387,1.2853,4.5831-2.6268,12.1221-2.6246,7.6011,0,12.1354,2.6246,1.0061-.3353,2.2323-7.6031a19.84,19.84,0,0,1-5.8177,5.7095,42.4312,42.4312,0,0,1-.947-7.6577c0-.4844.0337-1.1757.1083-2.07Z"/><path class="cls-3" d="M304.3149,448.7779a23.4134,23.4134,0,0,0-7.6034,1.1094c-.8942.3354-1.3393.73-1.3393,1.1771v.23c0,.0058-.001.0216,0,.0271s.0127.0108.0135.0135a.2249.2249,0,0,0,.0135.0406l.0135.0135.0136.0136.0136.0135a.5121.5121,0,0,0,.0946.0541,2.594,2.594,0,0,0,.8523.0947l7.4816-.3923h2.4623c.5588,0,1.2334.03,2.0158.0676l5.5334.3247h.0542a2.3323,2.3323,0,0,0,.8658-.1082c.0151-.0075.0417-.0189.0541-.0271l.0136-.0135.027-.0271.0135-.0135.0136-.0135a.2275.2275,0,0,0,.0135-.0406c.001-.0055,0-.0213,0-.0271v-.23a.76.76,0,0,0-.0541-.2842q-.608-1.43-7.3733-1.894c-.8944-.0746-1.6835-.1083-2.3541-.1083C304.8684,448.7779,304.59,448.7734,304.3149,448.7779Z"/><path class="cls-3" d="M304.2471,453.1325a67.2491,67.2491,0,0,0-8.1443.5547,2.7639,2.7639,0,0,1,.6629,2.1781,1.8582,1.8582,0,0,1-.2841,1.2582l-.0406.0271a62.6493,62.6493,0,0,1,17.4254,0c-.2166-.1554-.3247-.5884-.3247-1.2853a2.7637,2.7637,0,0,1,.663-2.1782,72.002,72.002,0,0,0-9.0509-.5547c-.3038,0-.6064-.0032-.9064,0Z"/><path class="cls-3" d="M304.0579,458.5053q-2.4183.0426-5.2764.2706c-1.8257.149-2.7328.5773-2.7328,1.2853,0,.0109-.0009.03,0,.0406a.5033.5033,0,0,0,.0406.1488.6709.6709,0,0,0,.0405.0676l.0271.0406.027.0271c.6643.7132,3.6555,1.0823,8.97,1.0823,5.3855,0,8.3867-.377,8.9968-1.1094.0156-.0194.0419-.0477.0542-.0676a.5854.5854,0,0,0,.0405-.0812c.0049-.0138.01-.04.0136-.0541s-.0015-.04,0-.0541c.0008-.0108.0135-.03.0135-.0406,0-.2981-.2462-.578-.7306-.8388-1.4159-.4844-4.2149-.7171-8.388-.7171C304.7974,458.5053,304.43,458.4988,304.0579,458.5053Z"/><path d="M303.87,451.18H306.33q.8382,0,2.012.0559l5.5333.3353h.0559q1.0059,0,1.006-.2794v-.2236q0-1.6767-7.4334-2.18-1.3413-.1117-2.3474-.1118a24.9022,24.9022,0,0,0-8.4395,1.1178q-1.3415.5031-1.3414,1.1738v.2235q0,.2794,1.006.2795l7.4893-.3912m10.34,2.5151a72.0506,72.0506,0,0,0-9.0543-.559,68.6629,68.6629,0,0,0-9.0543.559,2.767,2.767,0,0,1,.6707,2.18q0,1.062-.3354,1.2855a62.1367,62.1367,0,0,1,17.4385,0q-.3354-.2235-.3354-1.2855a2.7666,2.7666,0,0,1,.6707-2.18m-9.0543,4.8068q-2.85,0-6.3714.28-2.7387.2235-2.7387,1.2855,0,1.3973,9.11,1.3972t9.11-1.3972q0-.4471-.7266-.8384-2.124-.7266-8.3837-.7266m0-29.231q-1.3973,0-1.3972,1.3414,0,1.4531,1.3972,1.4532,1.3413,0,1.3414-1.4532a1.1857,1.1857,0,0,0-1.3414-1.3414m0-1.6208a2.806,2.806,0,0,1,2.7946,1.8444l.2795,1.1178v.1677a4.8826,4.8826,0,0,1-.4472,1.3973,12.5786,12.5786,0,0,0-.7824,3.9682,39.8122,39.8122,0,0,0,1.23,8.1045q3.018-6.3717,3.0181-9.6133l-.3353-2.4033a2.88,2.88,0,0,1,1.7326-2.7946,2.7562,2.7562,0,0,1,1.3414-.3353,2.9144,2.9144,0,0,1,2.85,1.7885,2.9786,2.9786,0,0,1,.3354,1.3414,2.8243,2.8243,0,0,1-1.0061,2.2915q-1.5092,1.5091-1.5649,4.9186,0,1.4532.2794,4.6947,3.6328-3.7447,3.6329-6.0922l-.2794-2.18a2.9173,2.9173,0,0,1,1.6767-2.7387,2.7351,2.7351,0,0,1,1.3973-.3912,3.0649,3.0649,0,0,1,2.8505,1.7326l.3353,1.0619v.3353q0,2.2917-2.571,3.4653a61.9057,61.9057,0,0,1-1.8444,9.4457,5.1386,5.1386,0,0,0-.1677.6148q0,.7824-1.7885,2.6827-2.4034,2.4035-2.4033,3.7448a12.1623,12.1623,0,0,0,1.3413,3.2975,3.8943,3.8943,0,0,1,.2236,1.5091v.3912a1.2381,1.2381,0,0,0-.0559.3913v.0559l.0559.0559q0,2.0119-10.7869,2.2356h-1.3973l-2.3474-.0559h-.0559a37.9439,37.9439,0,0,1-7.9923-.8942q-1.7326-.5031-1.7326-1.2855a1.6811,1.6811,0,0,0,0-.6707.238.238,0,0,1,0-.2236,6.7924,6.7924,0,0,1,.8384-2.9622,5.2754,5.2754,0,0,0,.6707-1.8445,3.7186,3.7186,0,0,0-.95-2.1238l-2.7387-3.13a2.0186,2.0186,0,0,1-.4471-1.1737A92.6034,92.6034,0,0,1,288.39,440.17a6.7928,6.7928,0,0,1-.0559-.8384q-2.5709-1.1737-2.5709-3.4653a2.9174,2.9174,0,0,1,1.6767-2.7387,3.0417,3.0417,0,0,1,1.4532-.3912,2.8737,2.8737,0,0,1,2.7946,1.7885,2.7567,2.7567,0,0,1,.3353,1.3414l-.2795,2.18q0,2.4591,3.5771,6.0922a41.6349,41.6349,0,0,0,.2794-4.6947q0-3.074-.7266-4.08a5.8423,5.8423,0,0,0-.8383-.8943,2.4864,2.4864,0,0,1-1.0061-2.2356,2.9769,2.9769,0,0,1,1.8444-2.8505,3.2036,3.2036,0,0,1,1.3414-.2794,2.8734,2.8734,0,0,1,2.7946,1.7885,2.7567,2.7567,0,0,1,.3353,1.3414l-.3353,2.3474v.0559q0,3.1859,3.0181,9.6132a38.1606,38.1606,0,0,0,1.1737-8.1044,10.9336,10.9336,0,0,0-.8384-4.2477,3.3832,3.3832,0,0,1-.3353-1.1179,2.8735,2.8735,0,0,1,1.7885-2.7945,2.7554,2.7554,0,0,1,1.3414-.3354m16.1526,6.8745a1.3271,1.3271,0,0,0-1.2855.8943,1.8309,1.8309,0,0,0-.0558.4471,1.2972,1.2972,0,0,0,1.006,1.3973,1.0559,1.0559,0,0,0,.3353.0559q1.3973,0,1.3973-1.4532,0-1.3415-1.3973-1.3414m-7.3217-3.577a1.2719,1.2719,0,0,0-1.2855.95l-.0559.4471a1.307,1.307,0,0,0,.95,1.3414,1.2366,1.2366,0,0,0,.3912.0559q1.4532,0,1.4532-1.3973t-1.4532-1.3972m-17.7735,0a1.3973,1.3973,0,1,0,0,2.7945q1.3414,0,1.3414-1.3973t-1.3414-1.3972m-7.3217,3.577q-1.3972,0-1.3973,1.3414,0,1.4532,1.3973,1.4532,1.3415,0,1.3414-1.4532a1.2719,1.2719,0,0,0-.95-1.2855,1.2376,1.2376,0,0,0-.3913-.0559m16.2643,3.577a22.6129,22.6129,0,0,1-2.0121,7.0984l-.8383,1.3413v.0559q-.1678-.1677-1.4532-1.6767-1.6209-1.9-3.4094-7.21a11.4546,11.4546,0,0,1,.1118,1.6208,52.7288,52.7288,0,0,1-.95,8.1045,20.4782,20.4782,0,0,1-5.8688-5.7009,64.71,64.71,0,0,0,1.4532,6.3156q.3354,1.1178.8384,1.2855,4.5831-2.6268,12.1285-2.6269,7.6012,0,12.1286,2.6269,1.0059-.3354,2.2356-7.6014a19.7926,19.7926,0,0,1-5.8125,5.7009,42.4664,42.4664,0,0,1-.95-7.6573q0-.7266.1117-2.0679a35.6377,35.6377,0,0,1-2.571,5.9805,19.936,19.936,0,0,1-1.7326,2.2356,3.1814,3.1814,0,0,0-.5589.6707l-1.23-2.18a2.1886,2.1886,0,0,0-.1677-.4472q-.4472-1.23-1.4532-5.8683"/><path class="cls-3" d="M255.1058,427.3618h1.6776l.7306,2.1241h2.07v2.0023l-2.3,1.3394v1.3529c1.9375,1.23,2.9255,2.45,2.9629,3.68.0745.7452.1217,1.568.1217,2.4623l.0541-.0541a7.7718,7.7718,0,0,1,7.3733-1.9076,7.2539,7.2539,0,0,1,1.9075.8388,6.32,6.32,0,0,1,3.1794,5.6549c0,1.49-.7419,3.2541-2.2323,5.3034a20.0735,20.0735,0,0,0-2.3,3.7476,21.1827,21.1827,0,0,0-1.1094,6.48q-.1118,3.7448-11.2969,3.7475-11.1222,0-11.283-3.7475A18.5609,18.5609,0,0,0,242.93,452.62a28.4009,28.4009,0,0,0-1.7317-2.57,9.7315,9.7315,0,0,1-2.1241-4.2482,7.6381,7.6381,0,0,1-.0541-.947,6.3415,6.3415,0,0,1,2.9629-5.5333,7.9735,7.9735,0,0,1,1.5017-.7305,7.3415,7.3415,0,0,1,5.8714.3382,11.1316,11.1316,0,0,1,2.1241,1.3394l.0541.0541c0-.7825.0337-1.6221.1082-2.5164a2.3148,2.3148,0,0,1,.3924-1.0553,7.4589,7.4589,0,0,1,2.124-2.3,2.8645,2.8645,0,0,0,.4465-.2706v-1.3529l-2.2864-1.3394v-2.0023h2.07l.717-2.124Z"/><path class="cls-3" d="M255.9738,436.2364q-2.3658.0255-2.3675,3.3011a7.4187,7.4187,0,0,0,.1082,1.6235,13.0281,13.0281,0,0,0,1.9076,3.5716,1.2509,1.2509,0,0,1,.3247.5412L257.57,442.73a12.4083,12.4083,0,0,0,.6223-1.5693,7.4253,7.4253,0,0,0,.1082-1.6235c0-2.1984-.7722-3.3011-2.3-3.3011Z"/><path class="cls-3" d="M245.7589,440.1593a5.0337,5.0337,0,0,0-1.4341.3247,4.1189,4.1189,0,0,0-3.017,2.9629l-.2841,1.5152v.2165c0,1.1551.9206,2.9154,2.7464,5.2627.4471.5589.7607.97.947,1.2312h1.0012a32.21,32.21,0,0,0,8.388-.7847,1.5767,1.5767,0,0,0,.7576-.3653.4368.4368,0,0,0,.0677-.1082c.0032-.01.0114-.03.0135-.0406a.3437.3437,0,0,0,0-.0406,11.1273,11.1273,0,0,0-3.7475-7.7252,8.0032,8.0032,0,0,0-5.1952-2.4488c-.0815,0-.16-.0054-.2435,0Z"/><path class="cls-3" d="M265.5914,440.1593a8.5378,8.5378,0,0,0-4.8973,2.4487,11.1133,11.1133,0,0,0-3.734,7.7252v.0406l.0135.0271c.1258.2411.8177.5239,2.0564.8252a50.8958,50.8958,0,0,0,8.1581.4464l2.5164-3.3552a5.9587,5.9587,0,0,0,1.1635-3.1387,4.649,4.649,0,0,0-1.6776-3.8558,4.9309,4.9309,0,0,0-3.2876-1.1635c-.1,0-.21-.0064-.3111,0Z"/><path class="cls-3" d="M255.9457,452.7272q-1.3972.6148-8.4962,1.0688c-.708.0373-1.2846.071-1.7318.1083a24.7977,24.7977,0,0,1,.7306,4.6947,31.5987,31.5987,0,0,1,9.4976-1.2312,31.0222,31.0222,0,0,1,9.5111,1.2312,21.5129,21.5129,0,0,1,.717-4.6947l-8.2664-.6765a10.0649,10.0649,0,0,1-1.9617-.5Z"/><path class="cls-3" d="M255.6356,459.6011a41.2541,41.2541,0,0,0-5.3846.3923,3.1777,3.1777,0,0,0-1.9752.7712l-.0271.0406a.6674.6674,0,0,0-.0405.0947c-.0047.0142-.01.04-.0136.0541s-.0118.0393-.0135.0541,0,.039,0,.0541a.2388.2388,0,0,0,.0135.0677c.1965.5144,2.398.8455,6.5887.9876h1.1635a26.4784,26.4784,0,0,0,7.2651-.6629.9081.9081,0,0,0,.4735-.2842l.0135-.0135v-.0135c.003-.0067.0114-.02.0136-.0271v-.027c.0009-.0069.0132-.02.0135-.0271,0-.0151-.0123-.0392-.0135-.0541s.0028-.04,0-.0541-.0092-.04-.0136-.0541-.0211-.04-.027-.0542c-.0047-.01-.0081-.03-.0135-.0405l-.0271-.0406c-.5009-.7685-3.0508-1.1635-7.63-1.1635Z"/><path d="M255.95,464.1306q-11.1222,0-11.29-3.7447a18.5749,18.5749,0,0,0-1.7326-7.7689,28.4385,28.4385,0,0,0-1.7327-2.571,9.7292,9.7292,0,0,1-2.1238-4.2478,7.661,7.661,0,0,1-.0559-.95,6.3412,6.3412,0,0,1,2.9622-5.5333,8.02,8.02,0,0,1,1.5091-.7266,7.3345,7.3345,0,0,1,5.8688.3354,11.1463,11.1463,0,0,1,2.1238,1.3413l.0559.0559q0-1.1736.1118-2.5151a2.33,2.33,0,0,1,.3912-1.0619,7.4264,7.4264,0,0,1,2.1239-2.2915,2.9472,2.9472,0,0,0,.4472-.2795v-1.3414l-2.2916-1.3414v-2.012h2.068l.7266-2.1239h1.6767l.7266,2.1239h2.068v2.012l-2.2916,1.3414v1.3414q2.9064,1.8444,2.9623,3.6888.1118,1.1178.1118,2.4593l.0558-.0559a7.7755,7.7755,0,0,1,7.3776-1.9,7.2057,7.2057,0,0,1,1.9.8384,6.31,6.31,0,0,1,3.1858,5.6449q0,2.2357-2.2356,5.31a19.8989,19.8989,0,0,0-2.2916,3.7447,21.183,21.183,0,0,0-1.1178,6.4836q-.1117,3.7446-11.29,3.7447m0-18.8355,1.6208-2.571a12.2528,12.2528,0,0,0,.6148-1.565,7.3177,7.3177,0,0,0,.1118-1.6208q0-3.2976-2.2915-3.2976-2.4035,0-2.4034,3.2976a7.3177,7.3177,0,0,0,.1118,1.6208,12.9936,12.9936,0,0,0,1.9,3.5771,1.16,1.16,0,0,1,.3354.5589m14.9231-.1118a4.65,4.65,0,0,0-1.6768-3.8565,4.9657,4.9657,0,0,0-3.2976-1.1737q-2.4033,0-5.1977,2.4592a11.0951,11.0951,0,0,0-3.7448,7.7131q0,.3912,2.068.8943a50.9146,50.9146,0,0,0,8.16.4471l2.5151-3.3535a5.9606,5.9606,0,0,0,1.1738-3.13M255.95,452.7284q-1.3974.6148-8.4954,1.0619-1.062.056-1.7327.1118a24.811,24.811,0,0,1,.7266,4.6947,31.63,31.63,0,0,1,9.5015-1.23,30.9612,30.9612,0,0,1,9.5016,1.23,21.4512,21.4512,0,0,1,.7266-4.6947l-8.272-.6707a10.0125,10.0125,0,0,1-1.9562-.503m-14.9231-7.5451q0,1.7326,2.7386,5.2536.6708.8383.95,1.23h1.006a32.1893,32.1893,0,0,0,8.3837-.7825q.8383-.2235.8384-.5589a11.0962,11.0962,0,0,0-3.7447-7.7131q-2.7387-2.4591-5.1978-2.4592a4.7889,4.7889,0,0,0-1.6767.3354,4.1193,4.1193,0,0,0-3.0181,2.9622l-.28,1.5091v.2235M255.95,462.118a26.399,26.399,0,0,0,7.2659-.6707q.5029-.1677.503-.3913,0-1.4532-7.7131-1.4532a41.4858,41.4858,0,0,0-5.7567.3912q-2.0679.3354-2.0679,1.062,0,.8383,6.5952,1.0619h1.1737"/><path class="cls-3" d="M96.7766,429.3111h5.0328l.9606.9471v1.4476h1.61v-1.4476l.9606-.9471h6.1424l.9471.9471v1.4476h1.5694v-1.4476l1.0011-.9471h5.0328l1.6235,1.5559v5.0869l-4.9246,4.3023V451.431l5.7095,5.7631V461.05l-1.0688,1.0688H95.4378L94.3825,461.05v-3.8558l5.6956-5.7631V440.2562l-4.9111-4.3023V430.867l1.61-1.5559Z"/><path class="cls-3" d="M97.8455,431.545l-.7306.7847v3.1253l3.8017,3.0711h14.9767l3.8017-3.0711V432.33l-.717-.7847h-3.1388v1.5559l-.8388.7847h-3.6258l-.8388-.7847v-1.4476h-4.2481v1.4476l-.8388.7847H101.81l-.8388-.7847V431.545H97.8455Z"/><path class="cls-3" d="M102.04,440.4331v9.89h12.7446v-9.89Z"/><path class="cls-3" d="M101.81,452.1612l-3.68,3.5852h20.5642l-3.6934-3.5852H101.81Z"/><path class="cls-3" d="M96.33,457.694v2.1782H120.48V457.694Z"/><path d="M102.0371,440.4288v9.8928H114.78v-9.8928H102.0371m-6.5952,21.6859-1.062-1.062v-3.8565l5.7008-5.7566V440.2613l-4.9185-4.3036v-5.0861l1.6209-1.5649h5.03l.95.95V431.71h1.6209v-1.4532l.95-.95h6.1481l.95.95V431.71h1.565v-1.4532l1.006-.95h5.03l1.6209,1.5649v5.0861l-4.9185,4.3036V451.44l5.7008,5.7566v3.8565l-1.062,1.062H95.4417m.8942-4.4155v2.18h24.145v-2.18H96.3359m5.4775-5.5333-3.6889,3.5771h20.5681l-3.6888-3.5771h-13.19m4.4713-20.5122v1.4532l-.8384.7825h-3.6329l-.8384-.7825v-1.565h-3.13l-.7266.7825v3.13l3.8006,3.074h14.979l3.8006-3.074v-3.13l-.7266-.7825h-3.13v1.565l-.8384.7825h-3.6329l-.8384-.7825v-1.4532h-4.2477"/><path class="cls-3" d="M354.0441,426.3359c.0882-.004.18,0,.2706,0,1.8257,0,3.0127.6913,3.5717,2.07l.2841,1.177v.1624a4.7348,4.7348,0,0,1-1.177,3.1252q1.5088.1677,4.7488,2.9088,3.5769,2.9622,3.5716,6.6563c0,2.0866-1.106,4.3929-3.3417,6.9269a6.7971,6.7971,0,0,0,.5547,2.2323,12.6889,12.6889,0,0,1,.5547,2.124q0,1.9-3.964,2.4082a16.4274,16.4274,0,0,0,5.3709,1.0552l3.2876-.1623q2.7386,0,4.5864,3.5175l-1.894,2.9088a4.8007,4.8007,0,0,1-1.9617,1.6235c-.1474-.7369-1.21-1.2031-3.1794-1.3935v-.0135c-.0575-.0181-.6466-.0733-1.7452-.1624q-6.9863-.6707-9.2673-2.9629c-1.4532,1.4532-3.6586,2.3569-6.6022,2.6923-1.1923.1118-3.2831.3613-6.264.7712-.7825.149-1.2277.51-1.3394,1.0688q-1.062-.2794-3.1253-3.4635c-.3353-.5216-.5815-.8824-.7305-1.0688q1.8444-3.5211,4.5864-3.5175l3.3011.1623a16.7166,16.7166,0,0,0,5.3575-1.0553q-3.9682-.503-3.964-2.4081l1.123-4.2482v-.1082q-3.3536-3.6888-3.3552-6.9269,0-3.6888,3.6257-6.71,3.1858-2.6827,4.6947-2.8546a4.8967,4.8967,0,0,1-1.2311-3.1253,3.0827,3.0827,0,0,1,2.5705-3.247,4.9848,4.9848,0,0,1,1.0823-.1623Z"/><path class="cls-3" d="M354.1252,428.4042a1.5868,1.5868,0,0,0-1.4341,1.0553,1.533,1.533,0,0,0-.1082.5682,1.5705,1.5705,0,0,0,1.2176,1.6235,2.18,2.18,0,0,0,.5141.0541,1.6084,1.6084,0,0,0,1.6776-1.177,2.07,2.07,0,0,0,.0541-.5006,1.5026,1.5026,0,0,0-1.1229-1.5153,1.9129,1.9129,0,0,0-.6088-.1082C354.2535,428.4042,354.1834,428.4,354.1252,428.4042Z"/><path class="cls-3" d="M354.1251,433.8819a11.9694,11.9694,0,0,0-5.2359,2.7328q-3.2976,2.571-3.5716,5.371c.2608,1.9375.6587,3.1582,1.2176,3.68a2.68,2.68,0,0,0,.5141.3923c.9315.6335,3.3358.9606,7.2109.9606,4.1731,0,6.7121-.3945,7.6438-1.1771.6334-.4843,1.1089-1.7691,1.407-3.8557q-.2794-2.7947-3.6393-5.3709a11.6955,11.6955,0,0,0-5.4792-2.7329c-.0227.0029-.0447-.0033-.0676,0Z"/><path class="cls-3" d="M353.3,437.2371h2.0158v2.3946H357.21V441.81h-1.8941v2.4623H353.3V441.81h-1.894v-2.1781H353.3Z"/><path class="cls-3" d="M348.213,448.3071a3.1132,3.1132,0,0,1,.3923,1.3394,2.6623,2.6623,0,0,1-.3382,1.3935,36.699,36.699,0,0,1,12.0818,0,2.66,2.66,0,0,1-.3382-1.3935,2.971,2.971,0,0,1,.3382-1.3394,48.308,48.308,0,0,1-6.0342.3247A42.9324,42.9324,0,0,1,348.213,448.3071Z"/><path class="cls-3" d="M353.6111,452.1612c-1.3028.0344-2.8895.1723-4.7758.3924a1.1786,1.1786,0,0,0-1.1229,1.0552c0,.007,0,.02,0,.0271s.0113.0305.0136.0406l.0135.0406.0135.027a.4871.4871,0,0,0,.0406.0677.5636.5636,0,0,0,.0541.0541,6.0241,6.0241,0,0,0,2.9088.5817l-.0406-.0135-.0135-.0135h-.0136v-.0135h.0271a2.363,2.363,0,0,1,.2976-.0136h3.3011c3.9507,0,6.11-.221,6.48-.6494a.3376.3376,0,0,0,.0406-.0676.2374.2374,0,0,0,.0135-.0677c0-.8569-1.0859-1.3189-3.2469-1.3934h-1.61a11.4664,11.4664,0,0,1-1.2311-.0542h-.4465C354.0934,452.1612,353.8524,452.1549,353.6111,452.1612Z"/><path class="cls-3" d="M354.1251,455.68a11.8425,11.8425,0,0,0-2.8952,1.9617,11.4464,11.4464,0,0,1-5.5874,1.3935,28.4669,28.4669,0,0,0-4.4644.2706c-1.1923.2608-1.7858.77-1.7858,1.5152.1118.7452.4928,1.123,1.1635,1.123l2.9629-.4465a25.6243,25.6243,0,0,0,6.1017-.7847q3.6328-.95,4.6947-3.017,1.5089,2.9624,7.82,3.5717s.4789.081,1.4477.23h1.4611l3.017.4464c.6707,0,1.0652-.3777,1.1771-1.1229,0-.7452-.6071-1.2544-1.7994-1.5153l-5.98-.4464a10.2171,10.2171,0,0,1-5.4657-2.2323,3.4535,3.4535,0,0,0-1.7994-.947H354.18a.4878.4878,0,0,0-.0541,0Z"/><path d="M354.31,448.6361a42.4977,42.4977,0,0,1-6.0922-.3353,3.1186,3.1186,0,0,1,.3913,1.3413,2.6772,2.6772,0,0,1-.3354,1.3973,36.4717,36.4717,0,0,1,12.0727,0,2.6746,2.6746,0,0,1-.3353-1.3973,2.9742,2.9742,0,0,1,.3353-1.3413,48.1848,48.1848,0,0,1-6.0363.3353m0-20.2326a1.62,1.62,0,0,0-1.6209,1.062,1.4935,1.4935,0,0,0-.1118.5589,1.5778,1.5778,0,0,0,1.23,1.6208,2.0744,2.0744,0,0,0,.503.0559,1.6047,1.6047,0,0,0,1.6767-1.1737,2.0861,2.0861,0,0,0,.0559-.503,1.4912,1.4912,0,0,0-1.1178-1.5091,1.96,1.96,0,0,0-.6148-.1118m0,23.7536a49.2147,49.2147,0,0,0-5.4775.3912,1.18,1.18,0,0,0-1.1178,1.0619q0,.6708,3.074.8384-.2795-.0558.2236-.0559H354.31q6.5394,0,6.5394-.7824,0-1.2855-3.2417-1.3973h-1.6208a11.3871,11.3871,0,0,1-1.23-.0559H354.31m-.0559-5.1419q6.26,0,7.6573-1.1737.95-.7266,1.3972-3.8565-.2795-2.7945-3.6329-5.3657a11.71,11.71,0,0,0-5.4775-2.7387,11.7955,11.7955,0,0,0-5.3094,2.7387q-3.2976,2.571-3.5771,5.3657.3912,2.9064,1.23,3.6888a2.5886,2.5886,0,0,0,.503.3912q1.3973.95,7.21.95m-.95-2.7387v-2.4592h-1.9v-2.18h1.9v-2.4033h2.0121v2.4033h1.9v2.18h-1.9v2.4592h-2.0121m.8943,11.4016q-.5031,0-2.9622,1.9562a11.4479,11.4479,0,0,1-5.5892,1.3973,28.3852,28.3852,0,0,0-4.4713.2795q-1.7885.3912-1.7885,1.509.1677,1.1178,1.1737,1.1178l2.9623-.4471a25.5465,25.5465,0,0,0,6.0922-.7824q3.6328-.95,4.6947-3.0182,1.5088,2.9624,7.8247,3.5771l1.4532.2235h1.4532l3.0181.4472q1.006,0,1.1737-1.1178,0-1.1179-1.7885-1.5091l-5.9805-.4471a10.258,10.258,0,0,1-5.4774-2.2357,3.4445,3.4445,0,0,0-1.7886-.95m.1118,4.8626q-2.18,2.18-6.5952,2.6828-1.7886.1677-6.26.7825-1.1736.2235-1.3413,1.0619-1.062-.2794-3.13-3.4653-.503-.7824-.7265-1.0619,1.8444-3.5211,4.583-3.5211l3.2975.1676a16.7919,16.7919,0,0,0,5.3658-1.0619q-3.9684-.503-3.9683-2.4033l1.1178-4.2477v-.1118q-3.3534-3.6889-3.3535-6.93,0-3.6888,3.633-6.7069,3.1857-2.6829,4.6947-2.8505a4.9053,4.9053,0,0,1-1.23-3.13,3.0777,3.0777,0,0,1,2.571-3.2417,5.0928,5.0928,0,0,1,1.3413-.1677q2.7387,0,3.5771,2.068l.2794,1.1737v.1677a4.7434,4.7434,0,0,1-1.1737,3.13q1.509.1677,4.751,2.9063,3.5769,2.9623,3.577,6.6511,0,3.13-3.3535,6.93a6.8421,6.8421,0,0,0,.5589,2.2356,12.4029,12.4029,0,0,1,.5589,2.1239q0,1.9-3.9682,2.4033a16.4215,16.4215,0,0,0,5.3657,1.0619l3.2976-.1676q2.7385,0,4.583,3.5211l-1.9,2.9063a4.78,4.78,0,0,1-1.9562,1.6209q-.2236-1.1178-3.2417-1.3973a8.5219,8.5219,0,0,0-1.6767-.1677q-6.9862-.6706-9.2777-2.9622"/><path class="cls-3" d="M156.2648,429.2472h.0677a5.0857,5.0857,0,0,1,2.4623,2.6923l.6088,1.84a4.9078,4.9078,0,0,1,.9471-.1082q4.4712,0,8.8343,5.6956,5.0862,6.6512,5.087,18.2237a43.9659,43.9659,0,0,1-.23,4.6947H150.623a13.3539,13.3539,0,0,1,2.9088-7.3866q2.0679-2.7945,2.4623-3.4093a6.5706,6.5706,0,0,0,.947-2.9494,12.8229,12.8229,0,0,0-5.6415,4.4644l-.7846,1.2853a8.975,8.975,0,0,1-1.0553,1.5152,1.112,1.112,0,0,1-.7306.2706,2.3915,2.3915,0,0,1-2.34-1.177.6662.6662,0,0,1-.1082-.2571.8092.8092,0,0,1-.0135-.1217,2.4337,2.4337,0,0,1-1.1094.2705q-2.6827,0-4.2482-3.3552.4473-2.4591,4.6947-11.3375c.2981-.559.5139-1.0041.663-1.3394a15.6291,15.6291,0,0,0,1.6776-5.655c0-.1863-.1146-1.2249-.3383-3.1252h.4465a9.9541,9.9541,0,0,1,5.7636,1.8941q1.4619-2.5449,2.4487-2.6247Z"/><path class="cls-3" d="M149.4245,431.7626a4.7014,4.7014,0,0,1,.2165,1.0688,6.1463,6.1463,0,0,1-.1624.8929,5.5069,5.5069,0,0,0,2.4624-.8929A13.86,13.86,0,0,0,149.4245,431.7626Z"/><path class="cls-3" d="M156.2242,431.762c-.4471,1.3414-1.83,2.3936-4.14,3.1388a8.612,8.612,0,0,0-2.5706,1.1094,69.7779,69.7779,0,0,1-3.6393,7.9415q-2.9622,5.9246-3.1252,7.0351a2.8347,2.8347,0,0,0,1.7858,1.9617,2.878,2.878,0,0,0,1.0688.2165h.1218a8.6618,8.6618,0,0,0,1.2177-.6629,1.0948,1.0948,0,0,1,.5546-.23h.23a.31.31,0,0,1,.1489.0406.327.327,0,0,1,.1217.2976l-.3247,1.0688c0,.3354.25.5006.7712.5006h.0135l.0135-.0135a16.25,16.25,0,0,0,1.38-1.9482,15.269,15.269,0,0,1,6.981-5.75,11.1407,11.1407,0,0,1,2.2323-5.3169,1.1868,1.1868,0,0,1,.8929-.6088.5444.5444,0,0,1,.2435.0541c.1733.0979.2706.3148.2706.6629v.0136c-.02.1658-.3649,1.23-1.0147,3.1793a7.3313,7.3313,0,0,0-.3923,1.8941,5.5222,5.5222,0,0,0,.1218.7305q0,3.9682-3.3552,8.3339a11.598,11.598,0,0,0-2.4623,4.8028h18.44c.1491-1.7139.23-2.9819.23-3.8016q0-11.5137-7.211-18.386-2.18-2.0121-3.5176-2.0158H157.956c-.298-.1491-.5947-.891-.8929-2.2323a3.66,3.66,0,0,0-.8388-2.0159Z"/><path class="cls-3" d="M151.2429,438.473c.057-.0041.1064,0,.1623,0,.7825,0,1.2108.263,1.2853.7847,0,.8569-.661,1.68-2.0023,2.4622a3.7018,3.7018,0,0,1-1.7318.5547c-.5216,0-.7846-.3136-.7846-.947a2.8054,2.8054,0,0,1,1.7858-2.4623,3.4733,3.4733,0,0,1,1.2853-.3924Z"/><path class="cls-3" d="M144.7922,449.0928c.0459-.0041.0863,0,.1353,0,.5216,0,.7847.3473.7847,1.0552a1.2392,1.2392,0,0,1-1.3935,1.407.5051.5051,0,0,1-.3517-.1352,1.0765,1.0765,0,0,1-.2165-.7577,1.8768,1.8768,0,0,1,.3517-1.2446,1.1753,1.1753,0,0,1,.0947-.0947,1.0555,1.0555,0,0,1,.5953-.23Z"/><path d="M144.9221,449.0884q.7824,0,.7824,1.0619a1.235,1.235,0,0,1-1.3972,1.3973q-.5589,0-.5589-.8942,0-1.5651,1.1737-1.565m4.0241-6.8186q-.7824,0-.7825-.95a2.805,2.805,0,0,1,1.7886-2.4592,3.2746,3.2746,0,0,1,1.4531-.3913q1.1738,0,1.2855.7825,0,1.2855-2.012,2.4592a3.7178,3.7178,0,0,1-1.7326.559m.4471-10.5077a4.8124,4.8124,0,0,1,.2236,1.0619,6.025,6.025,0,0,1-.1677.8943,5.503,5.503,0,0,0,2.4592-.8943,13.752,13.752,0,0,0-2.5151-1.0619m-6.6511,19.2264a2.8312,2.8312,0,0,0,1.7885,1.9562,2.86,2.86,0,0,0,1.0619.2236h.1118a7.49,7.49,0,0,0,1.23-.6707,1.0857,1.0857,0,0,1,.5589-.2236h.2235q.28,0,.28.3354l-.3353,1.0619q0,.503.7824.503a12.3691,12.3691,0,0,0,1.3973-1.9562,15.297,15.297,0,0,1,6.9862-5.7566,11.1178,11.1178,0,0,1,2.2356-5.31,1.1991,1.1991,0,0,1,.8943-.6148q.5029,0,.503.7266,0,.1677-1.0061,3.1858a7.3513,7.3513,0,0,0-.3912,1.9,4.8964,4.8964,0,0,0,.1118.7266q0,3.9682-3.3535,8.3278a11.5919,11.5919,0,0,0-2.4592,4.8069h18.4441q.2237-2.5712.2235-3.8006,0-11.5138-7.21-18.3883-2.18-2.0121-3.5211-2.0121h-3.3535q-.4471-.2236-.8943-2.2356a3.6446,3.6446,0,0,0-.8383-2.0121q-.6708,2.0121-4.136,3.13a8.5833,8.5833,0,0,0-2.571,1.1178,69.3749,69.3749,0,0,1-3.6329,7.9365q-2.9622,5.9244-3.13,7.0425m31.2991,11.29H150.6227a13.3229,13.3229,0,0,1,2.9064-7.3775q2.0679-2.7946,2.4592-3.4094a6.6253,6.6253,0,0,0,.95-2.9622,12.8445,12.8445,0,0,0-5.6449,4.4713l-.7825,1.2855a8.6341,8.6341,0,0,1-1.062,1.509,1.1127,1.1127,0,0,1-.7266.28,2.4008,2.4008,0,0,1-2.3474-1.1737.689.689,0,0,1-.1117-.3913,2.481,2.481,0,0,1-1.1179.28q-2.6827,0-4.2477-3.3535.447-2.4591,4.6947-11.3458.4472-.8383.6707-1.3413a15.5872,15.5872,0,0,0,1.6768-5.645q0-.2794-.3354-3.13h.4472a9.9409,9.9409,0,0,1,5.7567,1.9q1.509-2.627,2.515-2.6269a5.062,5.062,0,0,1,2.4593,2.6828l.6147,1.8444a4.9766,4.9766,0,0,1,.95-.1118q4.4713,0,8.8309,5.7008,5.0862,6.6511,5.0861,18.2207a44.0868,44.0868,0,0,1-.2236,4.6947"/><path class="cls-3" d="M403.1954,380.15c.1131-.0066.223,0,.3382,0a4.57,4.57,0,0,1,4.194,2.1782,3.8225,3.8225,0,0,1,.6088,2.124,6.1965,6.1965,0,0,1-1.0012,3.1794q3.8565,1.5649,3.8558,5.3709a5.0711,5.0711,0,0,1-2.1782,4.4644,3.2584,3.2584,0,0,1-1.0146.5141q5.03,2.571,6.548,6.5346a16.4721,16.4721,0,0,1,.9471,5.926q0,1.8444-.0541,2.57H391.5739q-.0558-.6706-.0541-2.57,0-6.8745,4.0182-10.2821a18.6306,18.6306,0,0,1,3.4093-2.1782,4.317,4.317,0,0,1-2.8411-3.2469,5.442,5.442,0,0,1-.2841-1.7317q0-3.7448,3.8016-5.371a6.5405,6.5405,0,0,1-.8929-3.1793,4.0144,4.0144,0,0,1,2.5164-3.8017,5.2265,5.2265,0,0,1,1.9482-.5Z"/><path class="cls-3" d="M403.2387,382.046a2.2917,2.2917,0,0,0-2.097,1.3935,1.9691,1.9691,0,0,0-.2165.8929,5.45,5.45,0,0,0,.7306,1.9076,2.5083,2.5083,0,0,1,.3924,1.4476c0,.4471-.4283.9058-1.2853,1.3529a4.5282,4.5282,0,0,0-2.57,4.0181,3.8882,3.8882,0,0,0,2.1781,3.4635c.708.4844,1.0552.8958,1.0553,1.2311,0,.708-.7251,1.4836-2.1782,2.3405a11.0736,11.0736,0,0,0-5.141,5.9935,15.7781,15.7781,0,0,0-.6088,4.6947H413.44q0-5.8686-3.1793-8.78a13.6439,13.6439,0,0,0-2.6247-1.9076c-1.4532-.857-2.1782-1.6326-2.1782-2.3405,0-.3726.3641-.784,1.1094-1.2312a3.81,3.81,0,0,0,2.07-2.2323,5.813,5.813,0,0,0,.1083-1.2311,4.44,4.44,0,0,0-2.6247-4.0181l-1.0011-.7306a.8756.8756,0,0,1-.2841-.6223,3.27,3.27,0,0,1,.6764-1.8941,2.4282,2.4282,0,0,0,.4465-1.4611,2.2177,2.2177,0,0,0-1.5694-2.1106,3.148,3.148,0,0,0-1.0011-.1759h-.1488Z"/><path d="M413.4559,410.7752q0-5.8686-3.1858-8.775a13.6461,13.6461,0,0,0-2.6269-1.9q-2.18-1.2855-2.18-2.3475,0-.5589,1.1179-1.23a3.8117,3.8117,0,0,0,2.068-2.2356,5.7759,5.7759,0,0,0,.1117-1.23,4.45,4.45,0,0,0-2.6269-4.0242l-1.006-.7266a.8538.8538,0,0,1-.28-.6148,3.279,3.279,0,0,1,.6707-1.9,2.4047,2.4047,0,0,0,.4471-1.4532,2.2288,2.2288,0,0,0-1.5649-2.1239,3.1648,3.1648,0,0,0-1.0061-.1677,2.3022,2.3022,0,0,0-2.2356,1.3973,1.9823,1.9823,0,0,0-.2235.8943,5.3936,5.3936,0,0,0,.7266,1.9,2.522,2.522,0,0,1,.3912,1.4532q0,.6706-1.2855,1.3413a4.5372,4.5372,0,0,0-2.571,4.0242,3.8924,3.8924,0,0,0,2.18,3.4653q1.062.7264,1.062,1.23,0,1.062-2.18,2.3474a11.0526,11.0526,0,0,0-5.1419,5.9805,15.7689,15.7689,0,0,0-.6148,4.6947h19.9533m-21.9093,2.2357q-.0558-.6706-.0559-2.571,0-6.8745,4.0242-10.2839a18.6339,18.6339,0,0,1,3.4093-2.18,4.32,4.32,0,0,1-2.85-3.2417,5.4435,5.4435,0,0,1-.2795-1.7326q0-3.7448,3.8006-5.3658a6.5644,6.5644,0,0,1-.8942-3.1858,4.0116,4.0116,0,0,1,2.5151-3.8006,5.2848,5.2848,0,0,1,2.2915-.503,4.5681,4.5681,0,0,1,4.1919,2.18,3.8263,3.8263,0,0,1,.6147,2.1238,6.2253,6.2253,0,0,1-1.006,3.1858q3.8563,1.5651,3.8565,5.3658a5.085,5.085,0,0,1-2.18,4.4713,3.19,3.19,0,0,1-1.006.503q5.03,2.571,6.5394,6.5394a16.461,16.461,0,0,1,.95,5.9246q0,1.8446-.0559,2.571H391.5467"/><path class="cls-3" d="M304.158,83.1594h1.8941l.7305,2.07h2.0023v2.0023l-2.2322,1.407v1.2853a8.1247,8.1247,0,0,1,2.6246,2.6788l.3923,1.6234c.0373.4472.0845,1.0407.1218,1.7859a8.5232,8.5232,0,0,1,5.4116-2.1241,6.7778,6.7778,0,0,1,5.8177,2.8547,6.4735,6.4735,0,0,1,1.1771,3.8016,9.5069,9.5069,0,0,1-2.1782,5.3034l-1.2853,1.7859a15.3347,15.3347,0,0,0-2.124,8.388q-.1117,3.8007-11.4051,3.8016-11.178,0-11.351-3.8016a19.6712,19.6712,0,0,0-1.0553-6.3723,19.3876,19.3876,0,0,0-2.354-3.8558,9.2714,9.2714,0,0,1-2.1782-5.2492,6.1975,6.1975,0,0,1,3.0712-5.5333,6.9653,6.9653,0,0,1,3.8557-1.123,8.6787,8.6787,0,0,1,5.5333,2.1241,8.3857,8.3857,0,0,1,.5005-3.5176,6.8323,6.8323,0,0,1,2.5841-2.57V88.6386l-2.3-1.407V85.2293h2.07l.6765-2.07Z"/><path class="cls-3" d="M294.7937,95.8485c-2.2969.1041-3.744,1.115-4.3427,3.0171l-.2165,1.5017v.1218q0,2.2356,3.3011,6.1961a21.6963,21.6963,0,0,0,1.5018,1.5693,4.7314,4.7314,0,0,0,2.9629.7306,47.0924,47.0924,0,0,0,7.0485-.8388,48.0122,48.0122,0,0,0,7.0892.8388,4.5876,4.5876,0,0,0,2.9629-.7306,17.548,17.548,0,0,0,3.91-5.0328,6.2687,6.2687,0,0,0,.9065-2.7328,4.1256,4.1256,0,0,0-3.1929-4.4242,6.9012,6.9012,0,0,0-1.7858-.2164,7.8372,7.8372,0,0,0-5.2493,2.5164,9.5322,9.5322,0,0,0-3.1388,7.4815c0,.6706-.4619,1.0147-1.3935,1.0147a1.9107,1.9107,0,0,1-1.3123-.3653.8928.8928,0,0,1-.1488-.1894.95.95,0,0,1-.0541-.1353,1.079,1.079,0,0,1-.0541-.3247,9.92,9.92,0,0,0-3.0711-7.5494,8.0847,8.0847,0,0,0-5.3034-2.4488c-.1386,0-.2866-.006-.4194,0Z"/><path class="cls-3" d="M295.0405,97.2426c.0748-.0037.1543,0,.23,0a6.291,6.291,0,0,1,4.4644,2.124,9.5741,9.5741,0,0,1,2.5164,6.71c.0372.82-.8193,1.2818-2.5706,1.3936h-.8388a16.1,16.1,0,0,1-2.2863-.1624,10.4417,10.4417,0,0,1-3.6935-3.531,6.2269,6.2269,0,0,1-1.3394-3.2876,2.903,2.903,0,0,1,2.3405-3.03,4.3952,4.3952,0,0,1,1.1771-.2165Z"/><path class="cls-3" d="M314.5873,97.2426c.0813-.0042.162,0,.2435,0,1.9,0,3.1041.6913,3.6258,2.07l.23,1.1771c0,1.49-1.0353,3.2372-3.0847,5.2492l-1.4476,1.2312-.5547.3382a14.473,14.473,0,0,1-2.2458.1624q-3.4651,0-3.4634-1.3935a9.3138,9.3138,0,0,1,2.57-6.71,6.3893,6.3893,0,0,1,4.1263-2.1241Z"/><path class="cls-3" d="M305.0233,113.2193c-1.4337.0034-2.71.0676-3.8287.1759l-1.3529.1082c-1.7763.23-2.7683.5561-2.9764.9606a.4189.4189,0,0,0-.0271.1082.55.55,0,0,0-.0135.0542c0,.5589.5092.8388,1.5152.8388l6.7646-.5683,6.71.5683c1.0433,0,1.5558-.2631,1.5558-.7847,0-.0114.0008-.0294,0-.0406-.0016-.0186-.01-.0494-.0135-.0677-.0033-.0145-.0088-.04-.0135-.0541-.0038-.0107-.009-.03-.0136-.0406l-.027-.0541-.0271-.0406-.027-.0406c-.5991-.7417-3.2977-1.1229-8.09-1.1229Z"/><path d="M306.5564,105.8492q0,1.0061-1.3973,1.0061-1.565,0-1.5649-1.0061a9.9118,9.9118,0,0,0-3.074-7.545,8.1166,8.1166,0,0,0-5.31-2.4593q-3.8005,0-4.75,3.0181l-.2236,1.5091v.1118q0,2.2356,3.2976,6.2039a21.3427,21.3427,0,0,0,1.5091,1.5649,4.7312,4.7312,0,0,0,2.9622.7266,47.01,47.01,0,0,0,7.0425-.8384,48.067,48.067,0,0,0,7.0983.8384,4.588,4.588,0,0,0,2.9622-.7266,17.5434,17.5434,0,0,0,3.9124-5.03,6.24,6.24,0,0,0,.8943-2.7387,4.1108,4.1108,0,0,0-3.1858-4.4154,6.9158,6.9158,0,0,0-1.7886-.2236,7.844,7.844,0,0,0-5.2536,2.5151,9.5424,9.5424,0,0,0-3.13,7.4893m12.1285-5.3657q0,2.2356-3.074,5.2536l-1.4532,1.23-.5589.3353a14.326,14.326,0,0,1-2.2356.1677q-3.4653,0-3.4653-1.3973a9.3062,9.3062,0,0,1,2.571-6.7069,6.2083,6.2083,0,0,1,4.36-2.1239q2.85,0,3.633,2.068l.2235,1.1737M313.3765,114.68q0-1.4531-8.2162-1.4532-2.2356,0-3.9682.1677l-1.3414.1118q-3.0182.3912-3.0182,1.1178,0,.8384,1.5091.8384l6.7628-.5589,6.707.5589q1.5648,0,1.5649-.7825m3.13,1.3414q-.1117,3.8006-11.4016,3.8006-11.178,0-11.3458-3.8006a19.659,19.659,0,0,0-1.062-6.3714,19.2938,19.2938,0,0,0-2.3474-3.8565,9.2865,9.2865,0,0,1-2.18-5.2536,6.2,6.2,0,0,1,3.0741-5.5333A6.9642,6.9642,0,0,1,295.1,93.8883a8.6784,8.6784,0,0,1,5.5332,2.1239,8.3934,8.3934,0,0,1,.5031-3.5212,6.7693,6.7693,0,0,1,2.571-2.571V88.6345l-2.2916-1.3973v-2.012h2.068l.6707-2.068h1.9l.7266,2.068h2.0121v2.012l-2.2357,1.3973V89.92a8.14,8.14,0,0,1,2.6269,2.6828l.3912,1.6208q.0559.6708.1118,1.7886a8.5481,8.5481,0,0,1,5.4216-2.1239,6.7645,6.7645,0,0,1,5.8125,2.85,6.4681,6.4681,0,0,1,1.1737,3.8007,9.5259,9.5259,0,0,1-2.18,5.3094l-1.2855,1.7885a15.32,15.32,0,0,0-2.1239,8.3837M291.523,100.4831A2.896,2.896,0,0,1,293.87,97.465a4.3909,4.3909,0,0,1,1.3973-.2235,6.3051,6.3051,0,0,1,4.4713,2.1238,9.5647,9.5647,0,0,1,2.5151,6.707q.056,1.23-2.571,1.3973h-.8383a16.195,16.195,0,0,1-2.2916-.1677,10.3932,10.3932,0,0,1-3.6888-3.5212,6.2574,6.2574,0,0,1-1.3414-3.2976"/><path class="cls-3" d="M255.88,83.4371h.1218a2.7848,2.7848,0,0,1,2.7464,1.8534,3.0656,3.0656,0,0,1,.2706,1.2853c-.0192.1275-.3335,1.1219-.9471,2.9629a9.3548,9.3548,0,0,0-.2164,2.4487,39.891,39.891,0,0,0,1.1635,8.05c2.012-4.2477,3.03-7.4278,3.03-9.5513l-.3383-2.354v-.0542a2.8447,2.8447,0,0,1,1.8941-2.8546,3.0622,3.0622,0,0,1,1.2853-.2706,2.8792,2.8792,0,0,1,2.8,1.7858,2.7515,2.7515,0,0,1,.3383,1.3394,2.4856,2.4856,0,0,1-1.0147,2.2323c-1.0434.6707-1.5559,2.3164-1.5559,4.9246a39.2121,39.2121,0,0,0,.2706,4.7488c2.3846-2.4219,3.5851-4.4657,3.5852-6.1424l-.2842-2.124a2.8791,2.8791,0,0,1,1.7859-2.8006,2.75,2.75,0,0,1,1.3394-.3382,2.918,2.918,0,0,1,2.8546,1.7858l.3383,1.0688v.2842q0,2.2356-2.5706,3.4093a53.3919,53.3919,0,0,1-1.9075,9.443,2.9471,2.9471,0,0,0-.1083.6629q0,.3914-.8388,1.2853l-.6764.8388q-2.6829,3.0741-2.6788,4.2482a23.4907,23.4907,0,0,0,1.3394,3.4634,10.26,10.26,0,0,1,.23,1.9617c0,1.0433-1.9256,1.7683-5.7631,2.1781l-5.4117.3383h-1.0147a35.1263,35.1263,0,0,1-10.39-1.1771q-1.7327-.5031-1.7317-1.3394a9.4755,9.4755,0,0,1,.8929-3.6934,4.7247,4.7247,0,0,0,.6088-1.7317c0-.708-.8565-2.077-2.57-4.1264a9.8783,9.8783,0,0,1-1.6235-2.2458,7.1991,7.1991,0,0,0-.3247-1.5017l-.7306-2.8006a31.4719,31.4719,0,0,1-.947-5.8038,3.5685,3.5685,0,0,1-2.5705-3.4094,2.9113,2.9113,0,0,1,1.84-2.8546,3.1968,3.1968,0,0,1,1.3394-.2841,2.9291,2.9291,0,0,1,2.7464,1.6776,3.0715,3.0715,0,0,1,.3924,1.4611l-.2841,2.124q0,2.5152,3.5716,6.1425a39.6338,39.6338,0,0,0,.2841-4.803q0-3.7447-1.3394-4.7488a.9462.9462,0,0,0-.23-.1759,2.34,2.34,0,0,1-1.0011-2.1781,2.8448,2.8448,0,0,1,1.8941-2.8547,3.0621,3.0621,0,0,1,1.2853-.2705,2.8791,2.8791,0,0,1,2.8,1.7858,2.75,2.75,0,0,1,.3382,1.3394l-.3923,2.4082q0,3.13,3.0711,9.5513a40.1464,40.1464,0,0,0,1.1771-8.05,10.81,10.81,0,0,0-.8388-4.3023,2.9456,2.9456,0,0,1-.3383-1.1093,2.8475,2.8475,0,0,1,1.84-2.8547,3.0959,3.0959,0,0,1,1.1635-.2841Z"/><path class="cls-3" d="M255.8783,85.0605a1.28,1.28,0,0,0-1.2176,1.0688.9864.9864,0,0,0-.0542.3247,1.2784,1.2784,0,0,0,1.0688,1.3394,1.0108,1.0108,0,0,0,.3247.0677,1.3213,1.3213,0,0,0,1.0553-.4059,1.5558,1.5558,0,0,0,.2976-1.0012,1.3132,1.3132,0,0,0-.96-1.3393A1.2476,1.2476,0,0,0,256,85.0605C255.9558,85.0605,255.9205,85.0578,255.8783,85.0605Z"/><path class="cls-3" d="M246.8814,86.7923a1.4427,1.4427,0,0,0-.8793.3247,1.3711,1.3711,0,0,0-.3924,1.0688,1.4657,1.4657,0,0,0,.3247,1.0146,1.4826,1.4826,0,0,0,1.1229.3924,1.4011,1.4011,0,0,0,0-2.8C246.9968,86.7923,246.9382,86.7886,246.8814,86.7923Z"/><path class="cls-3" d="M264.78,86.7923a1.2758,1.2758,0,0,0-1.177.947l-.0541.4465a1.4749,1.4749,0,0,0,.3517,1.0687,1.3632,1.3632,0,0,0,.9876.3383,1.52,1.52,0,0,0,.9876-.2977,1.3969,1.3969,0,0,0,.4194-1.1093,1.2393,1.2393,0,0,0-1.407-1.3935C264.849,86.7923,264.8184,86.79,264.78,86.7923Z"/><path class="cls-3" d="M239.6705,90.31a1.2709,1.2709,0,0,0-1.2718,1.0688,1.0712,1.0712,0,0,0-.0541.3382A1.2673,1.2673,0,0,0,239.4,93.0562a1.0684,1.0684,0,0,0,.3382.0541,1.5267,1.5267,0,0,0,.8523-.2164,1.3308,1.3308,0,0,0,.4871-1.1771,1.5542,1.5542,0,0,0-.2841-1.0011,1.3213,1.3213,0,0,0-1.0553-.4059Z"/><path class="cls-3" d="M272.0726,90.31a1.32,1.32,0,0,0-.9065.3382,1.4753,1.4753,0,0,0-.3517,1.0688,1.4991,1.4991,0,0,0,.3111,1.0147,1.3209,1.3209,0,0,0,1.0282.3788,1.2394,1.2394,0,0,0,1.4071-1.3935,1.2923,1.2923,0,0,0-1.0688-1.3529,1.0723,1.0723,0,0,0-.3383-.0541Z"/><path class="cls-3" d="M254.9318,105.0706q-9.04.0953-9.0374,1.84c0,.5216.4788.7847,1.4476.7847a38.8925,38.8925,0,0,0,4.194-.2706l3.6258-.1218h.9065c1.0432,0,3.0058.0978,5.9121.2842l2.7464.1082c.8942,0,1.3393-.28,1.3394-.8388a.642.642,0,0,0-.0812-.2977q-.8227-1.4816-9.9842-1.4881c-.3688,0-.72-.0037-1.0688,0Z"/><path class="cls-3" d="M255.04,111.8887c-3.68.0456-6.1628.3631-7.4681.947q-.8384.3354-.8388.8388,0,.8943,1.2853.8929l3.8558-.2706s1.1195-.0641,3.3552-.1758h.8388l6.5345.3382,1.3394.1082q1.2853,0,1.2853-.8929c0-.0169.0012-.0375,0-.0541a1.8675,1.8675,0,0,0-.0542-.2165c-.4083-.9042-2.8966-1.4135-7.4409-1.5152H256C255.6711,111.8887,255.3514,111.8848,255.04,111.8887Z"/><path d="M246.7278,113.6772q0,.8943,1.2854.8943l3.8565-.2795,3.3535-.1677h.8384l6.5394.3354,1.3414.1117q1.2853,0,1.2855-.8942,0-1.6209-7.4893-1.7886H256.006q-6.3157,0-8.4395.95-.8383.3354-.8384.8384m-6.9862-23.3627a1.2748,1.2748,0,0,0-1.3414,1.062,1.0531,1.0531,0,0,0-.0559.3353,1.2748,1.2748,0,0,0,1.062,1.3414,1.0531,1.0531,0,0,0,.3353.0559q1.3415,0,1.3414-1.3973t-1.3414-1.3973m7.3217-3.5211q-1.4532,0-1.4532,1.3973t1.4532,1.3972q1.3414,0,1.3414-1.3972t-1.3414-1.3973m17.8294,0a1.2718,1.2718,0,0,0-1.2855.95l-.0559.4472q0,1.3972,1.3413,1.3972a1.3973,1.3973,0,1,0,0-2.7945m7.2659,3.5211q-1.3414,0-1.3414,1.3973t1.3414,1.3973a1.2351,1.2351,0,0,0,1.3973-1.3973,1.2749,1.2749,0,0,0-1.0619-1.3414,1.0579,1.0579,0,0,0-.3354-.0559m-4.0242,26.7162q0,1.565-5.7566,2.18l-5.4216.3354H255.95a35.1935,35.1935,0,0,1-10.3959-1.1737q-1.7326-.5031-1.7326-1.3414a9.4621,9.4621,0,0,1,.8942-3.6889,4.7747,4.7747,0,0,0,.6148-1.7326q0-1.062-2.571-4.1359a9.8669,9.8669,0,0,1-1.6208-2.2357,7.5506,7.5506,0,0,0-.3354-1.5091l-.7265-2.7945a31.5661,31.5661,0,0,1-.95-5.8126,3.5689,3.5689,0,0,1-2.571-3.4093A2.91,2.91,0,0,1,238.4,88.8616a3.2034,3.2034,0,0,1,1.3414-.2795,2.9175,2.9175,0,0,1,2.7387,1.6768,3.0411,3.0411,0,0,1,.3912,1.4532l-.2794,2.1238q0,2.5152,3.577,6.1481a39.72,39.72,0,0,0,.28-4.8069q0-3.7446-1.3414-4.7505a.8751.8751,0,0,0-.2236-.1677,2.3451,2.3451,0,0,1-1.006-2.18,2.8444,2.8444,0,0,1,1.9-2.85,3.0726,3.0726,0,0,1,1.2855-.2795,2.8737,2.8737,0,0,1,2.7946,1.7885,2.7578,2.7578,0,0,1,.3353,1.3414l-.3912,2.4034q0,3.13,3.074,9.5573a40.0782,40.0782,0,0,0,1.1737-8.0482,10.8146,10.8146,0,0,0-.8384-4.3036,2.9586,2.9586,0,0,1-.3353-1.1178,2.8454,2.8454,0,0,1,1.8444-2.85,3.0719,3.0719,0,0,1,1.2855-.28,2.7675,2.7675,0,0,1,2.7387,1.8444,3.074,3.074,0,0,1,.2794,1.2855q0,.1118-.95,2.9623a9.3686,9.3686,0,0,0-.2236,2.4592,40.0561,40.0561,0,0,0,1.1737,8.0482q3.018-6.3717,3.0181-9.5574l-.3353-2.3474v-.0559a2.8444,2.8444,0,0,1,1.9-2.85,3.0718,3.0718,0,0,1,1.2855-.2794,2.8733,2.8733,0,0,1,2.7945,1.7885,2.7568,2.7568,0,0,1,.3354,1.3414,2.4866,2.4866,0,0,1-1.006,2.2356q-1.5651,1.0061-1.565,4.9186a39.2187,39.2187,0,0,0,.2795,4.7509q3.5769-3.6329,3.577-6.148l-.2795-2.1239a2.8734,2.8734,0,0,1,1.7886-2.7945,2.7551,2.7551,0,0,1,1.3413-.3354,2.9147,2.9147,0,0,1,2.8505,1.7885l.3353,1.062v.2794q0,2.2356-2.571,3.4094a53.3114,53.3114,0,0,1-1.9,9.4457,3.051,3.051,0,0,0-.1117.6707q0,.3912-.8384,1.2855l-.6707.8383q-2.6829,3.0741-2.6828,4.2478a23.625,23.625,0,0,0,1.3414,3.4652,10.1565,10.1565,0,0,1,.2236,1.9562m-12.1286-31.97a1.2748,1.2748,0,0,0-1.3414,1.0619,1.0513,1.0513,0,0,0-.0558.3354A1.2745,1.2745,0,0,0,255.6706,87.8a1.0531,1.0531,0,0,0,.3353.0559q1.3415,0,1.3414-1.3972a1.3071,1.3071,0,0,0-.95-1.3414,1.2385,1.2385,0,0,0-.3913-.0559m10.06,21.7976q0-1.7884-10.06-1.7885-10.1162,0-10.1162,1.8444,0,.7824,1.4531.7824a39.1793,39.1793,0,0,0,4.1919-.2794l3.6329-.1118h.8943q1.5648,0,5.9246.2795l2.7387.1117q1.3413,0,1.3414-.8383"/><path class="cls-3" d="M206.5552,82c.069-.0028.1466,0,.2165,0,1.863,0,3.0668.6913,3.6258,2.07l.2841,1.1771v.1623a5.0888,5.0888,0,0,1-1.2312,3.1388,12.0968,12.0968,0,0,1,3.1929,1.7317q5.1418,3.5769,5.141,7.8741,0,3.2417-3.3552,7.1027l1.1094,4.3022q0,1.9562-3.964,2.2864A15.1968,15.1968,0,0,0,217,112.9679c.2236,0,1.3263-.0641,3.3011-.1759a4.6266,4.6266,0,0,1,4.0181,2.5841c.149.2981.3311.6285.5547,1.0012l-2.0023,3.0711a4.2111,4.2111,0,0,1-1.9076,1.4476c-.1491-.7825-1.3361-1.2613-3.5716-1.4476l-1.3394-.1082q-6.8745-.5589-9.2812-2.9629-2.18,2.2914-6.6563,2.6246c-.6707.0745-1.5441.1892-2.6246.3382q-4.08.3354-4.7488,1.1771a1.1827,1.1827,0,0,0-.1759.3788,6.3218,6.3218,0,0,1-2.7329-2.787,12.9029,12.9029,0,0,0-1.177-1.7317q1.509-2.7945,3.2469-3.3552a3.8856,3.8856,0,0,1,1.3394-.23s1.1028.0641,3.3011.1759a14.883,14.883,0,0,0,5.4251-1.123c-2.6455-.2235-3.9776-.9823-3.9776-2.2864v-.027c.035-.2031.334-1.1508.893-2.8276a5.1549,5.1549,0,0,0,.2841-1.2311q-3.4095-4.1359-3.4094-7.3191,0-3.6889,3.6258-6.7105c2.1611-1.8258,3.7257-2.7834,4.6947-2.8952a4.9116,4.9116,0,0,1-1.2176-3.1387,3.035,3.035,0,0,1,2.6246-3.2335A4.74,4.74,0,0,1,206.5548,82Z"/><path class="cls-3" d="M206.5287,84.2992a1.2489,1.2489,0,0,0-1.15,1.0012l-.0676.3382a1.2926,1.2926,0,0,0,1.1229,1.3394,1.0708,1.0708,0,0,0,.3382.0541,1.3332,1.3332,0,0,0,1.15-.4735,1.5713,1.5713,0,0,0,.2435-.92c0-.8943-.462-1.3394-1.3935-1.3394C206.6907,84.2992,206.6035,84.2912,206.5287,84.2992Z"/><path class="cls-3" d="M205.7586,92.9573v2.4081H203.81V97.49h1.9482v2.57h2.0158V97.49h1.9617V95.3654h-1.9617V92.9573Z"/><path class="cls-3" d="M203.5929,102.8475a4.3033,4.3033,0,0,0-2.1647.4059c-.0157.0124-.0406.0276-.0541.0406a.6184.6184,0,0,0-.0541.0676c-.0038.0057-.01.0214-.0135.0271l-.0136.0135-.0135.0136c-.0044.0049-.01.0218-.0135.027l-.0136.0136c-.0036.0056-.01.021-.0135.027a.58.58,0,0,0-.0406.0812c-.0051.0182-.01.0476-.0135.0676a.85.85,0,0,0,0,.1083c0,.41.381.656,1.1635.7305a42.7155,42.7155,0,0,0,4.424.1624,44.1191,44.1191,0,0,0,4.4646-.1624c.7452-.0745,1.1228-.3207,1.1229-.7305,0-.5962-.9544-.893-2.8546-.893h-5.4793C203.8721,102.8475,203.7338,102.8443,203.5929,102.8475Z"/><path class="cls-3" d="M203.7688,106.311c-1.7264.0266-2.5841.3247-2.5841.8929a.5988.5988,0,0,0,0,.0947.6727.6727,0,0,0,.0271.0677.5633.5633,0,0,0,.027.0676l.0271.0406a.8078.8078,0,0,0,.0676.0812l.0406.04a4.4533,4.4533,0,0,0,2.327.5683h3.0711c3.726,0,5.5874-.3272,5.5875-.9606a.5263.5263,0,0,0-.027-.1488.6084.6084,0,0,0-.0542-.1218c-.27-.4088-1.2-.6223-2.7734-.6223h-5.7363Z"/><path d="M204.0312,106.3132q-2.85,0-2.85.8942,0,.7825,2.5151.95h3.074q5.589,0,5.5891-.95,0-.8943-2.85-.8942h-5.4775m0-3.4653q-2.4592,0-2.7386.5589a.4547.4547,0,0,0-.1118.3354q0,.6147,1.1737.7265a42.19,42.19,0,0,0,4.4155.1677,43.9343,43.9343,0,0,0,4.4713-.1677q1.1177-.1118,1.1178-.7265,0-.8943-2.8505-.8943h-5.4774m10.3959,2.4033,1.1178,4.3036q0,1.9563-3.9682,2.2916a15.1649,15.1649,0,0,0,5.4216,1.1178q.3353,0,3.2975-.1677a4.6208,4.6208,0,0,1,4.0242,2.571q.2235.4471.5589,1.006l-2.012,3.0741a4.21,4.21,0,0,1-1.9,1.4531q-.2237-1.1736-3.577-1.4531l-1.3414-.1118q-6.8745-.5589-9.2781-2.9622-2.18,2.2914-6.6511,2.6268-1.006.1119-2.6269.3354-4.08.3352-4.751,1.1737a1.2415,1.2415,0,0,0-.1676.3912,6.3534,6.3534,0,0,1-2.7387-2.7945,12.8918,12.8918,0,0,0-1.1738-1.7327q1.5092-2.7945,3.2417-3.3534a3.8963,3.8963,0,0,1,1.3414-.2236l3.2976.1677a14.8569,14.8569,0,0,0,5.4216-1.1178q-3.9682-.3354-3.9683-2.2916,0-.1676.8943-2.85a5.06,5.06,0,0,0,.2794-1.23q-3.4093-4.1359-3.4093-7.3217,0-3.689,3.6329-6.707,3.2415-2.7387,4.6947-2.9063a4.9057,4.9057,0,0,1-1.23-3.13,3.0446,3.0446,0,0,1,2.6268-3.2417,4.8639,4.8639,0,0,1,1.2855-.1677q2.7945,0,3.633,2.068l.2794,1.1737V85.41a5.0629,5.0629,0,0,1-1.23,3.13,12.0985,12.0985,0,0,1,3.1858,1.7326q5.142,3.577,5.1419,7.8806,0,3.2418-3.3534,7.0984m-6.6511-5.1978v-2.571h1.9562V95.3587h-1.9562V92.9554h-2.0121v2.4033h-1.9562v2.1239h1.9562v2.571h2.0121M206.77,84.2924a1.2972,1.2972,0,0,0-1.3972,1.006l-.0559.3353a1.29,1.29,0,0,0,1.1178,1.3414,1.0531,1.0531,0,0,0,.3353.0559,1.235,1.235,0,0,0,1.3973-1.3973q0-1.3413-1.3973-1.3413"/><path class="cls-3" d="M402.0932,84.9911a.5642.5642,0,0,1,.0812,0,5.41,5.41,0,0,1,2.3541,2.1781,19.6043,19.6043,0,0,1,.8388,2.3541,3.6759,3.6759,0,0,1,.8929-.1218q4.6949,0,8.9426,5.7632,5.0862,6.6512,5.0869,18.1017a43.3843,43.3843,0,0,1-.23,4.64H396.4785a11.9,11.9,0,0,1,2.7328-7.0892,7.542,7.542,0,0,1,.7847-1.0147,15.0579,15.0579,0,0,0,2.5164-4.0181,9.9543,9.9543,0,0,0,.3383-1.5153,11.249,11.249,0,0,0-5.5333,4.3023c-.5589.9315-1.1828,1.9027-1.8535,2.9088a1.0344,1.0344,0,0,1-.2029.2435.9933.9933,0,0,1-.6359.2029c-.9315,0-1.3935-.5766-1.3935-1.7317a1.612,1.612,0,0,1-1.2853.7306s-.3777-.0979-1.1229-.2841a5.5336,5.5336,0,0,1-3.4094-2.1241,10.4859,10.4859,0,0,1-.717-1.3394q.3912-2.4033,3.8558-9.5513a49.82,49.82,0,0,0,3.1252-7.3866,14.1506,14.1506,0,0,0,.0541-1.4477,29.0874,29.0874,0,0,0-.2706-3.017c.0746,0,.2566-.0169.5547-.0541a10.6837,10.6837,0,0,1,5.3709,1.6776l.3247.2165q1.5448-2.5038,2.3812-2.6247Z"/><path class="cls-3" d="M404.92,91.866a.7266.7266,0,0,0-.1759.1082.8938.8938,0,0,0-.5141.1353.5807.5807,0,0,0-.2165.4871.9162.9162,0,0,0,.3382.5546q3.0182.2795,6.6022,4.3023,4.5272,5.2537,4.5189,15.2066v.3383c0,1.6395.3609,2.4623,1.0689,2.4623.5961,0,.9266-.4924,1.0011-1.4612v-2.07q0-9.11-4.6406-14.9227-4.024-5.03-7.3191-5.0328l-.6629-.1082Z"/><path class="cls-3" d="M396.6253,94.2211a3.2422,3.2422,0,0,0-2.3946,1.3936,2.1452,2.1452,0,0,0-.5546,1.3935c0,.6707.2461,1.0147.7305,1.0147a4.35,4.35,0,0,0,2.9629-1.6235,2.3111,2.3111,0,0,0,.8388-1.4611c0-.4844-.4451-.7171-1.3394-.7171-.0815,0-.1641-.0056-.2435,0Z"/><path class="cls-3" d="M389.9025,105.394a1.7082,1.7082,0,0,0-1.5829,1.177,1.4885,1.4885,0,0,0-.1218.5547,1.3348,1.3348,0,0,0,.1759.5547,1.6314,1.6314,0,0,0,1.7858-1.2312,1.2467,1.2467,0,0,0,.0541-.3923,5.2127,5.2127,0,0,0-.1082-.6629C390.0356,105.394,389.9687,105.3892,389.9025,105.394Z"/><path d="M394.4044,98.0136a4.3442,4.3442,0,0,0,2.9622-1.6208,2.2959,2.2959,0,0,0,.8384-1.4532q0-.7266-1.3414-.7266a3.192,3.192,0,0,0-2.6269,1.3973,2.16,2.16,0,0,0-.5589,1.3972q0,1.0061.7266,1.0061m-.95-12.24q.1118,0,.5589-.0559a10.6656,10.6656,0,0,1,5.3657,1.6767l.3353.2236q1.6209-2.627,2.4592-2.6269a5.3894,5.3894,0,0,1,2.3474,2.18,19.3609,19.3609,0,0,1,.8384,2.3475,3.6714,3.6714,0,0,1,.8943-.1118q4.6949,0,8.9426,5.7567,5.0861,6.651,5.086,18.1086a43.4885,43.4885,0,0,1-.2235,4.6388h-23.586a11.9325,11.9325,0,0,1,2.7386-7.0983,7.495,7.495,0,0,1,.7825-1.0061,15.0518,15.0518,0,0,0,2.5151-4.0241,9.8858,9.8858,0,0,0,.3354-1.5091,11.251,11.251,0,0,0-5.5333,4.3036q-.8383,1.3972-1.8444,2.9063a.9238.9238,0,0,1-.8384.4472q-1.3973,0-1.3973-1.7327a1.6071,1.6071,0,0,1-1.2855.7266l-1.1178-.2794a5.5337,5.5337,0,0,1-3.4094-2.1239,10.43,10.43,0,0,1-.7266-1.3414q.3913-2.4033,3.8565-9.5574a50.0041,50.0041,0,0,0,3.13-7.3775,14.1729,14.1729,0,0,0,.0558-1.4532,29.9736,29.9736,0,0,0-.2794-3.0181m-3.3535,19.6178a1.7378,1.7378,0,0,0-1.7885,1.1737,1.4935,1.4935,0,0,0-.1118.5589,1.3176,1.3176,0,0,0,.1677.5589,1.6333,1.6333,0,0,0,1.7885-1.23,1.237,1.237,0,0,0,.0559-.3912,5.5846,5.5846,0,0,0-.1118-.6707m27.4426,8.6071V111.93q0-9.11-4.6388-14.9231-4.0242-5.03-7.3217-5.03l-.6708-.1118a.6515.6515,0,0,0-.1677.1118q-.7264,0-.7265.6148a.9153.9153,0,0,0,.3353.5589q3.018.2795,6.5952,4.3036,4.5272,5.2537,4.5272,15.2024v.3353q0,2.4592,1.0619,2.4592.8943,0,1.006-1.4532"/><path class="cls-3" d="M97.2648,85.1607h3.9639l1.0012.9471v1.3935h2.124V86.1078l.9606-.9471h6.1961l.9471.9471v1.3935h2.124V86.1078l.9606-.9471H119.56l1.5694,1.5559v4.9787l-4.37,4.3022v11.1211l5.6549,5.5874v3.9776l-1.1229,1.0552H95.4649L94.41,116.6836V112.706l5.6415-5.5874V95.9975L95.695,91.6953V86.7166l1.5694-1.5559Z"/><path class="cls-3" d="M102.066,95.7805v1.8941h12.69V95.7805Z"/><path class="cls-3" d="M102.066,105.8331v1.9076h12.69v-1.9076Z"/><path d="M95.4724,117.743l-1.0619-1.0619v-3.9683l5.645-5.5891V96.0013l-4.36-4.3036V86.7233l1.5649-1.5649h3.9683l1.006.95v1.3973h2.1239V86.1085l.95-.95h6.2038l.95.95v1.3973h2.1239V86.1085l.95-.95h4.0242l1.5649,1.5649v4.9744l-4.36,4.3036v11.1224l5.645,5.5891v3.9683l-1.1178,1.0619H95.4722m6.5953-11.9047v1.9h12.6874v-1.9H102.0675m0-10.06v1.9h12.6874v-1.9H102.0675"/><path class="cls-3" d="M441.0379,429.3111h5.0328l.9606.9471v1.4476h1.61v-1.4476l.9606-.9471h6.1424l.947.9471v1.4476h1.5694v-1.4476l1.0011-.9471h5.0328l1.6235,1.5559v5.0869l-4.9245,4.3023V451.431l5.7094,5.7631V461.05l-1.0688,1.0688H439.6991l-1.0552-1.0688v-3.8558l5.6956-5.7631V440.2562l-4.9112-4.3023V430.867l1.61-1.5559Z"/><path class="cls-3" d="M442.1068,431.545l-.7306.7847v3.1253l3.8017,3.0711h14.9768l3.8016-3.0711V432.33l-.717-.7847h-3.1387v1.5559l-.8388.7847H455.636l-.8388-.7847v-1.4476H450.549v1.4476l-.8388.7847h-3.6393l-.8388-.7847V431.545h-3.1253Z"/><path class="cls-3" d="M446.301,440.4331v9.89h12.7446v-9.89Z"/><path class="cls-3" d="M446.0712,452.1612l-3.68,3.5852h20.5642l-3.6934-3.5852H446.0712Z"/><path class="cls-3" d="M440.5916,457.694v2.1782h24.1492V457.694Z"/><path d="M446.2984,440.4288v9.8928h12.7433v-9.8928H446.2984m-6.5952,21.6859-1.0619-1.062v-3.8565l5.7008-5.7566V440.2613l-4.9185-4.3036v-5.0861l1.6208-1.5649h5.03l.95.95V431.71h1.6209v-1.4532l.95-.95h6.148l.95.95V431.71h1.5649v-1.4532l1.0061-.95h5.03l1.6208,1.5649v5.0861l-4.9185,4.3036V451.44l5.7008,5.7566v3.8565l-1.0619,1.062H439.703m.8943-4.4155v2.18h24.1449v-2.18H440.5973m5.4774-5.5333-3.6888,3.5771H462.954l-3.6889-3.5771H446.0746m4.4713-20.5122v1.4532l-.8384.7825h-3.6329l-.8384-.7825v-1.565h-3.13l-.7266.7825v3.13l3.8007,3.074h14.9789l3.8006-3.074v-3.13l-.7266-.7825h-3.13v1.565l-.8384.7825h-3.6329l-.8384-.7825v-1.4532H450.546"/><path class="cls-3" d="M452.3754,380.15c.1131-.0066.223,0,.3382,0a4.57,4.57,0,0,1,4.194,2.1782,3.8225,3.8225,0,0,1,.6088,2.124,6.1965,6.1965,0,0,1-1.0012,3.1794q3.8565,1.5649,3.8558,5.3709a5.0711,5.0711,0,0,1-2.1782,4.4644,3.2584,3.2584,0,0,1-1.0146.5141q5.03,2.571,6.548,6.5346a16.4721,16.4721,0,0,1,.9471,5.926q0,1.8444-.0541,2.57H440.7539q-.0558-.6706-.0541-2.57,0-6.8745,4.0181-10.2821a18.6351,18.6351,0,0,1,3.4094-2.1782,4.317,4.317,0,0,1-2.8411-3.2469,5.442,5.442,0,0,1-.2841-1.7317q0-3.7448,3.8016-5.371a6.54,6.54,0,0,1-.8929-3.1793,4.0144,4.0144,0,0,1,2.5164-3.8017,5.2265,5.2265,0,0,1,1.9482-.5Z"/><path class="cls-3" d="M452.4187,382.046a2.2917,2.2917,0,0,0-2.097,1.3935,1.9678,1.9678,0,0,0-.2165.8929,5.45,5.45,0,0,0,.7306,1.9076,2.5083,2.5083,0,0,1,.3924,1.4476c0,.4471-.4283.9058-1.2853,1.3529a4.5285,4.5285,0,0,0-2.57,4.0181,3.8885,3.8885,0,0,0,2.1782,3.4635c.708.4844,1.0552.8958,1.0553,1.2311,0,.708-.7251,1.4836-2.1782,2.3405a11.0736,11.0736,0,0,0-5.141,5.9935,15.7781,15.7781,0,0,0-.6088,4.6947H462.62q0-5.8686-3.1793-8.78a13.6439,13.6439,0,0,0-2.6247-1.9076c-1.4532-.857-2.1782-1.6326-2.1782-2.3405,0-.3726.3641-.784,1.1094-1.2312a3.81,3.81,0,0,0,2.07-2.2323,5.8137,5.8137,0,0,0,.1082-1.2311,4.44,4.44,0,0,0-2.6246-4.0181l-1.0011-.7306a.8756.8756,0,0,1-.2841-.6223,3.27,3.27,0,0,1,.6764-1.8941,2.4282,2.4282,0,0,0,.4465-1.4611,2.2177,2.2177,0,0,0-1.5694-2.1106,3.148,3.148,0,0,0-1.0011-.1759h-.1488Z"/><path d="M462.6359,410.7752q0-5.8686-3.1858-8.775a13.6461,13.6461,0,0,0-2.6269-1.9q-2.18-1.2855-2.18-2.3475,0-.5589,1.1179-1.23a3.8115,3.8115,0,0,0,2.0679-2.2356,5.7688,5.7688,0,0,0,.1118-1.23,4.45,4.45,0,0,0-2.6269-4.0242l-1.0061-.7266a.8541.8541,0,0,1-.2794-.6148,3.279,3.279,0,0,1,.6707-1.9,2.4047,2.4047,0,0,0,.4471-1.4532,2.2288,2.2288,0,0,0-1.5649-2.1239,3.1652,3.1652,0,0,0-1.0061-.1677,2.3022,2.3022,0,0,0-2.2356,1.3973,1.9823,1.9823,0,0,0-.2235.8943,5.3936,5.3936,0,0,0,.7266,1.9,2.522,2.522,0,0,1,.3912,1.4532q0,.6706-1.2855,1.3413a4.5372,4.5372,0,0,0-2.571,4.0242,3.8924,3.8924,0,0,0,2.18,3.4653q1.062.7264,1.062,1.23,0,1.062-2.18,2.3474a11.0526,11.0526,0,0,0-5.1419,5.9805,15.7689,15.7689,0,0,0-.6148,4.6947h19.9533m-21.9093,2.2357q-.0558-.6706-.0559-2.571,0-6.8745,4.0242-10.2839a18.63,18.63,0,0,1,3.4093-2.18,4.32,4.32,0,0,1-2.85-3.2417,5.4435,5.4435,0,0,1-.28-1.7326q0-3.7448,3.8006-5.3658a6.5644,6.5644,0,0,1-.8942-3.1858,4.0116,4.0116,0,0,1,2.5151-3.8006,5.2848,5.2848,0,0,1,2.2915-.503,4.5681,4.5681,0,0,1,4.1919,2.18,3.8263,3.8263,0,0,1,.6147,2.1238,6.2253,6.2253,0,0,1-1.006,3.1858q3.8564,1.5651,3.8565,5.3658a5.0852,5.0852,0,0,1-2.18,4.4713,3.1908,3.1908,0,0,1-1.006.503q5.03,2.571,6.5394,6.5394a16.4632,16.4632,0,0,1,.95,5.9246q0,1.8446-.0559,2.571H440.7267"/><path class="cls-3" d="M354.0154,380.15c.1131-.0066.223,0,.3382,0a4.57,4.57,0,0,1,4.194,2.1782,3.8225,3.8225,0,0,1,.6088,2.124,6.1972,6.1972,0,0,1-1.0011,3.1794q3.8564,1.5649,3.8557,5.3709a5.0713,5.0713,0,0,1-2.1781,4.4644,3.2589,3.2589,0,0,1-1.0147.5141q5.03,2.571,6.548,6.5346a16.4721,16.4721,0,0,1,.9471,5.926q0,1.8444-.0541,2.57H342.3939q-.0558-.6706-.0541-2.57,0-6.8745,4.0182-10.2821a18.6306,18.6306,0,0,1,3.4093-2.1782,4.317,4.317,0,0,1-2.8411-3.2469,5.442,5.442,0,0,1-.2841-1.7317q0-3.7448,3.8016-5.371a6.5405,6.5405,0,0,1-.8929-3.1793,4.0144,4.0144,0,0,1,2.5164-3.8017,5.2265,5.2265,0,0,1,1.9482-.5Z"/><path class="cls-3" d="M354.0587,382.046a2.2917,2.2917,0,0,0-2.097,1.3935,1.9691,1.9691,0,0,0-.2165.8929,5.45,5.45,0,0,0,.7306,1.9076,2.5076,2.5076,0,0,1,.3924,1.4476c0,.4471-.4283.9058-1.2853,1.3529a4.5282,4.5282,0,0,0-2.57,4.0181,3.8882,3.8882,0,0,0,2.1781,3.4635c.708.4844,1.0553.8958,1.0553,1.2311,0,.708-.7251,1.4836-2.1782,2.3405a11.074,11.074,0,0,0-5.141,5.9935,15.7781,15.7781,0,0,0-.6088,4.6947H364.26q0-5.8686-3.1793-8.78a13.6408,13.6408,0,0,0-2.6247-1.9076c-1.4532-.857-2.1782-1.6326-2.1782-2.3405,0-.3726.3641-.784,1.1094-1.2312a3.81,3.81,0,0,0,2.07-2.2323,5.813,5.813,0,0,0,.1083-1.2311,4.44,4.44,0,0,0-2.6247-4.0181l-1.0011-.7306a.8756.8756,0,0,1-.2841-.6223,3.27,3.27,0,0,1,.6764-1.8941,2.4282,2.4282,0,0,0,.4465-1.4611,2.2177,2.2177,0,0,0-1.5694-2.1106,3.148,3.148,0,0,0-1.0011-.1759h-.1488Z"/><path d="M364.2759,410.7752q0-5.8686-3.1858-8.775a13.6461,13.6461,0,0,0-2.6269-1.9q-2.18-1.2855-2.18-2.3475,0-.5589,1.1179-1.23a3.8117,3.8117,0,0,0,2.068-2.2356,5.7759,5.7759,0,0,0,.1117-1.23,4.45,4.45,0,0,0-2.6269-4.0242l-1.006-.7266a.8538.8538,0,0,1-.2795-.6148,3.279,3.279,0,0,1,.6707-1.9,2.4047,2.4047,0,0,0,.4471-1.4532,2.2288,2.2288,0,0,0-1.5649-2.1239,3.1648,3.1648,0,0,0-1.0061-.1677,2.3023,2.3023,0,0,0-2.2356,1.3973,1.9823,1.9823,0,0,0-.2235.8943,5.3936,5.3936,0,0,0,.7266,1.9,2.522,2.522,0,0,1,.3912,1.4532q0,.6706-1.2855,1.3413a4.5372,4.5372,0,0,0-2.571,4.0242,3.8924,3.8924,0,0,0,2.18,3.4653q1.0618.7264,1.0619,1.23,0,1.062-2.18,2.3474a11.0526,11.0526,0,0,0-5.1419,5.9805,15.7689,15.7689,0,0,0-.6148,4.6947h19.9533m-21.9093,2.2357q-.0558-.6706-.0559-2.571,0-6.8745,4.0242-10.2839a18.6315,18.6315,0,0,1,3.4094-2.18,4.32,4.32,0,0,1-2.8505-3.2417,5.4435,5.4435,0,0,1-.2795-1.7326q0-3.7448,3.8006-5.3658a6.5655,6.5655,0,0,1-.8942-3.1858,4.0118,4.0118,0,0,1,2.5151-3.8006,5.2851,5.2851,0,0,1,2.2915-.503,4.5681,4.5681,0,0,1,4.1919,2.18,3.8264,3.8264,0,0,1,.6148,2.1238,6.2264,6.2264,0,0,1-1.0061,3.1858q3.8564,1.5651,3.8565,5.3658a5.085,5.085,0,0,1-2.18,4.4713,3.19,3.19,0,0,1-1.006.503q5.03,2.571,6.5394,6.5394a16.461,16.461,0,0,1,.95,5.9246q0,1.8446-.0559,2.571H342.3667"/><path class="cls-3" d="M304.8354,380.15c.1131-.0066.223,0,.3382,0a4.57,4.57,0,0,1,4.194,2.1782,3.8225,3.8225,0,0,1,.6088,2.124,6.1965,6.1965,0,0,1-1.0012,3.1794q3.8565,1.5649,3.8558,5.3709a5.0711,5.0711,0,0,1-2.1782,4.4644,3.2584,3.2584,0,0,1-1.0146.5141q5.03,2.571,6.548,6.5346a16.4721,16.4721,0,0,1,.9471,5.926q0,1.8444-.0541,2.57H293.2139q-.0558-.6706-.0541-2.57,0-6.8745,4.0181-10.2821a18.6351,18.6351,0,0,1,3.4094-2.1782,4.317,4.317,0,0,1-2.8411-3.2469,5.4421,5.4421,0,0,1-.2842-1.7317q0-3.7448,3.8017-5.371a6.5384,6.5384,0,0,1-.8929-3.1793,4.0141,4.0141,0,0,1,2.5164-3.8017,5.2265,5.2265,0,0,1,1.9482-.5Z"/><path class="cls-3" d="M304.8787,382.046a2.2917,2.2917,0,0,0-2.097,1.3935,1.9678,1.9678,0,0,0-.2165.8929,5.45,5.45,0,0,0,.7306,1.9076,2.5083,2.5083,0,0,1,.3924,1.4476c0,.4471-.4283.9058-1.2853,1.3529a4.5285,4.5285,0,0,0-2.57,4.0181,3.8885,3.8885,0,0,0,2.1782,3.4635c.708.4844,1.0552.8958,1.0553,1.2311,0,.708-.7251,1.4836-2.1782,2.3405a11.0736,11.0736,0,0,0-5.141,5.9935,15.7781,15.7781,0,0,0-.6088,4.6947H315.08q0-5.8686-3.1794-8.78a13.643,13.643,0,0,0-2.6246-1.9076c-1.4533-.857-2.1782-1.6326-2.1782-2.3405,0-.3726.3641-.784,1.1094-1.2312a3.81,3.81,0,0,0,2.07-2.2323,5.8137,5.8137,0,0,0,.1082-1.2311,4.44,4.44,0,0,0-2.6246-4.0181l-1.0011-.7306a.8762.8762,0,0,1-.2842-.6223,3.2712,3.2712,0,0,1,.6765-1.8941,2.4282,2.4282,0,0,0,.4465-1.4611,2.2177,2.2177,0,0,0-1.5694-2.1106,3.148,3.148,0,0,0-1.0011-.1759h-.1488Z"/><path d="M315.0959,410.7752q0-5.8686-3.1858-8.775a13.6493,13.6493,0,0,0-2.6269-1.9q-2.18-1.2855-2.18-2.3475,0-.5589,1.1178-1.23a3.8113,3.8113,0,0,0,2.068-2.2356,5.7688,5.7688,0,0,0,.1118-1.23,4.45,4.45,0,0,0-2.6269-4.0242l-1.0061-.7266a.8541.8541,0,0,1-.2794-.6148,3.279,3.279,0,0,1,.6707-1.9,2.4047,2.4047,0,0,0,.4471-1.4532,2.2288,2.2288,0,0,0-1.5649-2.1239,3.1652,3.1652,0,0,0-1.0061-.1677,2.3021,2.3021,0,0,0-2.2356,1.3973,1.9837,1.9837,0,0,0-.2236.8943,5.3945,5.3945,0,0,0,.7267,1.9,2.5228,2.5228,0,0,1,.3912,1.4532q0,.6706-1.2855,1.3413a4.5372,4.5372,0,0,0-2.571,4.0242,3.8924,3.8924,0,0,0,2.18,3.4653q1.062.7264,1.062,1.23,0,1.062-2.18,2.3474a11.0522,11.0522,0,0,0-5.1419,5.9805,15.7689,15.7689,0,0,0-.6148,4.6947h19.9533m-21.9093,2.2357q-.0558-.6706-.0559-2.571,0-6.8745,4.0242-10.2839a18.63,18.63,0,0,1,3.4093-2.18,4.32,4.32,0,0,1-2.85-3.2417,5.4435,5.4435,0,0,1-.2795-1.7326q0-3.7448,3.8006-5.3658a6.5633,6.5633,0,0,1-.8942-3.1858,4.0116,4.0116,0,0,1,2.5151-3.8006,5.2848,5.2848,0,0,1,2.2915-.503,4.5681,4.5681,0,0,1,4.1919,2.18,3.8263,3.8263,0,0,1,.6147,2.1238,6.2253,6.2253,0,0,1-1.006,3.1858q3.8563,1.5651,3.8565,5.3658a5.0852,5.0852,0,0,1-2.18,4.4713,3.1908,3.1908,0,0,1-1.006.503q5.03,2.571,6.5394,6.5394a16.4632,16.4632,0,0,1,.95,5.9246q0,1.8446-.0559,2.571H293.1867"/><path class="cls-3" d="M255.6554,380.15c.1131-.0066.223,0,.3382,0a4.57,4.57,0,0,1,4.194,2.1782,3.8225,3.8225,0,0,1,.6088,2.124,6.1965,6.1965,0,0,1-1.0012,3.1794q3.8565,1.5649,3.8558,5.3709a5.0711,5.0711,0,0,1-2.1782,4.4644,3.2584,3.2584,0,0,1-1.0146.5141q5.03,2.571,6.548,6.5346a16.4721,16.4721,0,0,1,.9471,5.926q0,1.8444-.0541,2.57H244.0339q-.0558-.6706-.0541-2.57,0-6.8745,4.0181-10.2821a18.6351,18.6351,0,0,1,3.4094-2.1782,4.317,4.317,0,0,1-2.8411-3.2469,5.442,5.442,0,0,1-.2841-1.7317q0-3.7448,3.8016-5.371a6.54,6.54,0,0,1-.8929-3.1793,4.0144,4.0144,0,0,1,2.5164-3.8017,5.2265,5.2265,0,0,1,1.9482-.5Z"/><path class="cls-3" d="M255.6987,382.046a2.2917,2.2917,0,0,0-2.097,1.3935,1.9678,1.9678,0,0,0-.2165.8929,5.45,5.45,0,0,0,.7306,1.9076,2.5083,2.5083,0,0,1,.3924,1.4476c0,.4471-.4283.9058-1.2853,1.3529a4.5285,4.5285,0,0,0-2.5705,4.0181,3.8885,3.8885,0,0,0,2.1782,3.4635c.708.4844,1.0552.8958,1.0553,1.2311,0,.708-.7251,1.4836-2.1782,2.3405a11.0736,11.0736,0,0,0-5.141,5.9935,15.7781,15.7781,0,0,0-.6088,4.6947H265.9q0-5.8686-3.1793-8.78a13.6439,13.6439,0,0,0-2.6247-1.9076c-1.4532-.857-2.1782-1.6326-2.1782-2.3405,0-.3726.3641-.784,1.1094-1.2312a3.81,3.81,0,0,0,2.07-2.2323,5.8137,5.8137,0,0,0,.1082-1.2311,4.44,4.44,0,0,0-2.6246-4.0181l-1.0011-.7306a.8762.8762,0,0,1-.2842-.6223,3.2712,3.2712,0,0,1,.6765-1.8941,2.4282,2.4282,0,0,0,.4465-1.4611,2.2177,2.2177,0,0,0-1.5694-2.1106,3.148,3.148,0,0,0-1.0011-.1759h-.1488Z"/><path d="M265.9159,410.7752q0-5.8686-3.1858-8.775a13.6461,13.6461,0,0,0-2.6269-1.9q-2.18-1.2855-2.18-2.3475,0-.5589,1.1179-1.23a3.8115,3.8115,0,0,0,2.0679-2.2356,5.7688,5.7688,0,0,0,.1118-1.23,4.45,4.45,0,0,0-2.6269-4.0242l-1.0061-.7266a.8541.8541,0,0,1-.2794-.6148,3.279,3.279,0,0,1,.6707-1.9,2.4047,2.4047,0,0,0,.4471-1.4532,2.2288,2.2288,0,0,0-1.5649-2.1239,3.1652,3.1652,0,0,0-1.0061-.1677,2.3021,2.3021,0,0,0-2.2356,1.3973,1.9823,1.9823,0,0,0-.2235.8943,5.3936,5.3936,0,0,0,.7266,1.9,2.522,2.522,0,0,1,.3912,1.4532q0,.6706-1.2855,1.3413a4.5372,4.5372,0,0,0-2.571,4.0242,3.8924,3.8924,0,0,0,2.18,3.4653q1.062.7264,1.062,1.23,0,1.062-2.18,2.3474a11.0526,11.0526,0,0,0-5.1419,5.9805,15.7689,15.7689,0,0,0-.6148,4.6947h19.9533m-21.9093,2.2357q-.0558-.6706-.0559-2.571,0-6.8745,4.0242-10.2839a18.63,18.63,0,0,1,3.4093-2.18,4.32,4.32,0,0,1-2.85-3.2417,5.4435,5.4435,0,0,1-.2795-1.7326q0-3.7448,3.8006-5.3658a6.5644,6.5644,0,0,1-.8942-3.1858,4.0116,4.0116,0,0,1,2.5151-3.8006,5.2848,5.2848,0,0,1,2.2915-.503,4.5681,4.5681,0,0,1,4.1919,2.18,3.8263,3.8263,0,0,1,.6147,2.1238,6.2253,6.2253,0,0,1-1.006,3.1858q3.8564,1.5651,3.8565,5.3658a5.0852,5.0852,0,0,1-2.18,4.4713,3.1908,3.1908,0,0,1-1.006.503q5.03,2.571,6.5394,6.5394a16.4632,16.4632,0,0,1,.95,5.9246q0,1.8446-.0559,2.571H244.0067"/><path class="cls-3" d="M206.4754,380.15c.1131-.0066.223,0,.3382,0a4.57,4.57,0,0,1,4.194,2.1782,3.8225,3.8225,0,0,1,.6088,2.124,6.1965,6.1965,0,0,1-1.0012,3.1794q3.8565,1.5649,3.8558,5.3709a5.0711,5.0711,0,0,1-2.1782,4.4644,3.2584,3.2584,0,0,1-1.0146.5141q5.03,2.571,6.548,6.5346a16.4721,16.4721,0,0,1,.9471,5.926q0,1.8444-.0541,2.57H194.8539q-.0558-.6706-.0541-2.57,0-6.8745,4.0182-10.2821a18.6306,18.6306,0,0,1,3.4093-2.1782,4.317,4.317,0,0,1-2.8411-3.2469,5.442,5.442,0,0,1-.2841-1.7317q0-3.7448,3.8016-5.371a6.5405,6.5405,0,0,1-.8929-3.1793,4.0144,4.0144,0,0,1,2.5164-3.8017,5.2265,5.2265,0,0,1,1.9482-.5Z"/><path class="cls-3" d="M206.5187,382.046a2.2917,2.2917,0,0,0-2.097,1.3935,1.9691,1.9691,0,0,0-.2165.8929,5.45,5.45,0,0,0,.7306,1.9076,2.5083,2.5083,0,0,1,.3924,1.4476c0,.4471-.4283.9058-1.2853,1.3529a4.5282,4.5282,0,0,0-2.57,4.0181,3.8882,3.8882,0,0,0,2.1781,3.4635c.708.4844,1.0552.8958,1.0553,1.2311,0,.708-.7251,1.4836-2.1782,2.3405a11.0736,11.0736,0,0,0-5.141,5.9935,15.7781,15.7781,0,0,0-.6088,4.6947H216.72q0-5.8686-3.1793-8.78a13.6439,13.6439,0,0,0-2.6247-1.9076c-1.4532-.857-2.1782-1.6326-2.1782-2.3405,0-.3726.3641-.784,1.1094-1.2312a3.81,3.81,0,0,0,2.07-2.2323,5.82,5.82,0,0,0,.1083-1.2311,4.44,4.44,0,0,0-2.6247-4.0181l-1.0011-.7306a.8756.8756,0,0,1-.2841-.6223,3.27,3.27,0,0,1,.6764-1.8941,2.4282,2.4282,0,0,0,.4465-1.4611,2.2177,2.2177,0,0,0-1.5694-2.1106,3.148,3.148,0,0,0-1.0011-.1759h-.1488Z"/><path d="M216.7359,410.7752q0-5.8686-3.1858-8.775a13.6461,13.6461,0,0,0-2.6269-1.9q-2.18-1.2855-2.18-2.3475,0-.5589,1.1179-1.23a3.8117,3.8117,0,0,0,2.068-2.2356,5.7759,5.7759,0,0,0,.1117-1.23,4.45,4.45,0,0,0-2.6269-4.0242l-1.006-.7266a.8538.8538,0,0,1-.2795-.6148,3.279,3.279,0,0,1,.6707-1.9,2.4047,2.4047,0,0,0,.4471-1.4532,2.2288,2.2288,0,0,0-1.5649-2.1239,3.1648,3.1648,0,0,0-1.0061-.1677,2.3022,2.3022,0,0,0-2.2356,1.3973,1.9823,1.9823,0,0,0-.2235.8943,5.3936,5.3936,0,0,0,.7266,1.9,2.522,2.522,0,0,1,.3912,1.4532q0,.6706-1.2855,1.3413a4.5372,4.5372,0,0,0-2.571,4.0242,3.8924,3.8924,0,0,0,2.18,3.4653q1.062.7264,1.062,1.23,0,1.062-2.18,2.3474a11.0526,11.0526,0,0,0-5.1419,5.9805,15.7689,15.7689,0,0,0-.6148,4.6947h19.9533m-21.9093,2.2357q-.0558-.6706-.0559-2.571,0-6.8745,4.0242-10.2839a18.6339,18.6339,0,0,1,3.4093-2.18,4.32,4.32,0,0,1-2.85-3.2417,5.4435,5.4435,0,0,1-.28-1.7326q0-3.7448,3.8006-5.3658a6.5644,6.5644,0,0,1-.8942-3.1858,4.0116,4.0116,0,0,1,2.5151-3.8006,5.2848,5.2848,0,0,1,2.2915-.503,4.5681,4.5681,0,0,1,4.1919,2.18,3.8263,3.8263,0,0,1,.6147,2.1238,6.2253,6.2253,0,0,1-1.006,3.1858q3.8563,1.5651,3.8565,5.3658a5.0852,5.0852,0,0,1-2.18,4.4713,3.19,3.19,0,0,1-1.006.503q5.03,2.571,6.5394,6.5394a16.461,16.461,0,0,1,.95,5.9246q0,1.8446-.0559,2.571H194.8267"/><path class="cls-3" d="M157.2954,380.15c.1131-.0066.223,0,.3382,0a4.57,4.57,0,0,1,4.194,2.1782,3.8225,3.8225,0,0,1,.6088,2.124,6.1972,6.1972,0,0,1-1.0011,3.1794q3.8563,1.5649,3.8557,5.3709a5.0713,5.0713,0,0,1-2.1781,4.4644,3.2589,3.2589,0,0,1-1.0147.5141q5.03,2.571,6.548,6.5346a16.4721,16.4721,0,0,1,.9471,5.926q0,1.8444-.0541,2.57H145.6739q-.0558-.6706-.0541-2.57,0-6.8745,4.0182-10.2821a18.6306,18.6306,0,0,1,3.4093-2.1782,4.317,4.317,0,0,1-2.8411-3.2469,5.442,5.442,0,0,1-.2841-1.7317q0-3.7448,3.8016-5.371a6.5405,6.5405,0,0,1-.8929-3.1793,4.0144,4.0144,0,0,1,2.5164-3.8017,5.2265,5.2265,0,0,1,1.9482-.5Z"/><path class="cls-3" d="M157.3387,382.046a2.2917,2.2917,0,0,0-2.097,1.3935,1.9691,1.9691,0,0,0-.2165.8929,5.45,5.45,0,0,0,.7306,1.9076,2.5076,2.5076,0,0,1,.3924,1.4476c0,.4471-.4283.9058-1.2853,1.3529a4.5282,4.5282,0,0,0-2.57,4.0181,3.8882,3.8882,0,0,0,2.1781,3.4635c.708.4844,1.0553.8958,1.0553,1.2311,0,.708-.7251,1.4836-2.1782,2.3405a11.074,11.074,0,0,0-5.141,5.9935,15.7781,15.7781,0,0,0-.6088,4.6947H167.54q0-5.8686-3.1793-8.78a13.6408,13.6408,0,0,0-2.6247-1.9076c-1.4532-.857-2.1782-1.6326-2.1782-2.3405,0-.3726.3641-.784,1.1094-1.2312a3.81,3.81,0,0,0,2.07-2.2323,5.813,5.813,0,0,0,.1083-1.2311,4.44,4.44,0,0,0-2.6247-4.0181l-1.0011-.7306a.8756.8756,0,0,1-.2841-.6223,3.27,3.27,0,0,1,.6764-1.8941,2.4282,2.4282,0,0,0,.4465-1.4611,2.2177,2.2177,0,0,0-1.5694-2.1106,3.148,3.148,0,0,0-1.0011-.1759h-.1488Z"/><path d="M167.5559,410.7752q0-5.8686-3.1858-8.775a13.6461,13.6461,0,0,0-2.6269-1.9q-2.18-1.2855-2.18-2.3475,0-.5589,1.1179-1.23a3.8117,3.8117,0,0,0,2.068-2.2356,5.7759,5.7759,0,0,0,.1117-1.23,4.45,4.45,0,0,0-2.6269-4.0242l-1.006-.7266a.8538.8538,0,0,1-.28-.6148,3.279,3.279,0,0,1,.6707-1.9,2.4047,2.4047,0,0,0,.4471-1.4532,2.2288,2.2288,0,0,0-1.5649-2.1239,3.1648,3.1648,0,0,0-1.0061-.1677,2.3023,2.3023,0,0,0-2.2356,1.3973,1.9823,1.9823,0,0,0-.2235.8943,5.3936,5.3936,0,0,0,.7266,1.9,2.522,2.522,0,0,1,.3912,1.4532q0,.6706-1.2855,1.3413a4.5372,4.5372,0,0,0-2.571,4.0242,3.8924,3.8924,0,0,0,2.18,3.4653q1.062.7264,1.062,1.23,0,1.062-2.18,2.3474a11.0526,11.0526,0,0,0-5.1419,5.9805,15.7689,15.7689,0,0,0-.6148,4.6947h19.9533m-21.9093,2.2357q-.0558-.6706-.0559-2.571,0-6.8745,4.0242-10.2839a18.6315,18.6315,0,0,1,3.4094-2.18,4.32,4.32,0,0,1-2.85-3.2417,5.4435,5.4435,0,0,1-.28-1.7326q0-3.7448,3.8006-5.3658a6.5655,6.5655,0,0,1-.8942-3.1858,4.0118,4.0118,0,0,1,2.5151-3.8006,5.2851,5.2851,0,0,1,2.2915-.503,4.5681,4.5681,0,0,1,4.1919,2.18,3.8264,3.8264,0,0,1,.6148,2.1238,6.2264,6.2264,0,0,1-1.0061,3.1858q3.8564,1.5651,3.8565,5.3658a5.085,5.085,0,0,1-2.18,4.4713,3.19,3.19,0,0,1-1.006.503q5.03,2.571,6.5394,6.5394a16.461,16.461,0,0,1,.95,5.9246q0,1.8446-.0559,2.571H145.6467"/><path class="cls-3" d="M108.1154,380.15c.1131-.0066.223,0,.3382,0a4.57,4.57,0,0,1,4.194,2.1782,3.8225,3.8225,0,0,1,.6088,2.124,6.1963,6.1963,0,0,1-1.0011,3.1794q3.8563,1.5649,3.8557,5.3709a5.0713,5.0713,0,0,1-2.1781,4.4644,3.2589,3.2589,0,0,1-1.0147.5141q5.03,2.571,6.548,6.5346a16.4721,16.4721,0,0,1,.9471,5.926q0,1.8444-.0541,2.57H96.494q-.0559-.6706-.0542-2.57,0-6.8745,4.0182-10.2821a18.6306,18.6306,0,0,1,3.4093-2.1782,4.317,4.317,0,0,1-2.8411-3.2469,5.442,5.442,0,0,1-.2841-1.7317q0-3.7448,3.8016-5.371a6.5405,6.5405,0,0,1-.8929-3.1793,4.0144,4.0144,0,0,1,2.5164-3.8017,5.2265,5.2265,0,0,1,1.9482-.5Z"/><path class="cls-3" d="M108.1587,382.046a2.2917,2.2917,0,0,0-2.097,1.3935,1.9691,1.9691,0,0,0-.2165.8929,5.4487,5.4487,0,0,0,.7307,1.9076,2.5082,2.5082,0,0,1,.3923,1.4476c0,.4471-.4283.9058-1.2853,1.3529a4.5282,4.5282,0,0,0-2.57,4.0181,3.8882,3.8882,0,0,0,2.1781,3.4635c.708.4844,1.0553.8958,1.0553,1.2311,0,.708-.7251,1.4836-2.1782,2.3405a11.074,11.074,0,0,0-5.141,5.9935,15.7814,15.7814,0,0,0-.6088,4.6947H118.36q0-5.8686-3.1793-8.78a13.6408,13.6408,0,0,0-2.6247-1.9076c-1.4532-.857-2.1782-1.6326-2.1782-2.3405,0-.3726.3641-.784,1.1094-1.2312a3.81,3.81,0,0,0,2.07-2.2323,5.813,5.813,0,0,0,.1083-1.2311,4.44,4.44,0,0,0-2.6247-4.0181l-1.0011-.7306a.8756.8756,0,0,1-.2841-.6223,3.27,3.27,0,0,1,.6764-1.8941,2.4282,2.4282,0,0,0,.4465-1.4611,2.2177,2.2177,0,0,0-1.5694-2.1106,3.148,3.148,0,0,0-1.0011-.1759h-.1488Z"/><path d="M118.3759,410.7752q0-5.8686-3.1858-8.775a13.6461,13.6461,0,0,0-2.6269-1.9q-2.18-1.2855-2.18-2.3475,0-.5589,1.1179-1.23a3.8117,3.8117,0,0,0,2.068-2.2356,5.7759,5.7759,0,0,0,.1117-1.23,4.45,4.45,0,0,0-2.6269-4.0242l-1.006-.7266a.8542.8542,0,0,1-.2795-.6148,3.28,3.28,0,0,1,.6707-1.9,2.4047,2.4047,0,0,0,.4471-1.4532,2.2288,2.2288,0,0,0-1.5649-2.1239,3.1648,3.1648,0,0,0-1.0061-.1677,2.3023,2.3023,0,0,0-2.2356,1.3973,1.9823,1.9823,0,0,0-.2235.8943,5.3936,5.3936,0,0,0,.7266,1.9,2.522,2.522,0,0,1,.3912,1.4532q0,.6706-1.2855,1.3413a4.5372,4.5372,0,0,0-2.571,4.0242,3.8924,3.8924,0,0,0,2.18,3.4653q1.0619.7264,1.0619,1.23,0,1.062-2.18,2.3474a11.0526,11.0526,0,0,0-5.1419,5.9805,15.7689,15.7689,0,0,0-.6148,4.6947h19.9534m-21.9094,2.2357q-.0558-.6706-.0559-2.571,0-6.8745,4.0242-10.2839a18.6315,18.6315,0,0,1,3.4094-2.18,4.32,4.32,0,0,1-2.85-3.2417,5.4435,5.4435,0,0,1-.2795-1.7326q0-3.7448,3.8007-5.3658a6.5645,6.5645,0,0,1-.8943-3.1858,4.0118,4.0118,0,0,1,2.5151-3.8006,5.2854,5.2854,0,0,1,2.2915-.503,4.5681,4.5681,0,0,1,4.1919,2.18,3.8264,3.8264,0,0,1,.6148,2.1238,6.2264,6.2264,0,0,1-1.0061,3.1858q3.8564,1.5651,3.8565,5.3658a5.0851,5.0851,0,0,1-2.18,4.4713,3.1914,3.1914,0,0,1-1.0061.503q5.03,2.571,6.5394,6.5394a16.461,16.461,0,0,1,.95,5.9246q0,1.8446-.0559,2.571H96.4667"/><path class="cls-3" d="M206.5071,426.3359c.0882-.004.18,0,.2706,0,1.8257,0,3.0127.6913,3.5717,2.07l.2841,1.177v.1624a4.7344,4.7344,0,0,1-1.1771,3.1252q1.509.1677,4.7489,2.9088,3.5769,2.9622,3.5716,6.6563c0,2.0866-1.106,4.3929-3.3417,6.9269a6.7971,6.7971,0,0,0,.5547,2.2323,12.6889,12.6889,0,0,1,.5547,2.124q0,1.9-3.964,2.4082a16.4274,16.4274,0,0,0,5.3709,1.0552l3.2876-.1623q2.7385,0,4.5864,3.5175l-1.894,2.9088A4.8007,4.8007,0,0,1,220.97,465.07c-.1474-.7369-1.21-1.2031-3.1794-1.3935v-.0135c-.0575-.0181-.6466-.0733-1.7452-.1624q-6.9863-.6707-9.2673-2.9629c-1.4532,1.4532-3.6586,2.3569-6.6022,2.6923-1.1923.1118-3.2831.3613-6.264.7712-.7825.149-1.2277.51-1.3394,1.0688q-1.062-.2794-3.1253-3.4635c-.3353-.5216-.5815-.8824-.7305-1.0688q1.8444-3.5211,4.5864-3.5175l3.3011.1623a16.7166,16.7166,0,0,0,5.3575-1.0553q-3.9683-.503-3.964-2.4081l1.123-4.2482v-.1082q-3.3535-3.6888-3.3552-6.9269,0-3.6888,3.6257-6.71,3.1859-2.6827,4.6947-2.8546a4.8967,4.8967,0,0,1-1.2311-3.1253,3.0827,3.0827,0,0,1,2.57-3.247,4.9848,4.9848,0,0,1,1.0823-.1623Z"/><path class="cls-3" d="M206.5882,428.4042a1.5868,1.5868,0,0,0-1.4341,1.0553,1.533,1.533,0,0,0-.1082.5682,1.5705,1.5705,0,0,0,1.2176,1.6235,2.18,2.18,0,0,0,.5141.0541,1.6084,1.6084,0,0,0,1.6776-1.177,2.07,2.07,0,0,0,.0541-.5006,1.5026,1.5026,0,0,0-1.1229-1.5153,1.9129,1.9129,0,0,0-.6088-.1082C206.7165,428.4042,206.6464,428.4,206.5882,428.4042Z"/><path class="cls-3" d="M206.5881,433.8819a11.9694,11.9694,0,0,0-5.2359,2.7328q-3.2976,2.571-3.5716,5.371c.2608,1.9375.6587,3.1582,1.2176,3.68a2.68,2.68,0,0,0,.5141.3923c.9315.6335,3.3358.9606,7.2109.9606,4.1731,0,6.7121-.3945,7.6438-1.1771.6334-.4843,1.1089-1.7691,1.407-3.8557q-.2794-2.7947-3.6393-5.3709a11.6955,11.6955,0,0,0-5.4792-2.7329c-.0227.0029-.0447-.0033-.0676,0Z"/><path class="cls-3" d="M205.7629,437.2371h2.0158v2.3946h1.8941V441.81h-1.8941v2.4623h-2.0158V441.81h-1.894v-2.1781h1.894Z"/><path class="cls-3" d="M200.676,448.3071a3.1132,3.1132,0,0,1,.3923,1.3394,2.6623,2.6623,0,0,1-.3382,1.3935,23.9707,23.9707,0,0,1,6.0476-.5006,23.8489,23.8489,0,0,1,6.0342.5006,2.66,2.66,0,0,1-.3382-1.3935,2.971,2.971,0,0,1,.3382-1.3394,48.308,48.308,0,0,1-6.0342.3247A42.9324,42.9324,0,0,1,200.676,448.3071Z"/><path class="cls-3" d="M206.0741,452.1612c-1.3028.0344-2.8895.1723-4.7758.3924a1.1786,1.1786,0,0,0-1.1229,1.0552c0,.007,0,.02,0,.0271s.0113.0305.0136.0406l.0135.0406.0135.027a.4871.4871,0,0,0,.0406.0677.5636.5636,0,0,0,.0541.0541,6.0241,6.0241,0,0,0,2.9088.5817l-.0406-.0135-.0136-.0135h-.0135v-.0135h.0271a2.363,2.363,0,0,1,.2976-.0136h3.3011c3.9507,0,6.11-.221,6.48-.6494a.3376.3376,0,0,0,.0406-.0676.2374.2374,0,0,0,.0135-.0677c0-.8569-1.0859-1.3189-3.2469-1.3934h-1.61a11.4664,11.4664,0,0,1-1.2311-.0542h-.4465C206.5564,452.1612,206.3154,452.1549,206.0741,452.1612Z"/><path class="cls-3" d="M206.5881,455.68a11.8425,11.8425,0,0,0-2.8952,1.9617,11.4464,11.4464,0,0,1-5.5874,1.3935,28.4669,28.4669,0,0,0-4.4644.2706c-1.1923.2608-1.7858.77-1.7858,1.5152.1118.7452.4928,1.123,1.1635,1.123l2.9629-.4465a25.6243,25.6243,0,0,0,6.1017-.7847q3.6328-.95,4.6947-3.017,1.5088,2.9624,7.82,3.5717s.4789.081,1.4477.23h1.4611l3.017.4464c.6707,0,1.0652-.3777,1.1771-1.1229,0-.7452-.6071-1.2544-1.7994-1.5153l-5.98-.4464a10.2171,10.2171,0,0,1-5.4657-2.2323,3.4535,3.4535,0,0,0-1.7994-.947h-.0135a.4878.4878,0,0,0-.0541,0Z"/><path d="M206.7725,448.6361a42.4977,42.4977,0,0,1-6.0922-.3353,3.1186,3.1186,0,0,1,.3913,1.3413,2.6772,2.6772,0,0,1-.3354,1.3973,23.8361,23.8361,0,0,1,6.0364-.503,23.8362,23.8362,0,0,1,6.0363.503,2.6746,2.6746,0,0,1-.3353-1.3973,2.9742,2.9742,0,0,1,.3353-1.3413,48.1848,48.1848,0,0,1-6.0363.3353m0-20.2326a1.62,1.62,0,0,0-1.6209,1.062,1.4935,1.4935,0,0,0-.1118.5589,1.5778,1.5778,0,0,0,1.23,1.6208,2.0758,2.0758,0,0,0,.5031.0559,1.6047,1.6047,0,0,0,1.6767-1.1737,2.0861,2.0861,0,0,0,.0559-.503,1.4912,1.4912,0,0,0-1.1178-1.5091,1.96,1.96,0,0,0-.6148-.1118m0,23.7536a49.2147,49.2147,0,0,0-5.4775.3912,1.18,1.18,0,0,0-1.1178,1.0619q0,.6708,3.074.8384-.2794-.0558.2236-.0559h3.2976q6.5394,0,6.5394-.7824,0-1.2855-3.2417-1.3973h-1.6208a11.3871,11.3871,0,0,1-1.23-.0559h-.4471m-.0559-5.1419q6.26,0,7.6573-1.1737.95-.7266,1.3972-3.8565-.2794-2.7945-3.6329-5.3657a11.71,11.71,0,0,0-5.4775-2.7387,11.7955,11.7955,0,0,0-5.3094,2.7387q-3.2976,2.571-3.5771,5.3657.3912,2.9064,1.23,3.6888a2.5886,2.5886,0,0,0,.503.3912q1.3972.95,7.21.95m-.95-2.7387v-2.4592h-1.9v-2.18h1.9v-2.4033h2.0121v2.4033h1.9v2.18h-1.9v2.4592h-2.0121m.8943,11.4016q-.5031,0-2.9622,1.9562a11.4479,11.4479,0,0,1-5.5892,1.3973,28.3852,28.3852,0,0,0-4.4713.2795q-1.7884.3912-1.7885,1.509.1677,1.1178,1.1737,1.1178l2.9623-.4471a25.5465,25.5465,0,0,0,6.0922-.7824q3.6328-.95,4.6947-3.0182,1.5088,2.9624,7.8247,3.5771l1.4532.2235h1.4532l3.0181.4472q1.0061,0,1.1737-1.1178,0-1.1179-1.7885-1.5091l-5.98-.4471a10.258,10.258,0,0,1-5.4774-2.2357,3.4445,3.4445,0,0,0-1.7886-.95m.1118,4.8626q-2.18,2.18-6.5952,2.6828-1.7886.1677-6.26.7825-1.1736.2235-1.3414,1.0619-1.0618-.2794-3.13-3.4653-.503-.7824-.7265-1.0619,1.8444-3.5211,4.583-3.5211l3.2975.1676a16.7919,16.7919,0,0,0,5.3658-1.0619q-3.9684-.503-3.9683-2.4033l1.1178-4.2477v-.1118q-3.3534-3.6889-3.3535-6.93,0-3.6888,3.633-6.7069,3.1857-2.6829,4.6947-2.8505a4.9053,4.9053,0,0,1-1.23-3.13,3.0777,3.0777,0,0,1,2.571-3.2417,5.0928,5.0928,0,0,1,1.3413-.1677q2.7387,0,3.5771,2.068l.2794,1.1737v.1677a4.7434,4.7434,0,0,1-1.1737,3.13q1.509.1677,4.751,2.9063,3.5769,2.9623,3.577,6.6511,0,3.13-3.3535,6.93a6.8421,6.8421,0,0,0,.5589,2.2356,12.4029,12.4029,0,0,1,.5589,2.1239q0,1.9-3.9682,2.4033a16.4215,16.4215,0,0,0,5.3657,1.0619l3.2976-.1676q2.7385,0,4.583,3.5211l-1.9,2.9063a4.78,4.78,0,0,1-1.9562,1.6209q-.2236-1.1178-3.2417-1.3973a8.5228,8.5228,0,0,0-1.6768-.1677q-6.9861-.6706-9.2776-2.9622"/><path class="cls-3" d="M402.1648,429.2472h.0677a5.0857,5.0857,0,0,1,2.4623,2.6923l.6088,1.84a4.9062,4.9062,0,0,1,.9471-.1082q4.4712,0,8.8343,5.6956,5.0861,6.6512,5.087,18.2237a43.9659,43.9659,0,0,1-.23,4.6947H396.523a13.3539,13.3539,0,0,1,2.9088-7.3866q2.0679-2.7945,2.4623-3.4093a6.5706,6.5706,0,0,0,.947-2.9494,12.8224,12.8224,0,0,0-5.6415,4.4644l-.7846,1.2853a8.975,8.975,0,0,1-1.0553,1.5152,1.112,1.112,0,0,1-.7306.2706,2.3915,2.3915,0,0,1-2.3405-1.177.6662.6662,0,0,1-.1082-.2571.8091.8091,0,0,1-.0136-.1217,2.433,2.433,0,0,1-1.1093.2705q-2.6827,0-4.2482-3.3552.4473-2.4591,4.6947-11.3375c.2981-.559.5139-1.0041.663-1.3394a15.6291,15.6291,0,0,0,1.6776-5.655c0-.1863-.1146-1.2249-.3383-3.1252h.4465a9.9541,9.9541,0,0,1,5.7636,1.8941q1.4619-2.5449,2.4487-2.6247Z"/><path class="cls-3" d="M395.3245,431.7626a4.7014,4.7014,0,0,1,.2165,1.0688,6.1463,6.1463,0,0,1-.1624.8929,5.5069,5.5069,0,0,0,2.4624-.8929A13.86,13.86,0,0,0,395.3245,431.7626Z"/><path class="cls-3" d="M402.1242,431.762c-.4471,1.3414-1.83,2.3936-4.14,3.1388a8.612,8.612,0,0,0-2.5706,1.1094,69.7779,69.7779,0,0,1-3.6393,7.9415q-2.9622,5.9246-3.1252,7.0351a2.8347,2.8347,0,0,0,1.7858,1.9617,2.878,2.878,0,0,0,1.0688.2165h.1218a8.668,8.668,0,0,0,1.2177-.6629,1.0944,1.0944,0,0,1,.5546-.23h.23a.31.31,0,0,1,.1489.0406.327.327,0,0,1,.1217.2976l-.3247,1.0688c0,.3354.25.5006.7712.5006h.0135l.0135-.0135a16.25,16.25,0,0,0,1.38-1.9482,15.2685,15.2685,0,0,1,6.981-5.75,11.1407,11.1407,0,0,1,2.2323-5.3169,1.1866,1.1866,0,0,1,.8929-.6088.5444.5444,0,0,1,.2435.0541c.1733.0979.2706.3148.2706.6629v.0136c-.02.1658-.365,1.23-1.0147,3.1793a7.3313,7.3313,0,0,0-.3923,1.8941,5.5222,5.5222,0,0,0,.1218.7305q0,3.9682-3.3553,8.3339a11.5987,11.5987,0,0,0-2.4622,4.8028h18.44c.1491-1.7139.23-2.9819.23-3.8016q0-11.5137-7.211-18.386-2.18-2.0121-3.5176-2.0158H403.856c-.2981-.1491-.5947-.891-.8929-2.2323a3.66,3.66,0,0,0-.8388-2.0159Z"/><path class="cls-3" d="M397.1428,438.473c.0571-.0041.1065,0,.1624,0,.7825,0,1.2108.263,1.2853.7847,0,.8569-.661,1.68-2.0023,2.4622a3.7018,3.7018,0,0,1-1.7318.5547c-.5216,0-.7847-.3136-.7847-.947a2.8055,2.8055,0,0,1,1.7859-2.4623,3.4734,3.4734,0,0,1,1.2852-.3924Z"/><path class="cls-3" d="M390.6922,449.0928c.0458-.0041.0863,0,.1353,0,.5216,0,.7847.3473.7847,1.0552a1.2392,1.2392,0,0,1-1.3935,1.407.5051.5051,0,0,1-.3517-.1352,1.0765,1.0765,0,0,1-.2165-.7577,1.8768,1.8768,0,0,1,.3517-1.2446,1.1592,1.1592,0,0,1,.0947-.0947,1.0555,1.0555,0,0,1,.5953-.23Z"/><path d="M390.8221,449.0884q.7824,0,.7824,1.0619a1.235,1.235,0,0,1-1.3973,1.3973q-.5587,0-.5588-.8942,0-1.5651,1.1737-1.565m4.0241-6.8186q-.7824,0-.7825-.95a2.805,2.805,0,0,1,1.7886-2.4592,3.2746,3.2746,0,0,1,1.4531-.3913q1.1737,0,1.2855.7825,0,1.2855-2.012,2.4592a3.7178,3.7178,0,0,1-1.7326.559m.4471-10.5077a4.8124,4.8124,0,0,1,.2236,1.0619,6.025,6.025,0,0,1-.1677.8943,5.5034,5.5034,0,0,0,2.4592-.8943,13.752,13.752,0,0,0-2.5151-1.0619m-6.6511,19.2264a2.8312,2.8312,0,0,0,1.7885,1.9562,2.86,2.86,0,0,0,1.0619.2236h.1118a7.49,7.49,0,0,0,1.23-.6707,1.0857,1.0857,0,0,1,.5589-.2236h.2235q.28,0,.2795.3354l-.3353,1.0619q0,.503.7824.503a12.3691,12.3691,0,0,0,1.3973-1.9562,15.297,15.297,0,0,1,6.9862-5.7566,11.1178,11.1178,0,0,1,2.2356-5.31,1.1991,1.1991,0,0,1,.8943-.6148q.5029,0,.503.7266,0,.1677-1.0061,3.1858a7.3513,7.3513,0,0,0-.3912,1.9,4.9052,4.9052,0,0,0,.1117.7266q0,3.9682-3.3534,8.3278a11.5919,11.5919,0,0,0-2.4592,4.8069h18.4441q.2237-2.5712.2235-3.8006,0-11.5138-7.21-18.3883-2.18-2.0121-3.5212-2.0121h-3.3534q-.4472-.2236-.8943-2.2356a3.6446,3.6446,0,0,0-.8383-2.0121q-.6708,2.0121-4.136,3.13a8.5833,8.5833,0,0,0-2.571,1.1178,69.3749,69.3749,0,0,1-3.6329,7.9365q-2.9622,5.9244-3.13,7.0425m31.2992,11.29H396.5227a13.3234,13.3234,0,0,1,2.9063-7.3775q2.0681-2.7946,2.4593-3.4094a6.6266,6.6266,0,0,0,.95-2.9622,12.8445,12.8445,0,0,0-5.6449,4.4713l-.7825,1.2855a8.6341,8.6341,0,0,1-1.062,1.509,1.1127,1.1127,0,0,1-.7266.28,2.4008,2.4008,0,0,1-2.3474-1.1737.689.689,0,0,1-.1117-.3913,2.481,2.481,0,0,1-1.1179.28q-2.6827,0-4.2477-3.3535.447-2.4591,4.6946-11.3458.4473-.8383.6708-1.3413a15.5872,15.5872,0,0,0,1.6768-5.645q0-.2794-.3354-3.13h.4472a9.94,9.94,0,0,1,5.7566,1.9q1.5091-2.627,2.5151-2.6269a5.062,5.062,0,0,1,2.4593,2.6828l.6147,1.8444a4.9766,4.9766,0,0,1,.95-.1118q4.4714,0,8.8309,5.7008,5.086,6.6511,5.0861,18.2207a44.0868,44.0868,0,0,1-.2236,4.6947"/><path class="cls-3" d="M441.5248,85.1607h3.964l1.0011.9471v1.3935h2.124V86.1078l.9606-.9471h6.1961l.9471.9471v1.3935h2.124V86.1078l.9606-.9471H463.82l1.5694,1.5559v4.9787l-4.37,4.3022v11.1211l5.6549,5.5874v3.9776l-1.1229,1.0552H439.7249l-1.0553-1.0552V112.706l5.6415-5.5874V95.9975l-4.3561-4.3022V86.7166l1.5694-1.5559Z"/><path class="cls-3" d="M446.326,95.7805v1.8941h12.69V95.7805Z"/><path class="cls-3" d="M446.326,105.8331v1.9076h12.69v-1.9076Z"/><path d="M439.7324,117.743l-1.0619-1.0619v-3.9683l5.645-5.5891V96.0013l-4.36-4.3036V86.7233l1.5649-1.5649h3.9683l1.0061.95v1.3973h2.1238V86.1085l.95-.95h6.2039l.95.95v1.3973h2.1239V86.1085l.95-.95h4.0242l1.565,1.5649v4.9744l-4.36,4.3036v11.1224l5.645,5.5891v3.9683l-1.1178,1.0619H439.7322m6.5953-11.9047v1.9h12.6874v-1.9H446.3275m0-10.06v1.9h12.6874v-1.9H446.3275"/><path class="cls-3" d="M354.0982,82c.069-.0028.1466,0,.2165,0,1.863,0,3.0668.6913,3.6258,2.07l.2841,1.1771v.1623a5.0888,5.0888,0,0,1-1.2312,3.1388,12.0968,12.0968,0,0,1,3.1929,1.7317q5.1418,3.5769,5.141,7.8741,0,3.2417-3.3552,7.1027l1.1094,4.3022q0,1.9562-3.964,2.2864a15.1969,15.1969,0,0,0,5.4251,1.1229c.2235,0,1.3262-.0641,3.301-.1759a4.6266,4.6266,0,0,1,4.0181,2.5841c.1491.2981.3311.6285.5547,1.0012l-2.0023,3.0711a4.2106,4.2106,0,0,1-1.9076,1.4476c-.1491-.7825-1.3361-1.2613-3.5716-1.4476l-1.3394-.1082q-6.8745-.5589-9.2812-2.9629-2.18,2.2914-6.6563,2.6246c-.6707.0745-1.5441.1892-2.6246.3382q-4.08.3354-4.7488,1.1771a1.1849,1.1849,0,0,0-.1759.3788,6.3218,6.3218,0,0,1-2.7329-2.787,12.9029,12.9029,0,0,0-1.177-1.7317q1.509-2.7945,3.2469-3.3552a3.8856,3.8856,0,0,1,1.3394-.23s1.1028.0641,3.3011.1759a14.883,14.883,0,0,0,5.4251-1.123c-2.6455-.2235-3.9776-.9823-3.9776-2.2864v-.027c.035-.2031.334-1.1508.893-2.8276a5.1549,5.1549,0,0,0,.2841-1.2311q-3.41-4.1359-3.4094-7.3191,0-3.6889,3.6258-6.7105c2.1611-1.8258,3.7257-2.7834,4.6947-2.8952a4.9116,4.9116,0,0,1-1.2176-3.1387,3.035,3.035,0,0,1,2.6246-3.2335A4.7413,4.7413,0,0,1,354.0978,82Z"/><path class="cls-3" d="M354.0717,84.2992a1.2489,1.2489,0,0,0-1.15,1.0012l-.0676.3382a1.2926,1.2926,0,0,0,1.1229,1.3394,1.0708,1.0708,0,0,0,.3382.0541,1.3332,1.3332,0,0,0,1.15-.4735,1.5713,1.5713,0,0,0,.2435-.92c0-.8943-.462-1.3394-1.3935-1.3394C354.2337,84.2992,354.1465,84.2912,354.0717,84.2992Z"/><path class="cls-3" d="M353.3016,92.9573v2.4081h-1.9482V97.49h1.9482v2.57h2.0158V97.49h1.9617V95.3654h-1.9617V92.9573Z"/><path class="cls-3" d="M351.1359,102.8475a4.3033,4.3033,0,0,0-2.1647.4059c-.0157.0124-.0406.0276-.0541.0406a.6184.6184,0,0,0-.0541.0676c-.0038.0057-.01.0214-.0135.0271l-.0136.0135-.0135.0136c-.0043.0049-.0094.0218-.0135.027l-.0135.0136c-.0037.0056-.01.021-.0136.027a.58.58,0,0,0-.0406.0812c-.0051.0182-.01.0476-.0135.0676a.85.85,0,0,0,0,.1083c0,.41.381.656,1.1635.7305a42.7155,42.7155,0,0,0,4.424.1624,44.1191,44.1191,0,0,0,4.4646-.1624c.7452-.0745,1.1228-.3207,1.1229-.7305,0-.5962-.9544-.893-2.8546-.893h-5.4793C351.4151,102.8475,351.2768,102.8443,351.1359,102.8475Z"/><path class="cls-3" d="M351.3118,106.311c-1.7264.0266-2.5841.3247-2.5841.8929a.5988.5988,0,0,0,0,.0947.6727.6727,0,0,0,.0271.0677.5633.5633,0,0,0,.027.0676l.0271.0406a.8078.8078,0,0,0,.0676.0812l.0406.04a4.4533,4.4533,0,0,0,2.327.5683h3.0711c3.726,0,5.5874-.3272,5.5875-.9606a.5263.5263,0,0,0-.027-.1488.6084.6084,0,0,0-.0542-.1218c-.2705-.4088-1.2-.6223-2.7734-.6223h-5.7363Z"/><path d="M351.5742,106.3132q-2.85,0-2.85.8942,0,.7825,2.5151.95h3.074q5.589,0,5.5891-.95,0-.8943-2.85-.8942h-5.4774m0-3.4653q-2.4594,0-2.7387.5589a.4547.4547,0,0,0-.1118.3354q0,.6147,1.1737.7265a42.19,42.19,0,0,0,4.4155.1677,43.9343,43.9343,0,0,0,4.4713-.1677q1.1176-.1118,1.1178-.7265,0-.8943-2.8505-.8943h-5.4774m10.3959,2.4033,1.1178,4.3036q0,1.9563-3.9682,2.2916a15.1649,15.1649,0,0,0,5.4216,1.1178q.3354,0,3.2976-.1677a4.6207,4.6207,0,0,1,4.0241,2.571q.2235.4471.559,1.006l-2.0121,3.0741a4.21,4.21,0,0,1-1.9,1.4531q-.2236-1.1736-3.577-1.4531l-1.3414-.1118q-6.8745-.5589-9.2781-2.9622-2.18,2.2914-6.6511,2.6268-1.0061.1119-2.6269.3354-4.08.3352-4.751,1.1737a1.2415,1.2415,0,0,0-.1676.3912,6.3534,6.3534,0,0,1-2.7387-2.7945,12.8918,12.8918,0,0,0-1.1738-1.7327q1.5091-2.7945,3.2417-3.3534a3.8963,3.8963,0,0,1,1.3414-.2236l3.2976.1677a14.8565,14.8565,0,0,0,5.4216-1.1178q-3.9682-.3354-3.9683-2.2916,0-.1676.8943-2.85a5.06,5.06,0,0,0,.2794-1.23q-3.4094-4.1359-3.4093-7.3217,0-3.689,3.6329-6.707,3.2415-2.7387,4.6947-2.9063a4.9057,4.9057,0,0,1-1.23-3.13,3.0446,3.0446,0,0,1,2.6269-3.2417,4.8629,4.8629,0,0,1,1.2855-.1677q2.7943,0,3.6329,2.068l.2794,1.1737V85.41a5.0629,5.0629,0,0,1-1.23,3.13,12.0985,12.0985,0,0,1,3.1858,1.7326q5.142,3.577,5.1419,7.8806,0,3.2418-3.3534,7.0984m-6.6511-5.1978v-2.571h1.9562V95.3587h-1.9562V92.9554h-2.0121v2.4033H351.35v2.1239h1.9562v2.571h2.0121m-1.0061-15.7612a1.2972,1.2972,0,0,0-1.3972,1.006l-.0559.3353a1.29,1.29,0,0,0,1.1178,1.3414,1.0531,1.0531,0,0,0,.3353.0559,1.235,1.235,0,0,0,1.3973-1.3973q0-1.3413-1.3973-1.3413"/><path class="cls-3" d="M156.1963,84.9911a.5628.5628,0,0,1,.0811,0,5.41,5.41,0,0,1,2.3541,2.1781,19.6043,19.6043,0,0,1,.8388,2.3541,3.6759,3.6759,0,0,1,.8929-.1218q4.6948,0,8.9426,5.7632,5.0862,6.6512,5.0869,18.1017a43.3843,43.3843,0,0,1-.23,4.64H150.5815a11.9,11.9,0,0,1,2.7329-7.0892,7.5321,7.5321,0,0,1,.7846-1.0147,15.0552,15.0552,0,0,0,2.5164-4.0181,9.9543,9.9543,0,0,0,.3383-1.5153,11.249,11.249,0,0,0-5.5333,4.3023c-.5589.9315-1.1828,1.9027-1.8535,2.9088a1.0344,1.0344,0,0,1-.2029.2435.9933.9933,0,0,1-.6359.2029c-.9315,0-1.3935-.5766-1.3935-1.7317a1.612,1.612,0,0,1-1.2853.7306s-.3777-.0979-1.1229-.2841a5.5336,5.5336,0,0,1-3.4094-2.1241,10.4859,10.4859,0,0,1-.717-1.3394q.3912-2.4033,3.8558-9.5513a49.82,49.82,0,0,0,3.1252-7.3866,14.1215,14.1215,0,0,0,.0541-1.4477,29.107,29.107,0,0,0-.27-3.017c.0745,0,.2565-.0169.5546-.0541a10.684,10.684,0,0,1,5.371,1.6776l.3247.2165q1.5448-2.5038,2.3811-2.6247Z"/><path class="cls-3" d="M159.0233,91.866a.7266.7266,0,0,0-.1759.1082.8938.8938,0,0,0-.5141.1353.5807.5807,0,0,0-.2165.4871.916.916,0,0,0,.3383.5546q3.018.2795,6.6021,4.3023,4.5273,5.2537,4.519,15.2066v.3383c0,1.6395.3608,2.4623,1.0688,2.4623.5962,0,.9266-.4924,1.0011-1.4612v-2.07q0-9.11-4.6405-14.9227-4.0242-5.03-7.3192-5.0328l-.6629-.1082Z"/><path class="cls-3" d="M150.7283,94.2211a3.2422,3.2422,0,0,0-2.3946,1.3936,2.1452,2.1452,0,0,0-.5546,1.3935c0,.6707.2461,1.0147.7305,1.0147a4.35,4.35,0,0,0,2.9629-1.6235,2.3111,2.3111,0,0,0,.8388-1.4611c0-.4844-.4451-.7171-1.3394-.7171-.0815,0-.164-.0056-.2435,0Z"/><path class="cls-3" d="M144.0055,105.394a1.7082,1.7082,0,0,0-1.5829,1.177,1.4885,1.4885,0,0,0-.1218.5547,1.3348,1.3348,0,0,0,.1759.5547,1.6314,1.6314,0,0,0,1.7858-1.2312,1.2466,1.2466,0,0,0,.0542-.3923,5.2222,5.2222,0,0,0-.1083-.6629C144.1386,105.394,144.0717,105.3892,144.0055,105.394Z"/><path d="M148.5074,98.0136a4.3442,4.3442,0,0,0,2.9622-1.6208,2.2959,2.2959,0,0,0,.8384-1.4532q0-.7266-1.3414-.7266A3.1917,3.1917,0,0,0,148.34,95.61a2.16,2.16,0,0,0-.559,1.3972q0,1.0061.7266,1.0061m-.95-12.24q.1118,0,.5589-.0559a10.6656,10.6656,0,0,1,5.3657,1.6767l.3354.2236q1.6207-2.627,2.4591-2.6269a5.39,5.39,0,0,1,2.3475,2.18,19.3664,19.3664,0,0,1,.8383,2.3475,3.6714,3.6714,0,0,1,.8943-.1118q4.6949,0,8.9426,5.7567,5.086,6.651,5.0861,18.1086a43.4867,43.4867,0,0,1-.2236,4.6388h-23.586a11.9325,11.9325,0,0,1,2.7386-7.0983,7.495,7.495,0,0,1,.7825-1.0061,15.0518,15.0518,0,0,0,2.5151-4.0241,9.8858,9.8858,0,0,0,.3354-1.5091,11.2514,11.2514,0,0,0-5.5333,4.3036q-.8384,1.3972-1.8444,2.9063a.9238.9238,0,0,1-.8384.4472q-1.3973,0-1.3973-1.7327a1.6071,1.6071,0,0,1-1.2855.7266l-1.1178-.2794a5.5337,5.5337,0,0,1-3.4094-2.1239,10.4187,10.4187,0,0,1-.7265-1.3414q.3912-2.4033,3.8565-9.5574a50,50,0,0,0,3.13-7.3775,14.1671,14.1671,0,0,0,.0559-1.4532,29.9839,29.9839,0,0,0-.28-3.0181m-3.3535,19.6178a1.7378,1.7378,0,0,0-1.7885,1.1737,1.4955,1.4955,0,0,0-.1118.5589,1.3176,1.3176,0,0,0,.1677.5589,1.6333,1.6333,0,0,0,1.7885-1.23,1.237,1.237,0,0,0,.0559-.3912,5.5967,5.5967,0,0,0-.1117-.6707m27.4425,8.6071V111.93q0-9.11-4.6388-14.9231-4.0242-5.03-7.3217-5.03l-.6708-.1118a.6515.6515,0,0,0-.1677.1118q-.7264,0-.7265.6148a.9153.9153,0,0,0,.3353.5589q3.018.2795,6.5952,4.3036,4.5272,5.2537,4.5272,15.2024v.3353q0,2.4592,1.0619,2.4592.8943,0,1.006-1.4532"/><path d="M391.562,167.0574q-.0558-.6706-.0558-2.6269,0-7.0423,4.36-10.452a15.5535,15.5535,0,0,1,3.13-1.9562,4.4672,4.4672,0,0,1-2.9623-3.2976,6.6974,6.6974,0,0,1-.2235-1.7326q0-3.7448,3.8565-5.31a6.2236,6.2236,0,0,1-1.006-3.1858,3.9765,3.9765,0,0,1,2.4592-3.7447,5.3,5.3,0,0,1,2.4034-.5589,4.5168,4.5168,0,0,1,4.136,2.18,3.8275,3.8275,0,0,1,.6148,2.1239,6.0753,6.0753,0,0,1-.95,3.1858,6.0785,6.0785,0,0,1,2.9622,2.2356,5.9664,5.9664,0,0,1,.8943,3.0739,5.1767,5.1767,0,0,1-2.0121,4.4155,2.7616,2.7616,0,0,1-1.1178.6148q5.142,2.6268,6.6511,6.8747a17.5464,17.5464,0,0,1,.7825,5.5333q0,1.9562-.0559,2.6269h-23.866"/><path d="M342.382,167.0574q-.0558-.6706-.0558-2.6269,0-7.0423,4.36-10.452a15.5535,15.5535,0,0,1,3.13-1.9562,4.4669,4.4669,0,0,1-2.9622-3.2976,6.6974,6.6974,0,0,1-.2235-1.7326q0-3.7448,3.8565-5.31a6.2257,6.2257,0,0,1-1.0061-3.1858,3.9766,3.9766,0,0,1,2.4592-3.7447,5.3,5.3,0,0,1,2.4034-.5589,4.5168,4.5168,0,0,1,4.136,2.18,3.8267,3.8267,0,0,1,.6148,2.1239,6.0735,6.0735,0,0,1-.95,3.1858,6.079,6.079,0,0,1,2.9622,2.2356A5.9654,5.9654,0,0,1,362,146.992a5.177,5.177,0,0,1-2.0121,4.4155,2.7616,2.7616,0,0,1-1.1178.6148q5.142,2.6268,6.6511,6.8747a17.5464,17.5464,0,0,1,.7825,5.5333q0,1.9562-.0559,2.6269h-23.866"/><path d="M293.202,167.0574q-.0558-.6706-.0558-2.6269,0-7.0423,4.3595-10.452a15.5535,15.5535,0,0,1,3.13-1.9562,4.4669,4.4669,0,0,1-2.9622-3.2976,6.6974,6.6974,0,0,1-.2235-1.7326q0-3.7448,3.8565-5.31a6.2236,6.2236,0,0,1-1.006-3.1858,3.9765,3.9765,0,0,1,2.4592-3.7447,5.3,5.3,0,0,1,2.4033-.5589,4.5167,4.5167,0,0,1,4.136,2.18,3.8275,3.8275,0,0,1,.6148,2.1239,6.0753,6.0753,0,0,1-.95,3.1858,6.0793,6.0793,0,0,1,2.9623,2.2356,5.9673,5.9673,0,0,1,.8943,3.0739,5.177,5.177,0,0,1-2.0121,4.4155,2.7616,2.7616,0,0,1-1.1178.6148q5.142,2.6268,6.6511,6.8747a17.5464,17.5464,0,0,1,.7825,5.5333q0,1.9562-.0559,2.6269h-23.866"/><path d="M244.022,167.0574q-.0558-.6706-.0558-2.6269,0-7.0423,4.36-10.452a15.5535,15.5535,0,0,1,3.13-1.9562,4.4669,4.4669,0,0,1-2.9622-3.2976,6.6974,6.6974,0,0,1-.2235-1.7326q0-3.7448,3.8565-5.31a6.2248,6.2248,0,0,1-1.0061-3.1858,3.9765,3.9765,0,0,1,2.4592-3.7447,5.3,5.3,0,0,1,2.4033-.5589,4.5168,4.5168,0,0,1,4.136,2.18,3.8275,3.8275,0,0,1,.6148,2.1239,6.0753,6.0753,0,0,1-.95,3.1858,6.0793,6.0793,0,0,1,2.9623,2.2356,5.9673,5.9673,0,0,1,.8943,3.0739,5.177,5.177,0,0,1-2.0121,4.4155,2.7622,2.7622,0,0,1-1.1178.6148q5.142,2.6268,6.6511,6.8747a17.5437,17.5437,0,0,1,.7824,5.5333q0,1.9562-.0559,2.6269H244.0218"/><path d="M194.842,167.0574q-.0558-.6706-.0558-2.6269,0-7.0423,4.3595-10.452a15.5535,15.5535,0,0,1,3.13-1.9562,4.4669,4.4669,0,0,1-2.9622-3.2976,6.6974,6.6974,0,0,1-.2235-1.7326q0-3.7448,3.8565-5.31a6.2236,6.2236,0,0,1-1.006-3.1858,3.9765,3.9765,0,0,1,2.4592-3.7447,5.3,5.3,0,0,1,2.4033-.5589,4.5168,4.5168,0,0,1,4.136,2.18,3.8275,3.8275,0,0,1,.6148,2.1239,6.0753,6.0753,0,0,1-.95,3.1858,6.0785,6.0785,0,0,1,2.9622,2.2356,5.9664,5.9664,0,0,1,.8943,3.0739,5.1765,5.1765,0,0,1-2.0121,4.4155,2.7616,2.7616,0,0,1-1.1178.6148q5.142,2.6268,6.6511,6.8747a17.5464,17.5464,0,0,1,.7825,5.5333q0,1.9562-.0559,2.6269h-23.866"/><path d="M145.658,167.0574q-.0558-.6706-.0558-2.6269,0-7.0423,4.3595-10.452a15.5535,15.5535,0,0,1,3.13-1.9562,4.4672,4.4672,0,0,1-2.9623-3.2976,6.6974,6.6974,0,0,1-.2235-1.7326q0-3.7448,3.8565-5.31a6.2236,6.2236,0,0,1-1.006-3.1858,3.9765,3.9765,0,0,1,2.4592-3.7447,5.3,5.3,0,0,1,2.4033-.5589,4.5168,4.5168,0,0,1,4.136,2.18,3.8275,3.8275,0,0,1,.6148,2.1239,6.0753,6.0753,0,0,1-.95,3.1858,6.0793,6.0793,0,0,1,2.9623,2.2356,5.9664,5.9664,0,0,1,.8943,3.0739,5.1765,5.1765,0,0,1-2.0121,4.4155,2.7616,2.7616,0,0,1-1.1178.6148q5.142,2.6268,6.6511,6.8747a17.5464,17.5464,0,0,1,.7825,5.5333q0,1.9562-.0559,2.6269h-23.866"/><path d="M96.478,167.0574q-.0558-.6706-.0558-2.6269,0-7.0423,4.3595-10.452a15.5535,15.5535,0,0,1,3.13-1.9562,4.4672,4.4672,0,0,1-2.9623-3.2976,6.6974,6.6974,0,0,1-.2235-1.7326q0-3.7448,3.8565-5.31a6.2236,6.2236,0,0,1-1.006-3.1858,3.9765,3.9765,0,0,1,2.4592-3.7447,5.3,5.3,0,0,1,2.4033-.5589,4.5168,4.5168,0,0,1,4.136,2.18,3.8275,3.8275,0,0,1,.6148,2.1239,6.0753,6.0753,0,0,1-.95,3.1858,6.0793,6.0793,0,0,1,2.9623,2.2356,5.9664,5.9664,0,0,1,.8943,3.0739,5.177,5.177,0,0,1-2.0121,4.4155,2.7616,2.7616,0,0,1-1.1178.6148q5.142,2.6268,6.6511,6.8747A17.5464,17.5464,0,0,1,120.4,164.43q0,1.9562-.0559,2.6269H96.4778"/><polyline class="cls-5" points="30.329 50.87 30.329 515.28 492.156 515.28"/><path d="M36.8331,22.774l-1.84.2227,3.5742,6.9609,3.5743-6.9609-1.8282-.2227V21.2858h5.8594V22.774l-1.4414.2227L39.669,32.3483v4.1953l1.91.3281v1.4766H35.462V36.8717l1.91-.3281V32.1725l-4.9687-9.1758-1.43-.2227V21.2858h5.8594Z"/><path d="M499.3653,509.8912l1.5351-.2578,4.8516-6.8672-4.7344-6.7148-1.5351-.2578v-1.4883h5.5312v1.4883l-1.3711.1523,3.41,5.1211,3.4453-5.1211-1.3711-.1523v-1.4883h5.5664v1.4883l-1.5351.2578-4.7344,6.7148,4.84,6.8672,1.5469.2578v1.4766h-5.52v-1.4766l1.3476-.1523-3.539-5.25-3.5508,5.25,1.3711.1523v1.4766h-5.5547Z"/><line class="cls-6" x1="7.3928" y1="492.8981" x2="53.2651" y2="492.8981"/><line class="cls-7" x1="7.9482" y1="470.8115" x2="52.7096" y2="470.8115"/><line class="cls-7" x1="7.9482" y1="448.7248" x2="52.7096" y2="448.7248"/><line class="cls-7" x1="7.9482" y1="426.6381" x2="52.7096" y2="426.6381"/><line class="cls-7" x1="7.9482" y1="404.5515" x2="52.7096" y2="404.5515"/><line class="cls-7" x1="7.9482" y1="382.4648" x2="52.7096" y2="382.4648"/><line class="cls-7" x1="7.9482" y1="360.3781" x2="52.7096" y2="360.3781"/><line class="cls-7" x1="7.9482" y1="338.2915" x2="52.7096" y2="338.2915"/><line class="cls-7" x1="7.9482" y1="316.2048" x2="52.7096" y2="316.2048"/><line class="cls-7" x1="7.9482" y1="294.1182" x2="52.7096" y2="294.1182"/><line class="cls-7" x1="7.9482" y1="272.0315" x2="52.7096" y2="272.0315"/><line class="cls-7" x1="7.9482" y1="249.9448" x2="52.7096" y2="249.9448"/><line class="cls-7" x1="7.9482" y1="227.8582" x2="52.7096" y2="227.8582"/><line class="cls-7" x1="7.9482" y1="205.7715" x2="52.7096" y2="205.7715"/><line class="cls-7" x1="7.9482" y1="183.6848" x2="52.7096" y2="183.6848"/><line class="cls-7" x1="7.9482" y1="161.5982" x2="52.7096" y2="161.5982"/><line class="cls-7" x1="7.9482" y1="139.5115" x2="52.7096" y2="139.5115"/><line class="cls-7" x1="7.9482" y1="117.4248" x2="52.7096" y2="117.4248"/><line class="cls-7" x1="7.9482" y1="95.3382" x2="52.7096" y2="95.3382"/><line class="cls-7" x1="7.9482" y1="73.2515" x2="52.7096" y2="73.2515"/><line class="cls-6" x1="471.0657" y1="538.2162" x2="471.0657" y2="492.3439"/><line class="cls-7" x1="448.979" y1="537.6607" x2="448.979" y2="492.8994"/><line class="cls-7" x1="426.8924" y1="537.6607" x2="426.8924" y2="492.8994"/><line class="cls-7" x1="404.8057" y1="537.6607" x2="404.8057" y2="492.8994"/><line class="cls-7" x1="382.719" y1="537.6607" x2="382.719" y2="492.8994"/><line class="cls-7" x1="360.6324" y1="537.6607" x2="360.6324" y2="492.8994"/><line class="cls-7" x1="338.5457" y1="537.6607" x2="338.5457" y2="492.8994"/><line class="cls-7" x1="316.4591" y1="537.6607" x2="316.4591" y2="492.8994"/><line class="cls-7" x1="294.3724" y1="537.6607" x2="294.3724" y2="492.8994"/><line class="cls-7" x1="272.2857" y1="537.6607" x2="272.2857" y2="492.8994"/><line class="cls-7" x1="250.1991" y1="537.6607" x2="250.1991" y2="492.8994"/><line class="cls-7" x1="228.1124" y1="537.6607" x2="228.1124" y2="492.8994"/><line class="cls-7" x1="206.0257" y1="537.6607" x2="206.0257" y2="492.8994"/><line class="cls-7" x1="183.9391" y1="537.6607" x2="183.9391" y2="492.8994"/><line class="cls-7" x1="161.8524" y1="537.6607" x2="161.8524" y2="492.8994"/><line class="cls-7" x1="139.7657" y1="537.6607" x2="139.7657" y2="492.8994"/><line class="cls-7" x1="117.6791" y1="537.6607" x2="117.6791" y2="492.8994"/><line class="cls-7" x1="95.5924" y1="537.6607" x2="95.5924" y2="492.8994"/><line class="cls-7" x1="73.5057" y1="537.6607" x2="73.5057" y2="492.8994"/><line class="cls-7" x1="51.4191" y1="537.6607" x2="51.4191" y2="492.8994"/></svg>