<svg xmlns="http://www.w3.org/2000/svg" xmlns:xlink="http://www.w3.org/1999/xlink" width="900" height="706" version="1.1" viewBox="-0.5 -0.5 900 706"><g><path fill="#000" stroke="#000" stroke-linejoin="round" stroke-miterlimit="10" stroke-width="3" d="M 467.08 308.68 L 470.55 313.16 L 274.46 464.68 L 279.59 471.32 L 251.19 479.08 L 265.86 453.56 L 270.99 460.2 Z" opacity=".25" transform="translate(2,3)"/><path fill="#dae8fc" stroke="#6c8ebf" stroke-linejoin="round" stroke-miterlimit="10" stroke-width="3" d="M 467.08 308.68 L 470.55 313.16 L 274.46 464.68 L 279.59 471.32 L 251.19 479.08 L 265.86 453.56 L 270.99 460.2 Z" pointer-events="none"/><path fill="#d4d4d4" fill-opacity=".4" stroke="#9e9e9e" stroke-linecap="round" stroke-linejoin="round" stroke-miterlimit="10" stroke-opacity=".4" stroke-width="5" d="M 4 648 L 3.37 647.69 L 7.86 638.78 L 13.44 630.4 L 17.76 621.4 L 21.51 612.12 L 25.43 602.93 L 30.16 594.13 L 34.91 585.35 L 39.75 576.6 L 43.25 567.2 L 47.54 558.19 L 52.24 549.37 L 57.39 540.79 L 61.27 531.57 L 66.2 522.87 L 69.68 513.46 L 74.84 504.88 L 79.08 495.84 L 83.11 486.7 L 87.72 477.84 L 92.5 469.07 L 96.29 459.82 L 101.71 451.36 L 105.43 442.07 L 110.37 433.37 L 114.2 424.13 L 119.37 415.55 L 123.35 406.39 L 127.36 397.24 L 131.3 388.05 L 135.96 379.22 L 140.93 370.54 L 145.21 361.52 L 149.12 352.33 L 154.44 343.82 L 157.94 334.42 L 162.74 325.66 L 167.16 316.71 L 171.47 307.7 L 176.75 299.18 L 180.56 289.93 L 185.57 281.27 L 189.33 272 L 189.33 271.89 L 199.36 272.1 L 209.38 271.39 L 219.4 271.52 L 229.42 271.29 L 239.44 272.57 L 249.47 272.49 L 259.49 272.41 L 269.51 271.47 L 279.53 271.61 L 289.56 271.81 L 299.58 271.81 L 309.6 271.61 L 319.62 271.83 L 329.64 271.44 L 339.67 271.4 L 349.69 271.52 L 359.71 272.23 L 369.73 272.12 L 379.76 272.67 L 389.78 272.4 L 399.8 271.74 L 409.82 272.39 L 419.84 272.12 L 429.87 271.67 L 439.89 272.63 L 449.91 272.58 L 459.93 271.36 L 469.96 271.64 L 479.98 271.61 L 490 272 L 490.04 272.02 L 485.3 280.81 L 481.58 290.11 L 477 298.97 L 472.47 307.87 L 468.44 317.01 L 463.68 325.79 L 459.52 334.87 L 454.52 343.53 L 450.5 352.68 L 445.26 361.22 L 440.93 370.21 L 436.43 379.12 L 432.47 388.3 L 427.75 397.1 L 424.32 406.54 L 419.27 415.18 L 415.45 424.42 L 410.73 433.22 L 406.47 442.25 L 401.48 450.92 L 397.78 460.22 L 393.3 469.14 L 388.14 477.72 L 383.59 486.61 L 379.15 495.55 L 374.77 504.51 L 370.27 513.43 L 366.61 522.75 L 362.16 531.68 L 358.2 540.86 L 353.09 549.47 L 348.12 558.15 L 344.19 567.34 L 339.53 576.16 L 334.98 585.05 L 330.97 594.2 L 327.28 603.51 L 322.54 612.3 L 318.54 621.46 L 313.59 630.14 L 308.96 638.99 L 304.67 648 L 304.67 647.52 L 294.64 647.95 L 284.62 647.46 L 274.6 648.55 L 264.58 648.74 L 254.56 647.71 L 244.53 648.43 L 234.51 648.28 L 224.49 647.61 L 214.47 647.59 L 204.44 647.82 L 194.42 647.45 L 184.4 647.93 L 174.38 648.48 L 164.36 648.38 L 154.33 648.07 L 144.31 648.64 L 134.29 647.72 L 124.27 647.89 L 114.24 648.53 L 104.22 648.72 L 94.2 648.61 L 84.18 648.44 L 74.16 648.1 L 64.13 648.13 L 54.11 648.21 L 44.09 647.98 L 34.07 647.78 L 24.04 647.99 L 14.02 647.56 L 4 648 Z Z" pointer-events="none" transform="rotate(90,247,460)"/><path fill="#000" stroke="#000" stroke-linejoin="round" stroke-miterlimit="10" stroke-width="3" d="M 472.95 311.26 L 469.38 306.85 L 655.89 155.87 L 650.62 149.35 L 678.83 140.94 L 664.74 166.79 L 659.46 160.27 Z" opacity=".25" transform="translate(2,3)"/><path fill="#dae8fc" stroke="#6c8ebf" stroke-linejoin="round" stroke-miterlimit="10" stroke-width="3" d="M 472.95 311.26 L 469.38 306.85 L 655.89 155.87 L 650.62 149.35 L 678.83 140.94 L 664.74 166.79 L 659.46 160.27 Z" pointer-events="none"/><path fill="#000" stroke="#000" stroke-linejoin="round" stroke-miterlimit="10" stroke-width="3" d="M 469.99 306.79 L 467.36 311.81 L 284.13 215.84 L 280.23 223.27 L 261.33 200.7 L 290.65 203.39 L 286.76 210.82 Z" opacity=".25" transform="translate(2,3)"/><path fill="#f8cecc" stroke="#b85450" stroke-linejoin="round" stroke-miterlimit="10" stroke-width="3" d="M 469.99 306.79 L 467.36 311.81 L 284.13 215.84 L 280.23 223.27 L 261.33 200.7 L 290.65 203.39 L 286.76 210.82 Z" pointer-events="none"/><path fill="#000" stroke="#000" stroke-linejoin="round" stroke-miterlimit="10" stroke-width="3" d="M 467.17 311.5 L 472.83 311.5 L 472.83 521.28 L 481.22 521.28 L 470 548.5 L 458.78 521.28 L 467.17 521.28 Z" opacity=".25" transform="translate(2,3)"/><path fill="#d5e8d4" stroke="#82b366" stroke-linejoin="round" stroke-miterlimit="10" stroke-width="3" d="M 467.17 311.5 L 472.83 311.5 L 472.83 521.28 L 481.22 521.28 L 470 548.5 L 458.78 521.28 L 467.17 521.28 Z" pointer-events="none"/><path fill="#000" stroke="#000" stroke-linejoin="round" stroke-miterlimit="10" stroke-width="3" d="M 472.83 308.5 L 467.17 308.5 L 467.17 48.72 L 458.78 48.72 L 470 21.5 L 481.22 48.72 L 472.83 48.72 Z" opacity=".25" transform="translate(2,3)"/><path fill="#d5e8d4" stroke="#82b366" stroke-linejoin="round" stroke-miterlimit="10" stroke-width="3" d="M 472.83 308.5 L 467.17 308.5 L 467.17 48.72 L 458.78 48.72 L 470 21.5 L 481.22 48.72 L 472.83 48.72 Z" pointer-events="none"/><rect width="60" height="40" x="490" y="0" fill="#f82d2d" stroke="#b85450" pointer-events="none" rx="5"/><g fill="#121212" font-family="Tahoma" font-size="25" font-weight="bold" text-anchor="middle"><text x="518.67" y="29.17">- Y</text></g><g fill="#595959" font-family="Tahoma" font-size="25" font-style="italic" font-weight="bold" text-anchor="middle"><text x="259.5" y="510">+ Z</text></g><g fill="#595959" font-family="Tahoma" font-size="25" font-style="italic" font-weight="bold" text-anchor="middle"><text x="664.5" y="125">- Z</text></g><g fill="#595959" font-family="Tahoma" font-size="25" font-style="italic" font-weight="bold" text-anchor="middle"><text x="699.5" y="480">+ X</text></g><g fill="#595959" font-family="Tahoma" font-size="25" font-style="italic" font-weight="bold" text-anchor="middle"><text x="269.5" y="185">- X</text></g><rect width="65" height="40" x="490" y="540" fill="#f82d2d" stroke="#b85450" pointer-events="none" rx="5"/><g fill="#121212" font-family="Tahoma" font-size="25" font-style="italic" font-weight="bold" text-anchor="middle"><text x="521.17" y="569.17">+ Y</text></g><rect width="175" height="40" x="0" y="630" fill="#000" stroke="#000" opacity=".25" rx="5" transform="translate(2,3)"/><rect width="175" height="40" x="0" y="630" fill="#e8e8e8" stroke="#787878" pointer-events="none" rx="5"/><g fill="#383838" font-family="Tahoma" font-size="25" font-style="italic" font-weight="bold" text-anchor="middle"><text x="86.17" y="659.17">Your Screen</text></g><path fill="none" stroke="#666" stroke-dasharray="9 9" stroke-linecap="round" stroke-linejoin="round" stroke-miterlimit="10" stroke-width="3" d="M 88.33 630 Q 88.33 609.67 118.33 609.67 Q 148.33 609.67 148.33 578.02" pointer-events="none"/><path fill="#666" stroke="#666" stroke-linecap="round" stroke-linejoin="round" stroke-miterlimit="10" stroke-width="3" d="M 148.33 563.02 L 148.41 563.06 L 150.41 567.06 L 152.19 570.95 L 154.43 575.07 L 156.54 579.12 L 158.33 583.02 L 158.44 583.24 L 156.39 582.14 L 154.43 581.21 L 152.3 579.96 L 150.24 578.83 L 148.33 578.02 L 148.26 577.88 L 146.32 578.99 L 144.29 579.94 L 142.3 580.95 L 140.24 581.82 L 138.33 583.02 L 138.49 583.1 L 140.26 578.99 L 142.39 575.05 L 144.35 571.03 L 146.53 567.12 L 148.33 563.02 Z Z" pointer-events="none"/><rect width="270" height="95" x="625" y="250" fill="#000" stroke="#000" opacity=".25" rx="5" transform="translate(2,3)"/><rect width="270" height="95" x="625" y="250" fill="#f8cecc" stroke="#b85450" pointer-events="none" rx="5"/><g fill="#000" font-family="Tahoma" font-size="25" font-weight="bold" text-anchor="middle"><text x="758.67" y="291.67">The CSS</text><text x="758.67" y="321.67">Coordinate System</text></g><path fill="#000" stroke="#000" stroke-linejoin="round" stroke-miterlimit="10" stroke-width="3" d="M 469.97 313.21 L 472.67 308.22 L 686.1 423.83 L 690.09 416.45 L 708.68 439.29 L 679.4 436.19 L 683.4 428.81 Z" opacity=".25" transform="translate(2,3)"/><path fill="#f8cecc" stroke="#b85450" stroke-linejoin="round" stroke-miterlimit="10" stroke-width="3" d="M 469.97 313.21 L 472.67 308.22 L 686.1 423.83 L 690.09 416.45 L 708.68 439.29 L 679.4 436.19 L 683.4 428.81 Z" pointer-events="none"/></g></svg>