<?xml version="1.0" standalone="no"?>
<!DOCTYPE svg PUBLIC "-//W3C//DTD SVG 20010904//EN"
 "http://www.w3.org/TR/2001/REC-SVG-20010904/DTD/svg10.dtd">
<svg version="1.0" xmlns="http://www.w3.org/2000/svg"
 width="1024.000000pt" height="1024.000000pt" viewBox="0 0 1024.000000 1024.000000"
 preserveAspectRatio="xMidYMid meet">
<metadata>
Created by potrace 1.11, written by Peter Selinger 2001-2013
</metadata>
<g transform="translate(0.000000,1024.000000) scale(0.100000,-0.100000)"
fill="#000000" stroke="none">
<path d="M0 5120 l0 -5120 5120 0 5120 0 0 5120 0 5120 -5120 0 -5120 0 0
-5120z m1376 4031 c360 -106 463 -136 659 -191 236 -66 403 -114 665 -191 91
-26 248 -71 350 -99 230 -64 422 -119 610 -175 155 -46 244 -72 490 -140 85
-23 259 -73 385 -110 300 -87 517 -149 635 -181 105 -29 294 -84 495 -144 72
-21 238 -68 370 -105 132 -37 292 -82 355 -100 336 -99 474 -139 660 -190 113
-32 264 -75 335 -96 284 -84 479 -140 675 -194 113 -31 264 -74 335 -95 72
-21 184 -54 250 -73 133 -39 555 -159 624 -177 63 -17 89 -37 102 -79 8 -28 8
-44 -3 -67 -12 -28 -451 -465 -2528 -2513 -399 -394 -918 -907 -1155 -1141
-236 -234 -761 -752 -1165 -1150 -404 -398 -850 -838 -990 -977 -140 -138
-268 -257 -284 -263 -37 -14 -91 3 -112 35 -8 13 -39 126 -69 252 -29 125 -81
341 -115 478 -33 138 -81 338 -105 445 -24 107 -80 344 -124 525 -44 182 -103
429 -131 550 -104 448 -141 602 -160 675 -22 84 -94 387 -146 615 -44 192
-103 442 -159 670 -42 171 -86 360 -191 805 -25 107 -85 362 -134 565 -49 204
-110 460 -135 570 -26 110 -89 376 -140 590 -52 215 -112 469 -134 565 -22 96
-85 361 -141 589 -55 228 -100 432 -100 453 0 30 7 46 29 69 38 37 69 37 197
0z"/>
<path d="M1350 8959 c0 -11 13 -73 29 -137 16 -64 52 -216 80 -337 28 -121 88
-377 135 -570 46 -192 103 -431 126 -530 23 -99 83 -355 135 -570 51 -214 112
-471 135 -570 24 -99 87 -364 140 -590 54 -225 117 -489 139 -585 42 -179 200
-845 271 -1140 36 -152 95 -400 296 -1250 41 -173 101 -430 135 -570 33 -140
94 -397 135 -570 107 -454 136 -573 144 -589 6 -11 76 52 266 240 271 266
2841 2803 4104 4050 404 399 908 896 1120 1105 212 208 386 384 388 390 4 15
-22 25 -268 95 -266 75 -680 194 -905 259 -93 27 -260 74 -370 105 -110 31
-353 101 -540 155 -187 54 -428 123 -535 153 -107 31 -519 148 -915 262 -396
114 -790 226 -875 250 -85 24 -211 60 -280 80 -279 81 -1566 450 -1710 490
-85 24 -317 91 -515 148 -198 58 -450 130 -560 161 -110 30 -222 62 -250 70
-27 9 -51 16 -52 16 -2 0 -3 -9 -3 -21z m120 -32 c96 -27 -62 86 1285 -917
116 -86 309 -230 430 -320 121 -90 317 -235 435 -324 118 -88 292 -217 385
-286 94 -70 296 -220 450 -335 154 -115 343 -255 420 -312 77 -58 165 -123
195 -146 l55 -42 -70 -10 -70 -11 -130 96 c-71 53 -422 314 -780 580 -357 266
-886 659 -1173 872 -288 214 -570 424 -626 466 -56 42 -282 212 -504 377 -267
199 -402 305 -402 317 0 23 -2 23 100 -5z m7564 -2265 l-81 -78 -299 -131
c-164 -72 -456 -199 -649 -283 -192 -84 -456 -198 -585 -255 -129 -57 -298
-130 -375 -163 -77 -33 -216 -94 -310 -135 -159 -70 -318 -139 -970 -422 -143
-62 -321 -140 -396 -173 -111 -49 -463 -202 -505 -219 -8 -3 -6 18 6 59 l17
62 249 109 c137 59 384 167 549 239 165 72 437 190 605 263 168 73 395 172
505 220 626 273 1335 581 1865 811 195 85 364 159 375 164 11 5 34 9 50 9 29
0 27 -3 -51 -77z m-3846 -455 c14 -14 22 -32 22 -55 0 -18 -36 -158 -80 -310
-163 -569 -257 -899 -275 -967 -28 -104 -74 -144 -132 -112 -12 7 -209 269
-438 582 -390 535 -415 572 -411 604 11 73 -36 61 756 197 179 30 366 63 415
73 98 19 109 18 143 -12z m-1274 -377 c20 -28 36 -62 36 -76 0 -14 -47 -364
-105 -777 -58 -414 -123 -885 -146 -1047 -22 -162 -74 -531 -114 -820 -41
-289 -88 -628 -105 -755 -113 -837 -191 -1360 -204 -1374 -13 -12 -16 -13 -20
0 -15 43 -36 156 -36 196 0 25 29 253 65 507 35 253 85 612 110 796 25 184 84
605 130 935 46 330 100 717 120 860 19 143 55 404 79 580 25 176 65 469 90
650 46 332 53 375 60 375 2 0 20 -23 40 -50z"/>
</g>
</svg>
