<svg version="1.1" viewBox="0.0 0.0 960.0 720.0" fill="none" stroke="none" stroke-linecap="square" stroke-miterlimit="10" xmlns:xlink="http://www.w3.org/1999/xlink" xmlns="http://www.w3.org/2000/svg"><clipPath id="p.0"><path d="m0 0l960.0 0l0 720.0l-960.0 0l0 -720.0z" clip-rule="nonzero"/></clipPath><g clip-path="url(#p.0)"><path fill="#000000" fill-opacity="0.0" d="m0 0l960.0 0l0 720.0l-960.0 0z" fill-rule="evenodd"/><path fill="#000000" d="m0 360.0l960.00006 0l0 360.0l-960.00006 0z" fill-rule="evenodd"/><path fill="#ffffff" d="m0 0l960.00006 0l0 360.0l-960.00006 0z" fill-rule="evenodd"/><path fill="#000000" fill-opacity="0.0" d="m326.0105 270.96588l-43.212585 -174.94489l173.22833 49.874023z" fill-rule="evenodd"/><path stroke="#000000" stroke-width="4.0" stroke-linejoin="round" stroke-linecap="butt" d="m326.0105 270.96588l-43.212585 -174.94489l173.22833 49.874023z" fill-rule="evenodd"/><path fill="#000000" fill-opacity="0.0" d="m369.38345 120.972275l21.590546 87.49606l-86.566925 -24.944885z" fill-rule="evenodd"/><path stroke="#000000" stroke-width="4.0" stroke-linejoin="round" stroke-linecap="butt" d="m369.38345 120.972275l21.590546 87.49606l-86.566925 -24.944885z" fill-rule="evenodd"/><path fill="#000000" fill-opacity="0.0" d="m347.90063 195.38747l-10.724426 -43.46457l43.007874 12.346466z" fill-rule="evenodd"/><path stroke="#000000" stroke-width="4.0" stroke-linejoin="round" stroke-linecap="butt" d="m347.90063 195.38747l-10.724426 -43.46457l43.007874 12.346466z" fill-rule="evenodd"/><path fill="#000000" fill-opacity="0.0" d="m326.44812 108.51292l10.724426 43.46456l-43.007904 -12.346451z" fill-rule="evenodd"/><path stroke="#000000" stroke-width="4.0" stroke-linejoin="round" stroke-linecap="butt" d="m326.44812 108.51292l10.724426 43.46456l-43.007904 -12.346451z" fill-rule="evenodd"/><path fill="#000000" fill-opacity="0.0" d="m412.46515 133.29073l10.724396 43.46457l-43.007874 -12.346466z" fill-rule="evenodd"/><path stroke="#000000" stroke-width="4.0" stroke-linejoin="round" stroke-linecap="butt" d="m412.46515 133.29073l10.724396 43.46457l-43.007874 -12.346466z" fill-rule="evenodd"/><path fill="#000000" fill-opacity="0.0" d="m347.90564 195.41774l10.724396 43.464554l-43.007874 -12.346451z" fill-rule="evenodd"/><path stroke="#000000" stroke-width="4.0" stroke-linejoin="round" stroke-linecap="butt" d="m347.90564 195.41774l10.724396 43.464554l-43.007874 -12.346451z" fill-rule="evenodd"/><path fill="#000000" fill-opacity="0.0" d="m326.0105 626.68506l-43.212585 -174.94492l173.22833 49.874023z" fill-rule="evenodd"/><path stroke="#ffffff" stroke-width="4.0" stroke-linejoin="round" stroke-linecap="butt" d="m326.0105 626.68506l-43.212585 -174.94492l173.22833 49.874023z" fill-rule="evenodd"/><path fill="#000000" fill-opacity="0.0" d="m369.38345 476.69144l21.590546 87.49606l-86.566925 -24.944885z" fill-rule="evenodd"/><path stroke="#ffffff" stroke-width="4.0" stroke-linejoin="round" stroke-linecap="butt" d="m369.38345 476.69144l21.590546 87.49606l-86.566925 -24.944885z" fill-rule="evenodd"/><path fill="#000000" fill-opacity="0.0" d="m347.90063 551.1066l-10.724426 -43.46457l43.007874 12.346466z" fill-rule="evenodd"/><path stroke="#ffffff" stroke-width="4.0" stroke-linejoin="round" stroke-linecap="butt" d="m347.90063 551.1066l-10.724426 -43.46457l43.007874 12.346466z" fill-rule="evenodd"/><path fill="#000000" fill-opacity="0.0" d="m326.44812 464.2321l10.724426 43.46457l-43.007904 -12.346466z" fill-rule="evenodd"/><path stroke="#ffffff" stroke-width="4.0" stroke-linejoin="round" stroke-linecap="butt" d="m326.44812 464.2321l10.724426 43.46457l-43.007904 -12.346466z" fill-rule="evenodd"/><path fill="#000000" fill-opacity="0.0" d="m412.46515 489.0099l10.724396 43.46454l-43.007874 -12.346436z" fill-rule="evenodd"/><path stroke="#ffffff" stroke-width="4.0" stroke-linejoin="round" stroke-linecap="butt" d="m412.46515 489.0099l10.724396 43.46454l-43.007874 -12.346436z" fill-rule="evenodd"/><path fill="#000000" fill-opacity="0.0" d="m347.90564 551.1369l10.724396 43.46454l-43.007874 -12.346436z" fill-rule="evenodd"/><path stroke="#ffffff" stroke-width="4.0" stroke-linejoin="round" stroke-linecap="butt" d="m347.90564 551.1369l10.724396 43.46454l-43.007874 -12.346436z" fill-rule="evenodd"/><path fill="#000000" fill-opacity="0.0" d="m433.79004 172.4462l232.0 0l0 88.0l-232.0 0z" fill-rule="evenodd"/><path fill="#000000" d="m457.0713 235.76869q-8.171875 0 -8.171875 -7.390625l0 -17.359375l-3.984375 0q-0.4375 0 -0.75 -0.3125q-0.3125 -0.3125 -0.3125 -0.75q0 -0.5625 0.5 -0.953125l7.625 -7.453125q0.5 -0.5 0.953125 -0.5q0.4375 0 0.75 0.34375q0.3125 0.328125 0.3125 0.765625l0 4.484375l6.328125 0q0.953125 0 1.5625 0.625q0.625 0.609375 0.625 1.5625q0 0.890625 -0.625 1.546875q-0.609375 0.640625 -1.5625 0.640625l-6.328125 0l0 16.90625q0 2.1875 1.03125 2.78125q1.03125 0.578125 2.609375 0.578125q1.109375 0 2.234375 -0.328125q0.21875 -0.0625 0.46875 -0.109375q0.265625 -0.0625 0.65625 -0.0625q0.78125 0 1.390625 0.59375q0.625 0.578125 0.625 1.421875q0 1.28125 -1.296875 1.953125q-2.171875 1.015625 -4.640625 1.015625zm14.048248 -0.28125q-1.0625 0 -1.796875 -0.71875q-0.71875 -0.734375 -0.71875 -1.796875l0 -36.34375q0 -1.0625 0.71875 -1.8125q0.734375 -0.765625 1.796875 -0.765625q1.078125 0 1.828125 0.765625q0.75 0.75 0.75 1.8125l0 14.609375q2.125 -2.34375 4.59375 -3.75q2.46875 -1.40625 5.828125 -1.40625q3.078125 0 5.34375 1.46875q2.265625 1.453125 3.46875 3.96875q1.203125 2.515625 1.203125 5.546875l0 15.90625q0 1.0625 -0.75 1.796875q-0.75 0.71875 -1.8125 0.71875q-1.078125 0 -1.8125 -0.71875q-0.71875 -0.734375 -0.71875 -1.796875l0 -15.34375q0 -6.84375 -6.15625 -6.84375q-2.796875 0 -5.015625 1.46875q-2.203125 1.453125 -4.171875 3.90625l0 16.8125q0 1.0625 -0.75 1.796875q-0.75 0.71875 -1.828125 0.71875zm34.104004 0q-1.0625 0 -1.796875 -0.71875q-0.71875 -0.734375 -0.71875 -1.796875l0 -24.03125q0 -1.0625 0.71875 -1.8125q0.734375 -0.765625 1.796875 -0.765625q1.078125 0 1.828125 0.765625q0.75 0.75 0.75 1.8125l0 2.40625q3.921875 -5.265625 8.7968445 -5.265625l0.28125 0q1.0625 0 1.765625 0.734375q0.703125 0.734375 0.703125 1.796875q0 1.0625 -0.734375 1.734375q-0.734375 0.671875 -1.84375 0.671875l-0.28125 0q-2.6875 0 -4.9374695 1.3125q-2.234375 1.3125 -3.75 3.609375l0 17.03125q0 1.0625 -0.75 1.796875q-0.75 0.71875 -1.828125 0.71875zm31.697968 0.28125q-6.828125 0 -10.671875 -3.890625q-3.828125 -3.890625 -3.828125 -10.953125q0 -3.96875 1.453125 -7.328125q1.453125 -3.359375 4.46875 -5.4375q3.03125 -2.078125 7.46875 -2.078125q4.140625 0 7.15625 1.9375q3.03125 1.9375 4.59375 5.15625q1.578125 3.21875 1.578125 7.015625q0 1.078125 -0.703125 1.8125q-0.703125 0.71875 -1.875 0.71875l-18.984375 0q0.4375 3.921875 2.90625 6.109375q2.46875 2.171875 6.890625 2.171875q2.34375 0 4.109375 -0.4375q1.765625 -0.453125 3.453125 -1.296875q0.4375 -0.21875 1.0 -0.21875q0.90625 0 1.578125 0.625q0.671875 0.609375 0.671875 1.5625q0 1.21875 -1.46875 2.0625q-2.171875 1.234375 -4.3125 1.859375q-2.125 0.609375 -5.484375 0.609375zm7.171875 -17.1875q-0.171875 -2.75 -1.4375 -4.59375q-1.25 -1.859375 -3.109375 -2.71875q-1.84375 -0.875 -3.734375 -0.875q-1.90625 0 -3.765625 0.875q-1.84375 0.859375 -3.078125 2.71875q-1.21875 1.84375 -1.390625 4.59375l16.515625 0zm24.52417 17.1875q-6.828125 0 -10.671875 -3.890625q-3.828125 -3.890625 -3.828125 -10.953125q0 -3.96875 1.453125 -7.328125q1.453125 -3.359375 4.46875 -5.4375q3.03125 -2.078125 7.46875 -2.078125q4.140625 0 7.15625 1.9375q3.03125 1.9375 4.59375 5.15625q1.578125 3.21875 1.578125 7.015625q0 1.078125 -0.703125 1.8125q-0.703125 0.71875 -1.875 0.71875l-18.984375 0q0.4375 3.921875 2.90625 6.109375q2.46875 2.171875 6.890625 2.171875q2.34375 0 4.109375 -0.4375q1.765625 -0.453125 3.453125 -1.296875q0.4375 -0.21875 1.0 -0.21875q0.90625 0 1.578125 0.625q0.671875 0.609375 0.671875 1.5625q0 1.21875 -1.46875 2.0625q-2.171875 1.234375 -4.3125 1.859375q-2.125 0.609375 -5.484375 0.609375zm7.171875 -17.1875q-0.171875 -2.75 -1.4375 -4.59375q-1.25 -1.859375 -3.109375 -2.71875q-1.84375 -0.875 -3.734375 -0.875q-1.90625 0 -3.765625 0.875q-1.84375 0.859375 -3.078125 2.71875q-1.21875 1.84375 -1.390625 4.59375l16.515625 0zm14.336609 16.796875q-1.28125 0 -2.21875 -0.921875q-0.921875 -0.9375 -0.921875 -2.21875l0 -0.328125q0 -1.296875 0.921875 -2.21875q0.9375 -0.921875 2.21875 -0.921875l0.5625 0q1.28125 0 2.203125 0.921875q0.9375 0.921875 0.9375 2.21875l0 0.328125q0 1.28125 -0.9375 2.21875q-0.921875 0.921875 -2.203125 0.921875l-0.5625 0zm14.669373 -34.5625q-1.171875 0 -2.015625 -0.828125q-0.84375 -0.84375 -0.84375 -2.015625l0 -0.234375q0 -1.171875 0.84375 -2.0q0.84375 -0.84375 2.015625 -0.84375l0.34375 0q1.171875 0 2.0 0.84375q0.84375 0.828125 0.84375 2.0l0 0.234375q0 1.171875 -0.84375 2.015625q-0.828125 0.828125 -2.0 0.828125l-0.34375 0zm-4.640625 47.828125q-2.015625 0 -3.53125 -0.5q-0.671875 -0.21875 -1.0625 -0.765625q-0.390625 -0.53125 -0.390625 -1.25q0 -0.84375 0.625 -1.484375q0.609375 -0.640625 1.5 -0.640625q0.328125 0 0.828125 0.078125q0.515625 0.078125 0.84375 0.078125q1.75 0 2.578125 -0.609375q0.84375 -0.609375 0.84375 -2.6875l0 -31.859375q0 -1.0625 0.71875 -1.8125q0.734375 -0.765625 1.796875 -0.765625q1.125 0 1.84375 0.734375q0.734375 0.71875 0.734375 1.84375l0 31.96875q0 3.46875 -1.765625 5.5625q-1.765625 2.109375 -5.5625 2.109375zm25.411499 -12.875q-5.59375 0 -10.1875 -2.515625q-0.953125 -0.671875 -0.953125 -1.859375q0 -0.890625 0.609375 -1.5625q0.625 -0.671875 1.578125 -0.671875q0.5 0 1.015625 0.21875q1.78125 0.78125 3.578125 1.234375q1.796875 0.453125 4.03125 0.453125q6.21875 0 6.21875 -3.984375q0 -1.28125 -1.4375 -1.953125q-1.421875 -0.671875 -4.671875 -1.515625q-3.296875 -0.78125 -5.453125 -1.625q-2.15625 -0.84375 -3.703125 -2.546875q-1.53125 -1.703125 -1.53125 -4.5q0 -3.921875 2.828125 -6.390625q2.828125 -2.46875 8.078125 -2.46875q4.3125 0 8.125 1.40625q0.78125 0.21875 1.203125 0.84375q0.421875 0.609375 0.421875 1.28125q0 0.890625 -0.640625 1.5625q-0.640625 0.671875 -1.59375 0.671875q-0.28125 0 -0.734375 -0.109375q-3.25 -1.0 -6.375 -1.0q-3.03125 0 -4.75 1.09375q-1.703125 1.09375 -1.703125 2.828125q0 1.671875 1.5625 2.46875q1.578125 0.78125 4.890625 1.5q3.296875 0.84375 5.359375 1.65625q2.078125 0.8125 3.5625 2.546875q1.484375 1.734375 1.484375 4.640625q0 3.59375 -2.828125 5.953125q-2.828125 2.34375 -7.984375 2.34375z" fill-rule="nonzero"/><path fill="#000000" fill-opacity="0.0" d="m429.56693 530.3937l231.99997 0l0 88.0l-231.99997 0z" fill-rule="evenodd"/><path fill="#ffffff" d="m452.84818 593.7162q-8.171875 0 -8.171875 -7.390625l0 -17.359375l-3.984375 0q-0.4375 0 -0.75 -0.3125q-0.3125 -0.3125 -0.3125 -0.75q0 -0.5625 0.5 -0.953125l7.625 -7.453125q0.5 -0.5 0.953125 -0.5q0.4375 0 0.75 0.34375q0.3125 0.328125 0.3125 0.765625l0 4.484375l6.328125 0q0.953125 0 1.5625 0.625q0.625 0.609375 0.625 1.5625q0 0.890625 -0.625 1.546875q-0.609375 0.640625 -1.5625 0.640625l-6.328125 0l0 16.90625q0 2.1875 1.03125 2.78125q1.03125 0.578125 2.609375 0.578125q1.109375 0 2.234375 -0.328125q0.21875 -0.0625 0.46875 -0.109375q0.265625 -0.0625 0.65625 -0.0625q0.78125 0 1.390625 0.59375q0.625 0.578125 0.625 1.421875q0 1.28125 -1.296875 1.953125q-2.171875 1.015625 -4.640625 1.015625zm14.048248 -0.28125q-1.0625 0 -1.796875 -0.71875q-0.71875 -0.734375 -0.71875 -1.796875l0 -36.34375q0 -1.0625 0.71875 -1.8125q0.734375 -0.765625 1.796875 -0.765625q1.078125 0 1.828125 0.765625q0.75 0.75 0.75 1.8125l0 14.609375q2.125 -2.34375 4.59375 -3.75q2.46875 -1.40625 5.828125 -1.40625q3.078125 0 5.34375 1.46875q2.265625 1.453125 3.46875 3.96875q1.203125 2.515625 1.203125 5.546875l0 15.90625q0 1.0625 -0.75 1.796875q-0.75 0.71875 -1.8125 0.71875q-1.078125 0 -1.8125 -0.71875q-0.71875 -0.734375 -0.71875 -1.796875l0 -15.34375q0 -6.84375 -6.15625 -6.84375q-2.796875 0 -5.015625 1.46875q-2.203125 1.453125 -4.171875 3.90625l0 16.8125q0 1.0625 -0.75 1.796875q-0.75 0.71875 -1.828125 0.71875zm34.104004 0q-1.0625 0 -1.796875 -0.71875q-0.71875 -0.734375 -0.71875 -1.796875l0 -24.03125q0 -1.0625 0.71875 -1.8125q0.734375 -0.765625 1.796875 -0.765625q1.078125 0 1.828125 0.765625q0.75 0.75 0.75 1.8125l0 2.40625q3.921875 -5.265625 8.796875 -5.265625l0.28125 0q1.0625 0 1.765625 0.734375q0.703125 0.734375 0.703125 1.796875q0 1.0625 -0.734375 1.734375q-0.734375 0.671875 -1.84375 0.671875l-0.28125 0q-2.6875 0 -4.9375 1.3125q-2.234375 1.3125 -3.75 3.609375l0 17.03125q0 1.0625 -0.75 1.796875q-0.75 0.71875 -1.828125 0.71875zm31.697998 0.28125q-6.828125 0 -10.671875 -3.890625q-3.828125 -3.890625 -3.828125 -10.953125q0 -3.96875 1.453125 -7.328125q1.453125 -3.359375 4.46875 -5.4375q3.03125 -2.078125 7.46875 -2.078125q4.140625 0 7.15625 1.9375q3.03125 1.9375 4.59375 5.15625q1.578125 3.21875 1.578125 7.015625q0 1.078125 -0.703125 1.8125q-0.703125 0.71875 -1.875 0.71875l-18.984375 0q0.4375 3.921875 2.90625 6.109375q2.46875 2.171875 6.890625 2.171875q2.34375 0 4.109375 -0.4375q1.765625 -0.453125 3.453125 -1.296875q0.4375 -0.21875 1.0 -0.21875q0.90625 0 1.578125 0.625q0.671875 0.609375 0.671875 1.5625q0 1.21875 -1.46875 2.0625q-2.171875 1.234375 -4.3125 1.859375q-2.125 0.609375 -5.484375 0.609375zm7.171875 -17.1875q-0.171875 -2.75 -1.4375 -4.59375q-1.25 -1.859375 -3.109375 -2.71875q-1.84375 -0.875 -3.734375 -0.875q-1.90625 0 -3.765625 0.875q-1.84375 0.859375 -3.078125 2.71875q-1.21875 1.84375 -1.390625 4.59375l16.515625 0zm24.524109 17.1875q-6.828125 0 -10.671875 -3.890625q-3.828125 -3.890625 -3.828125 -10.953125q0 -3.96875 1.453125 -7.328125q1.453125 -3.359375 4.46875 -5.4375q3.03125 -2.078125 7.46875 -2.078125q4.140625 0 7.15625 1.9375q3.03125 1.9375 4.59375 5.15625q1.578125 3.21875 1.578125 7.015625q0 1.078125 -0.703125 1.8125q-0.703125 0.71875 -1.875 0.71875l-18.984375 0q0.4375 3.921875 2.90625 6.109375q2.46875 2.171875 6.890625 2.171875q2.34375 0 4.109375 -0.4375q1.765625 -0.453125 3.453125 -1.296875q0.4375 -0.21875 1.0 -0.21875q0.90625 0 1.578125 0.625q0.671875 0.609375 0.671875 1.5625q0 1.21875 -1.46875 2.0625q-2.171875 1.234375 -4.3125 1.859375q-2.125 0.609375 -5.484375 0.609375zm7.171875 -17.1875q-0.171875 -2.75 -1.4375 -4.59375q-1.25 -1.859375 -3.109375 -2.71875q-1.84375 -0.875 -3.734375 -0.875q-1.90625 0 -3.765625 0.875q-1.84375 0.859375 -3.078125 2.71875q-1.21875 1.84375 -1.390625 4.59375l16.515625 0zm14.33667 16.796875q-1.28125 0 -2.21875 -0.921875q-0.921875 -0.9375 -0.921875 -2.21875l0 -0.328125q0 -1.296875 0.921875 -2.21875q0.9375 -0.921875 2.21875 -0.921875l0.5625 0q1.28125 0 2.203125 0.921875q0.9375 0.921875 0.9375 2.21875l0 0.328125q0 1.28125 -0.9375 2.21875q-0.921875 0.921875 -2.203125 0.921875l-0.5625 0zm14.669373 -34.5625q-1.171875 0 -2.015625 -0.828125q-0.84375 -0.84375 -0.84375 -2.015625l0 -0.234375q0 -1.171875 0.84375 -2.0q0.84375 -0.84375 2.015625 -0.84375l0.34375 0q1.171875 0 2.0 0.84375q0.84375 0.828125 0.84375 2.0l0 0.234375q0 1.171875 -0.84375 2.015625q-0.828125 0.828125 -2.0 0.828125l-0.34375 0zm-4.640625 47.828125q-2.015625 0 -3.53125 -0.5q-0.671875 -0.21875 -1.0625 -0.765625q-0.390625 -0.53125 -0.390625 -1.25q0 -0.84375 0.625 -1.484375q0.609375 -0.640625 1.5 -0.640625q0.328125 0 0.828125 0.078125q0.515625 0.078125 0.84375 0.078125q1.75 0 2.578125 -0.609375q0.84375 -0.609375 0.84375 -2.6875l0 -31.859375q0 -1.0625 0.71875 -1.8125q0.734375 -0.765625 1.796875 -0.765625q1.125 0 1.84375 0.734375q0.734375 0.71875 0.734375 1.84375l0 31.96875q0 3.46875 -1.765625 5.5625q-1.765625 2.109375 -5.5625 2.109375zm25.411499 -12.875q-5.59375 0 -10.1875 -2.515625q-0.953125 -0.671875 -0.953125 -1.859375q0 -0.890625 0.609375 -1.5625q0.625 -0.671875 1.578125 -0.671875q0.5 0 1.015625 0.21875q1.78125 0.78125 3.578125 1.234375q1.796875 0.453125 4.03125 0.453125q6.21875 0 6.21875 -3.984375q0 -1.28125 -1.4375 -1.953125q-1.421875 -0.671875 -4.671875 -1.515625q-3.296875 -0.78125 -5.453125 -1.625q-2.15625 -0.84375 -3.703125 -2.546875q-1.53125 -1.703125 -1.53125 -4.5q0 -3.921875 2.828125 -6.390625q2.828125 -2.46875 8.078125 -2.46875q4.3125 0 8.125 1.40625q0.78125 0.21875 1.203125 0.84375q0.421875 0.609375 0.421875 1.28125q0 0.890625 -0.640625 1.5625q-0.640625 0.671875 -1.59375 0.671875q-0.28125 0 -0.734375 -0.109375q-3.25 -1.0 -6.375 -1.0q-3.03125 0 -4.75 1.09375q-1.703125 1.09375 -1.703125 2.828125q0 1.671875 1.5625 2.46875q1.578125 0.78125 4.890625 1.5q3.296875 0.84375 5.359375 1.65625q2.078125 0.8125 3.5625 2.546875q1.484375 1.734375 1.484375 4.640625q0 3.59375 -2.828125 5.953125q-2.828125 2.34375 -7.984375 2.34375z" fill-rule="nonzero"/></g></svg>